<mxfile host="app.diagrams.net" agent="Mozilla/5.0 (Windows NT 10.0; Win64; x64) AppleWebKit/537.36 (KHTML, like Gecko) Chrome/130.0.0.0 Safari/537.36" version="24.9.0">
  <diagram name="Hospital ER Diagram" id="0">
    <mxGraphModel dx="3357" dy="3755" grid="1" gridSize="10" guides="1" tooltips="1" connect="1" arrows="1" fold="1" page="1" pageScale="1" pageWidth="827" pageHeight="1169" math="0" shadow="0">
      <root>
        <mxCell id="0" />
        <mxCell id="1" parent="0" />
        <mxCell id="uGLxTM2DFbwT5KClBr5C-273" style="edgeStyle=orthogonalEdgeStyle;rounded=0;orthogonalLoop=1;jettySize=auto;html=1;entryX=0.621;entryY=1.022;entryDx=0;entryDy=0;entryPerimeter=0;fontSize=20;fontStyle=0;labelBackgroundColor=none;fontColor=#000000;" parent="1" source="UZzyd5HIegSU0YCeQs_y-48" target="uGLxTM2DFbwT5KClBr5C-256" edge="1">
          <mxGeometry relative="1" as="geometry" />
        </mxCell>
        <mxCell id="UZzyd5HIegSU0YCeQs_y-48" value="Room" style="swimlane;fontStyle=0;childLayout=stackLayout;horizontal=1;startSize=30;horizontalStack=0;resizeParent=1;resizeParentMax=0;resizeLast=0;collapsible=1;marginBottom=0;whiteSpace=wrap;html=1;fontSize=20;labelBackgroundColor=none;fontColor=#000000;" parent="1" vertex="1">
          <mxGeometry x="-550" y="-860" width="260" height="180" as="geometry" />
        </mxCell>
        <mxCell id="UZzyd5HIegSU0YCeQs_y-49" value="&lt;span style=&quot;text-align: center;&quot;&gt;_id&lt;/span&gt;&lt;span style=&quot;text-align: center;&quot;&gt;: ObjectId&lt;/span&gt;" style="text;strokeColor=none;fillColor=none;align=left;verticalAlign=middle;spacingLeft=4;spacingRight=4;overflow=hidden;points=[[0,0.5],[1,0.5]];portConstraint=eastwest;rotatable=0;whiteSpace=wrap;html=1;fontSize=20;fontStyle=0;labelBackgroundColor=none;fontColor=#000000;" parent="UZzyd5HIegSU0YCeQs_y-48" vertex="1">
          <mxGeometry y="30" width="260" height="30" as="geometry" />
        </mxCell>
        <mxCell id="UZzyd5HIegSU0YCeQs_y-50" value="&lt;span style=&quot;text-align: center;&quot;&gt;doctor&lt;/span&gt;&lt;span style=&quot;text-align: center;&quot;&gt;: Doctor&lt;/span&gt;" style="text;strokeColor=none;fillColor=none;align=left;verticalAlign=middle;spacingLeft=4;spacingRight=4;overflow=hidden;points=[[0,0.5],[1,0.5]];portConstraint=eastwest;rotatable=0;whiteSpace=wrap;html=1;fontSize=20;fontStyle=0;labelBackgroundColor=none;fontColor=#000000;" parent="UZzyd5HIegSU0YCeQs_y-48" vertex="1">
          <mxGeometry y="60" width="260" height="30" as="geometry" />
        </mxCell>
        <mxCell id="UZzyd5HIegSU0YCeQs_y-51" value="&lt;span style=&quot;text-align: center;&quot;&gt;patient: Patient&lt;/span&gt;" style="text;strokeColor=none;fillColor=none;align=left;verticalAlign=middle;spacingLeft=4;spacingRight=4;overflow=hidden;points=[[0,0.5],[1,0.5]];portConstraint=eastwest;rotatable=0;whiteSpace=wrap;html=1;fontSize=20;fontStyle=0;labelBackgroundColor=none;fontColor=#000000;" parent="UZzyd5HIegSU0YCeQs_y-48" vertex="1">
          <mxGeometry y="90" width="260" height="30" as="geometry" />
        </mxCell>
        <mxCell id="UZzyd5HIegSU0YCeQs_y-52" value="&lt;span style=&quot;text-align: center;&quot;&gt;status: String&lt;/span&gt;" style="text;strokeColor=none;fillColor=none;align=left;verticalAlign=middle;spacingLeft=4;spacingRight=4;overflow=hidden;points=[[0,0.5],[1,0.5]];portConstraint=eastwest;rotatable=0;whiteSpace=wrap;html=1;fontSize=20;fontStyle=0;labelBackgroundColor=none;fontColor=#000000;" parent="UZzyd5HIegSU0YCeQs_y-48" vertex="1">
          <mxGeometry y="120" width="260" height="30" as="geometry" />
        </mxCell>
        <mxCell id="UZzyd5HIegSU0YCeQs_y-53" value="&lt;span style=&quot;text-align: center;&quot;&gt;lastMessage: LastMessage&lt;/span&gt;" style="text;strokeColor=none;fillColor=none;align=left;verticalAlign=middle;spacingLeft=4;spacingRight=4;overflow=hidden;points=[[0,0.5],[1,0.5]];portConstraint=eastwest;rotatable=0;whiteSpace=wrap;html=1;fontSize=20;fontStyle=0;labelBackgroundColor=none;fontColor=#000000;" parent="UZzyd5HIegSU0YCeQs_y-48" vertex="1">
          <mxGeometry y="150" width="260" height="30" as="geometry" />
        </mxCell>
        <mxCell id="uGLxTM2DFbwT5KClBr5C-212" style="edgeStyle=orthogonalEdgeStyle;rounded=0;orthogonalLoop=1;jettySize=auto;html=1;entryX=0;entryY=0.5;entryDx=0;entryDy=0;fontSize=20;fontStyle=0;labelBackgroundColor=none;fontColor=#000000;" parent="1" source="UZzyd5HIegSU0YCeQs_y-56" target="uGLxTM2DFbwT5KClBr5C-205" edge="1">
          <mxGeometry relative="1" as="geometry" />
        </mxCell>
        <mxCell id="UZzyd5HIegSU0YCeQs_y-56" value="MedicalRecord" style="swimlane;fontStyle=0;childLayout=stackLayout;horizontal=1;startSize=30;horizontalStack=0;resizeParent=1;resizeParentMax=0;resizeLast=0;collapsible=1;marginBottom=0;whiteSpace=wrap;html=1;fontSize=20;labelBackgroundColor=none;fontColor=#000000;" parent="1" vertex="1">
          <mxGeometry x="-550" y="-670" width="240" height="540" as="geometry" />
        </mxCell>
        <mxCell id="UZzyd5HIegSU0YCeQs_y-57" value="&lt;span style=&quot;text-align: center;&quot;&gt;_id&lt;/span&gt;&lt;span style=&quot;text-align: center;&quot;&gt;: ObjectId&lt;/span&gt;" style="text;strokeColor=none;fillColor=none;align=left;verticalAlign=middle;spacingLeft=4;spacingRight=4;overflow=hidden;points=[[0,0.5],[1,0.5]];portConstraint=eastwest;rotatable=0;whiteSpace=wrap;html=1;fontSize=20;fontStyle=0;labelBackgroundColor=none;fontColor=#000000;" parent="UZzyd5HIegSU0YCeQs_y-56" vertex="1">
          <mxGeometry y="30" width="240" height="30" as="geometry" />
        </mxCell>
        <mxCell id="UZzyd5HIegSU0YCeQs_y-58" value="&lt;span style=&quot;text-align: center;&quot;&gt;patient:&lt;/span&gt;&lt;span style=&quot;text-align: center;&quot;&gt;&amp;nbsp;Patient&lt;/span&gt;" style="text;strokeColor=none;fillColor=none;align=left;verticalAlign=middle;spacingLeft=4;spacingRight=4;overflow=hidden;points=[[0,0.5],[1,0.5]];portConstraint=eastwest;rotatable=0;whiteSpace=wrap;html=1;fontSize=20;fontStyle=0;labelBackgroundColor=none;fontColor=#000000;" parent="UZzyd5HIegSU0YCeQs_y-56" vertex="1">
          <mxGeometry y="60" width="240" height="30" as="geometry" />
        </mxCell>
        <mxCell id="UZzyd5HIegSU0YCeQs_y-59" value="&lt;span style=&quot;text-align: center;&quot;&gt;doctor:Doctor&lt;/span&gt;" style="text;strokeColor=none;fillColor=none;align=left;verticalAlign=middle;spacingLeft=4;spacingRight=4;overflow=hidden;points=[[0,0.5],[1,0.5]];portConstraint=eastwest;rotatable=0;whiteSpace=wrap;html=1;fontSize=20;fontStyle=0;labelBackgroundColor=none;fontColor=#000000;" parent="UZzyd5HIegSU0YCeQs_y-56" vertex="1">
          <mxGeometry y="90" width="240" height="30" as="geometry" />
        </mxCell>
        <mxCell id="UZzyd5HIegSU0YCeQs_y-60" value="&lt;span style=&quot;white-space: pre;&quot;&gt;diagnosisDisease&lt;/span&gt;&lt;span style=&quot;text-align: center;&quot;&gt;: String&lt;/span&gt;" style="text;strokeColor=none;fillColor=none;align=left;verticalAlign=middle;spacingLeft=4;spacingRight=4;overflow=hidden;points=[[0,0.5],[1,0.5]];portConstraint=eastwest;rotatable=0;whiteSpace=wrap;html=1;fontFamily=Helvetica;labelBackgroundColor=none;fontSize=20;fontStyle=0;fontColor=#000000;" parent="UZzyd5HIegSU0YCeQs_y-56" vertex="1">
          <mxGeometry y="120" width="240" height="30" as="geometry" />
        </mxCell>
        <mxCell id="UZzyd5HIegSU0YCeQs_y-61" value="&lt;span style=&quot;white-space: pre;&quot;&gt;symptoms&lt;/span&gt;&lt;span style=&quot;text-align: center;&quot;&gt;: String&lt;/span&gt;" style="text;strokeColor=none;fillColor=none;align=left;verticalAlign=middle;spacingLeft=4;spacingRight=4;overflow=hidden;points=[[0,0.5],[1,0.5]];portConstraint=eastwest;rotatable=0;whiteSpace=wrap;html=1;fontFamily=Helvetica;labelBackgroundColor=none;fontSize=20;fontStyle=0;fontColor=#000000;" parent="UZzyd5HIegSU0YCeQs_y-56" vertex="1">
          <mxGeometry y="150" width="240" height="30" as="geometry" />
        </mxCell>
        <mxCell id="UZzyd5HIegSU0YCeQs_y-68" value="&lt;span style=&quot;white-space: pre;&quot;&gt;note&lt;/span&gt;&lt;span style=&quot;text-align: center;&quot;&gt;: String&lt;/span&gt;" style="text;strokeColor=none;fillColor=none;align=left;verticalAlign=middle;spacingLeft=4;spacingRight=4;overflow=hidden;points=[[0,0.5],[1,0.5]];portConstraint=eastwest;rotatable=0;whiteSpace=wrap;html=1;fontFamily=Helvetica;labelBackgroundColor=none;fontSize=20;fontStyle=0;fontColor=#000000;" parent="UZzyd5HIegSU0YCeQs_y-56" vertex="1">
          <mxGeometry y="180" width="240" height="30" as="geometry" />
        </mxCell>
        <mxCell id="UZzyd5HIegSU0YCeQs_y-69" value="&lt;span style=&quot;text-align: center;&quot;&gt;date: Date&lt;/span&gt;" style="text;strokeColor=none;fillColor=none;align=left;verticalAlign=middle;spacingLeft=4;spacingRight=4;overflow=hidden;points=[[0,0.5],[1,0.5]];portConstraint=eastwest;rotatable=0;whiteSpace=wrap;html=1;fontSize=20;fontStyle=0;labelBackgroundColor=none;fontColor=#000000;" parent="UZzyd5HIegSU0YCeQs_y-56" vertex="1">
          <mxGeometry y="210" width="240" height="30" as="geometry" />
        </mxCell>
        <mxCell id="uGLxTM2DFbwT5KClBr5C-194" value="&lt;span style=&quot;text-align: center;&quot;&gt;medical: Medicals[]&lt;/span&gt;" style="text;strokeColor=none;fillColor=none;align=left;verticalAlign=middle;spacingLeft=4;spacingRight=4;overflow=hidden;points=[[0,0.5],[1,0.5]];portConstraint=eastwest;rotatable=0;whiteSpace=wrap;html=1;fontSize=20;fontStyle=0;labelBackgroundColor=none;fontColor=#000000;" parent="UZzyd5HIegSU0YCeQs_y-56" vertex="1">
          <mxGeometry y="240" width="240" height="30" as="geometry" />
        </mxCell>
        <mxCell id="uGLxTM2DFbwT5KClBr5C-195" value="&lt;span style=&quot;text-align: center;&quot;&gt;appointment: ObjectId&lt;/span&gt;" style="text;strokeColor=none;fillColor=none;align=left;verticalAlign=middle;spacingLeft=4;spacingRight=4;overflow=hidden;points=[[0,0.5],[1,0.5]];portConstraint=eastwest;rotatable=0;whiteSpace=wrap;html=1;fontSize=20;fontStyle=0;labelBackgroundColor=none;fontColor=#000000;" parent="UZzyd5HIegSU0YCeQs_y-56" vertex="1">
          <mxGeometry y="270" width="240" height="30" as="geometry" />
        </mxCell>
        <mxCell id="uGLxTM2DFbwT5KClBr5C-196" value="&lt;span style=&quot;text-align: center;&quot;&gt;images: String[]&lt;/span&gt;" style="text;strokeColor=none;fillColor=none;align=left;verticalAlign=middle;spacingLeft=4;spacingRight=4;overflow=hidden;points=[[0,0.5],[1,0.5]];portConstraint=eastwest;rotatable=0;whiteSpace=wrap;html=1;fontSize=20;fontStyle=0;labelBackgroundColor=none;fontColor=#000000;" parent="UZzyd5HIegSU0YCeQs_y-56" vertex="1">
          <mxGeometry y="300" width="240" height="30" as="geometry" />
        </mxCell>
        <mxCell id="uGLxTM2DFbwT5KClBr5C-197" value="&lt;span style=&quot;white-space: pre;&quot;&gt;bloodPressure&lt;/span&gt;&lt;span style=&quot;text-align: center;&quot;&gt;: String&lt;/span&gt;" style="text;strokeColor=none;fillColor=none;align=left;verticalAlign=middle;spacingLeft=4;spacingRight=4;overflow=hidden;points=[[0,0.5],[1,0.5]];portConstraint=eastwest;rotatable=0;whiteSpace=wrap;html=1;fontFamily=Helvetica;labelBackgroundColor=none;fontSize=20;fontStyle=0;fontColor=#000000;" parent="UZzyd5HIegSU0YCeQs_y-56" vertex="1">
          <mxGeometry y="330" width="240" height="30" as="geometry" />
        </mxCell>
        <mxCell id="uGLxTM2DFbwT5KClBr5C-198" value="&lt;span style=&quot;white-space: pre;&quot;&gt;temperature&lt;/span&gt;&lt;span style=&quot;text-align: center;&quot;&gt;: int&lt;/span&gt;" style="text;strokeColor=none;fillColor=none;align=left;verticalAlign=middle;spacingLeft=4;spacingRight=4;overflow=hidden;points=[[0,0.5],[1,0.5]];portConstraint=eastwest;rotatable=0;whiteSpace=wrap;html=1;fontFamily=Helvetica;labelBackgroundColor=none;fontSize=20;fontStyle=0;fontColor=#000000;" parent="UZzyd5HIegSU0YCeQs_y-56" vertex="1">
          <mxGeometry y="360" width="240" height="30" as="geometry" />
        </mxCell>
        <mxCell id="uGLxTM2DFbwT5KClBr5C-199" value="&lt;span style=&quot;white-space: pre;&quot;&gt;healthRate&lt;/span&gt;&lt;span style=&quot;text-align: center;&quot;&gt;: int&lt;/span&gt;" style="text;strokeColor=none;fillColor=none;align=left;verticalAlign=middle;spacingLeft=4;spacingRight=4;overflow=hidden;points=[[0,0.5],[1,0.5]];portConstraint=eastwest;rotatable=0;whiteSpace=wrap;html=1;fontFamily=Helvetica;labelBackgroundColor=none;fontSize=20;fontStyle=0;fontColor=#000000;" parent="UZzyd5HIegSU0YCeQs_y-56" vertex="1">
          <mxGeometry y="390" width="240" height="30" as="geometry" />
        </mxCell>
        <mxCell id="uGLxTM2DFbwT5KClBr5C-200" value="&lt;div style=&quot;text-align: left;&quot;&gt;&lt;span style=&quot;text-align: center; white-space: pre;&quot;&gt;&lt;font&gt;weight:&lt;/font&gt;&lt;/span&gt;&lt;span style=&quot;text-align: center;&quot;&gt; int&lt;/span&gt;&lt;/div&gt;" style="text;strokeColor=none;fillColor=none;align=left;verticalAlign=middle;spacingLeft=4;spacingRight=4;overflow=hidden;points=[[0,0.5],[1,0.5]];portConstraint=eastwest;rotatable=0;whiteSpace=wrap;html=1;fontFamily=Helvetica;labelBackgroundColor=none;fontSize=20;fontStyle=0;fontColor=#000000;" parent="UZzyd5HIegSU0YCeQs_y-56" vertex="1">
          <mxGeometry y="420" width="240" height="30" as="geometry" />
        </mxCell>
        <mxCell id="uGLxTM2DFbwT5KClBr5C-201" value="&lt;div style=&quot;text-align: left;&quot;&gt;&lt;span style=&quot;text-align: center; white-space: pre;&quot;&gt;&lt;font&gt;height:&lt;/font&gt;&lt;/span&gt;&lt;span style=&quot;text-align: center;&quot;&gt; int&lt;/span&gt;&lt;/div&gt;" style="text;strokeColor=none;fillColor=none;align=left;verticalAlign=middle;spacingLeft=4;spacingRight=4;overflow=hidden;points=[[0,0.5],[1,0.5]];portConstraint=eastwest;rotatable=0;whiteSpace=wrap;html=1;fontFamily=Helvetica;labelBackgroundColor=none;fontSize=20;fontStyle=0;fontColor=#000000;" parent="UZzyd5HIegSU0YCeQs_y-56" vertex="1">
          <mxGeometry y="450" width="240" height="30" as="geometry" />
        </mxCell>
        <mxCell id="uGLxTM2DFbwT5KClBr5C-202" value="&lt;div style=&quot;text-align: left;&quot;&gt;&lt;span style=&quot;white-space: pre;&quot;&gt;reExaminationDate&lt;/span&gt;&lt;span style=&quot;text-align: center; white-space: pre;&quot;&gt;&lt;font&gt;:&lt;/font&gt;&lt;/span&gt;&lt;span style=&quot;text-align: center;&quot;&gt; Date&lt;/span&gt;&lt;/div&gt;" style="text;strokeColor=none;fillColor=none;align=left;verticalAlign=middle;spacingLeft=4;spacingRight=4;overflow=hidden;points=[[0,0.5],[1,0.5]];portConstraint=eastwest;rotatable=0;whiteSpace=wrap;html=1;fontFamily=Helvetica;labelBackgroundColor=none;fontSize=20;fontStyle=0;fontColor=#000000;" parent="UZzyd5HIegSU0YCeQs_y-56" vertex="1">
          <mxGeometry y="480" width="240" height="30" as="geometry" />
        </mxCell>
        <mxCell id="uGLxTM2DFbwT5KClBr5C-203" value="&lt;div style=&quot;text-align: left;&quot;&gt;&lt;span style=&quot;white-space: pre;&quot;&gt;blockChain&lt;/span&gt;&lt;span style=&quot;text-align: center; white-space: pre;&quot;&gt;&lt;font&gt;:&lt;/font&gt;&lt;/span&gt;&lt;span style=&quot;text-align: center;&quot;&gt;&amp;nbsp;BlockHash&lt;/span&gt;&lt;/div&gt;" style="text;strokeColor=none;fillColor=none;align=left;verticalAlign=middle;spacingLeft=4;spacingRight=4;overflow=hidden;points=[[0,0.5],[1,0.5]];portConstraint=eastwest;rotatable=0;whiteSpace=wrap;html=1;fontFamily=Helvetica;labelBackgroundColor=none;fontSize=20;fontStyle=0;fontColor=#000000;" parent="UZzyd5HIegSU0YCeQs_y-56" vertex="1">
          <mxGeometry y="510" width="240" height="30" as="geometry" />
        </mxCell>
        <mxCell id="UZzyd5HIegSU0YCeQs_y-73" value="PriceList" style="swimlane;fontStyle=0;childLayout=stackLayout;horizontal=1;startSize=30;horizontalStack=0;resizeParent=1;resizeParentMax=0;resizeLast=0;collapsible=1;marginBottom=0;whiteSpace=wrap;html=1;fontSize=20;labelBackgroundColor=none;fontColor=#000000;" parent="1" vertex="1">
          <mxGeometry x="70" y="190" width="140" height="120" as="geometry" />
        </mxCell>
        <mxCell id="UZzyd5HIegSU0YCeQs_y-74" value="&lt;span style=&quot;text-align: center;&quot;&gt;_id&lt;/span&gt;&lt;span style=&quot;text-align: center;&quot;&gt;: ObjectId&lt;/span&gt;" style="text;strokeColor=none;fillColor=none;align=left;verticalAlign=middle;spacingLeft=4;spacingRight=4;overflow=hidden;points=[[0,0.5],[1,0.5]];portConstraint=eastwest;rotatable=0;whiteSpace=wrap;html=1;fontSize=20;fontStyle=0;labelBackgroundColor=none;fontColor=#000000;" parent="UZzyd5HIegSU0YCeQs_y-73" vertex="1">
          <mxGeometry y="30" width="140" height="30" as="geometry" />
        </mxCell>
        <mxCell id="UZzyd5HIegSU0YCeQs_y-75" value="&lt;span style=&quot;text-align: center;&quot;&gt;type&lt;/span&gt;&lt;span style=&quot;text-align: center;&quot;&gt;: String&lt;/span&gt;" style="text;strokeColor=none;fillColor=none;align=left;verticalAlign=middle;spacingLeft=4;spacingRight=4;overflow=hidden;points=[[0,0.5],[1,0.5]];portConstraint=eastwest;rotatable=0;whiteSpace=wrap;html=1;fontSize=20;fontStyle=0;labelBackgroundColor=none;fontColor=#000000;" parent="UZzyd5HIegSU0YCeQs_y-73" vertex="1">
          <mxGeometry y="60" width="140" height="30" as="geometry" />
        </mxCell>
        <mxCell id="UZzyd5HIegSU0YCeQs_y-76" value="&lt;span style=&quot;text-align: center;&quot;&gt;price&lt;/span&gt;&lt;span style=&quot;text-align: center;&quot;&gt;: Number&lt;/span&gt;" style="text;strokeColor=none;fillColor=none;align=left;verticalAlign=middle;spacingLeft=4;spacingRight=4;overflow=hidden;points=[[0,0.5],[1,0.5]];portConstraint=eastwest;rotatable=0;whiteSpace=wrap;html=1;fontSize=20;fontStyle=0;labelBackgroundColor=none;fontColor=#000000;" parent="UZzyd5HIegSU0YCeQs_y-73" vertex="1">
          <mxGeometry y="90" width="140" height="30" as="geometry" />
        </mxCell>
        <mxCell id="uGLxTM2DFbwT5KClBr5C-193" style="edgeStyle=orthogonalEdgeStyle;rounded=0;orthogonalLoop=1;jettySize=auto;html=1;entryX=0;entryY=0.5;entryDx=0;entryDy=0;exitX=0.658;exitY=0.167;exitDx=0;exitDy=0;exitPerimeter=0;fontSize=20;fontStyle=0;labelBackgroundColor=none;fontColor=#000000;" parent="1" source="UZzyd5HIegSU0YCeQs_y-80" target="DxQ8z24LICRfDCV-2qwh-4" edge="1">
          <mxGeometry relative="1" as="geometry" />
        </mxCell>
        <mxCell id="UZzyd5HIegSU0YCeQs_y-80" value="Patient" style="swimlane;fontStyle=0;childLayout=stackLayout;horizontal=1;startSize=30;horizontalStack=0;resizeParent=1;resizeParentMax=0;resizeLast=0;collapsible=1;marginBottom=0;whiteSpace=wrap;html=1;fontSize=20;labelBackgroundColor=none;fontColor=#000000;" parent="1" vertex="1">
          <mxGeometry x="-205" y="-50" width="190" height="60" as="geometry" />
        </mxCell>
        <mxCell id="UZzyd5HIegSU0YCeQs_y-102" value="Appointment" style="swimlane;fontStyle=0;childLayout=stackLayout;horizontal=1;startSize=30;horizontalStack=0;resizeParent=1;resizeParentMax=0;resizeLast=0;collapsible=1;marginBottom=0;whiteSpace=wrap;html=1;fontSize=20;labelBackgroundColor=none;fontColor=#000000;" parent="1" vertex="1">
          <mxGeometry x="-220" y="100" width="220" height="450" as="geometry" />
        </mxCell>
        <mxCell id="UZzyd5HIegSU0YCeQs_y-103" value="&lt;span style=&quot;text-align: center;&quot;&gt;_id&lt;/span&gt;&lt;span style=&quot;text-align: center;&quot;&gt;: Long&lt;/span&gt;" style="text;strokeColor=none;fillColor=none;align=left;verticalAlign=middle;spacingLeft=4;spacingRight=4;overflow=hidden;points=[[0,0.5],[1,0.5]];portConstraint=eastwest;rotatable=0;whiteSpace=wrap;html=1;fontSize=20;fontStyle=0;labelBackgroundColor=none;fontColor=#000000;" parent="UZzyd5HIegSU0YCeQs_y-102" vertex="1">
          <mxGeometry y="30" width="220" height="30" as="geometry" />
        </mxCell>
        <mxCell id="UZzyd5HIegSU0YCeQs_y-104" value="&lt;span style=&quot;text-align: center;&quot;&gt;doctor_record_id&lt;/span&gt;&lt;span style=&quot;text-align: center;&quot;&gt;: ObjectId&lt;/span&gt;" style="text;strokeColor=none;fillColor=none;align=left;verticalAlign=middle;spacingLeft=4;spacingRight=4;overflow=hidden;points=[[0,0.5],[1,0.5]];portConstraint=eastwest;rotatable=0;whiteSpace=wrap;html=1;fontSize=20;fontStyle=0;labelBackgroundColor=none;fontColor=#000000;" parent="UZzyd5HIegSU0YCeQs_y-102" vertex="1">
          <mxGeometry y="60" width="220" height="30" as="geometry" />
        </mxCell>
        <mxCell id="UZzyd5HIegSU0YCeQs_y-105" value="&lt;div style=&quot;text-align: center;&quot;&gt;&lt;span style=&quot;background-color: initial;&quot;&gt;patient: Patient&lt;/span&gt;&lt;/div&gt;" style="text;strokeColor=none;fillColor=none;align=left;verticalAlign=middle;spacingLeft=4;spacingRight=4;overflow=hidden;points=[[0,0.5],[1,0.5]];portConstraint=eastwest;rotatable=0;whiteSpace=wrap;html=1;fontSize=20;fontStyle=0;labelBackgroundColor=none;fontColor=#000000;" parent="UZzyd5HIegSU0YCeQs_y-102" vertex="1">
          <mxGeometry y="90" width="220" height="30" as="geometry" />
        </mxCell>
        <mxCell id="UZzyd5HIegSU0YCeQs_y-107" value="&lt;span style=&quot;text-align: center;&quot;&gt;appointment_date&lt;/span&gt;&lt;span style=&quot;text-align: center;&quot;&gt;: Date&lt;/span&gt;" style="text;strokeColor=none;fillColor=none;align=left;verticalAlign=middle;spacingLeft=4;spacingRight=4;overflow=hidden;points=[[0,0.5],[1,0.5]];portConstraint=eastwest;rotatable=0;whiteSpace=wrap;html=1;fontSize=20;fontStyle=0;labelBackgroundColor=none;fontColor=#000000;" parent="UZzyd5HIegSU0YCeQs_y-102" vertex="1">
          <mxGeometry y="120" width="220" height="30" as="geometry" />
        </mxCell>
        <mxCell id="UZzyd5HIegSU0YCeQs_y-108" value="&lt;div style=&quot;text-align: center;&quot;&gt;&lt;span style=&quot;background-color: initial;&quot;&gt;status: Status&lt;/span&gt;&lt;/div&gt;" style="text;strokeColor=none;fillColor=none;align=left;verticalAlign=middle;spacingLeft=4;spacingRight=4;overflow=hidden;points=[[0,0.5],[1,0.5]];portConstraint=eastwest;rotatable=0;whiteSpace=wrap;html=1;fontSize=20;fontStyle=0;labelBackgroundColor=none;fontColor=#000000;" parent="UZzyd5HIegSU0YCeQs_y-102" vertex="1">
          <mxGeometry y="150" width="220" height="30" as="geometry" />
        </mxCell>
        <mxCell id="UZzyd5HIegSU0YCeQs_y-109" value="&lt;span style=&quot;text-align: center;&quot;&gt;note: String&lt;/span&gt;" style="text;strokeColor=none;fillColor=none;align=left;verticalAlign=middle;spacingLeft=4;spacingRight=4;overflow=hidden;points=[[0,0.5],[1,0.5]];portConstraint=eastwest;rotatable=0;whiteSpace=wrap;html=1;fontSize=20;fontStyle=0;labelBackgroundColor=none;fontColor=#000000;" parent="UZzyd5HIegSU0YCeQs_y-102" vertex="1">
          <mxGeometry y="180" width="220" height="30" as="geometry" />
        </mxCell>
        <mxCell id="DxQ8z24LICRfDCV-2qwh-47" value="&lt;div style=&quot;text-align: center;&quot;&gt;&lt;span style=&quot;background-color: initial;&quot;&gt;price_list: ObjetId&lt;/span&gt;&lt;/div&gt;" style="text;strokeColor=none;fillColor=none;align=left;verticalAlign=middle;spacingLeft=4;spacingRight=4;overflow=hidden;points=[[0,0.5],[1,0.5]];portConstraint=eastwest;rotatable=0;whiteSpace=wrap;html=1;fontSize=20;fontStyle=0;labelBackgroundColor=none;fontColor=#000000;" parent="UZzyd5HIegSU0YCeQs_y-102" vertex="1">
          <mxGeometry y="210" width="220" height="30" as="geometry" />
        </mxCell>
        <mxCell id="DxQ8z24LICRfDCV-2qwh-48" value="&lt;div style=&quot;text-align: center;&quot;&gt;&lt;span style=&quot;background-color: initial;&quot;&gt;sick: Sick&lt;/span&gt;&lt;/div&gt;" style="text;strokeColor=none;fillColor=none;align=left;verticalAlign=middle;spacingLeft=4;spacingRight=4;overflow=hidden;points=[[0,0.5],[1,0.5]];portConstraint=eastwest;rotatable=0;whiteSpace=wrap;html=1;fontSize=20;fontStyle=0;labelBackgroundColor=none;fontColor=#000000;" parent="UZzyd5HIegSU0YCeQs_y-102" vertex="1">
          <mxGeometry y="240" width="220" height="30" as="geometry" />
        </mxCell>
        <mxCell id="DxQ8z24LICRfDCV-2qwh-50" value="&lt;div style=&quot;text-align: center;&quot;&gt;&lt;span style=&quot;background-color: initial;&quot;&gt;images: String[]&lt;/span&gt;&lt;/div&gt;" style="text;strokeColor=none;fillColor=none;align=left;verticalAlign=middle;spacingLeft=4;spacingRight=4;overflow=hidden;points=[[0,0.5],[1,0.5]];portConstraint=eastwest;rotatable=0;whiteSpace=wrap;html=1;fontSize=20;fontStyle=0;labelBackgroundColor=none;fontColor=#000000;" parent="UZzyd5HIegSU0YCeQs_y-102" vertex="1">
          <mxGeometry y="270" width="220" height="30" as="geometry" />
        </mxCell>
        <mxCell id="DxQ8z24LICRfDCV-2qwh-51" value="&lt;div style=&quot;text-align: center;&quot;&gt;&lt;span style=&quot;background-color: initial;&quot;&gt;healthRate: Number&lt;/span&gt;&lt;/div&gt;" style="text;strokeColor=none;fillColor=none;align=left;verticalAlign=middle;spacingLeft=4;spacingRight=4;overflow=hidden;points=[[0,0.5],[1,0.5]];portConstraint=eastwest;rotatable=0;whiteSpace=wrap;html=1;fontSize=20;fontStyle=0;labelBackgroundColor=none;fontColor=#000000;" parent="UZzyd5HIegSU0YCeQs_y-102" vertex="1">
          <mxGeometry y="300" width="220" height="30" as="geometry" />
        </mxCell>
        <mxCell id="DxQ8z24LICRfDCV-2qwh-52" value="&lt;div style=&quot;text-align: center;&quot;&gt;&lt;span style=&quot;background-color: initial;&quot;&gt;weight: Number&lt;/span&gt;&lt;/div&gt;" style="text;strokeColor=none;fillColor=none;align=left;verticalAlign=middle;spacingLeft=4;spacingRight=4;overflow=hidden;points=[[0,0.5],[1,0.5]];portConstraint=eastwest;rotatable=0;whiteSpace=wrap;html=1;fontSize=20;fontStyle=0;labelBackgroundColor=none;fontColor=#000000;" parent="UZzyd5HIegSU0YCeQs_y-102" vertex="1">
          <mxGeometry y="330" width="220" height="30" as="geometry" />
        </mxCell>
        <mxCell id="DxQ8z24LICRfDCV-2qwh-53" value="&lt;div style=&quot;text-align: center;&quot;&gt;&lt;span style=&quot;background-color: initial;&quot;&gt;height: Number&lt;/span&gt;&lt;/div&gt;" style="text;strokeColor=none;fillColor=none;align=left;verticalAlign=middle;spacingLeft=4;spacingRight=4;overflow=hidden;points=[[0,0.5],[1,0.5]];portConstraint=eastwest;rotatable=0;whiteSpace=wrap;html=1;fontSize=20;fontStyle=0;labelBackgroundColor=none;fontColor=#000000;" parent="UZzyd5HIegSU0YCeQs_y-102" vertex="1">
          <mxGeometry y="360" width="220" height="30" as="geometry" />
        </mxCell>
        <mxCell id="DxQ8z24LICRfDCV-2qwh-54" value="&lt;div style=&quot;text-align: center;&quot;&gt;&lt;span style=&quot;background-color: initial;&quot;&gt;temperature: Number&lt;/span&gt;&lt;/div&gt;" style="text;strokeColor=none;fillColor=none;align=left;verticalAlign=middle;spacingLeft=4;spacingRight=4;overflow=hidden;points=[[0,0.5],[1,0.5]];portConstraint=eastwest;rotatable=0;whiteSpace=wrap;html=1;fontSize=20;fontStyle=0;labelBackgroundColor=none;fontColor=#000000;" parent="UZzyd5HIegSU0YCeQs_y-102" vertex="1">
          <mxGeometry y="390" width="220" height="30" as="geometry" />
        </mxCell>
        <mxCell id="DxQ8z24LICRfDCV-2qwh-55" value="&lt;div style=&quot;text-align: center;&quot;&gt;&lt;span style=&quot;background-color: initial;&quot;&gt;bloodPressure: String&lt;/span&gt;&lt;/div&gt;" style="text;strokeColor=none;fillColor=none;align=left;verticalAlign=middle;spacingLeft=4;spacingRight=4;overflow=hidden;points=[[0,0.5],[1,0.5]];portConstraint=eastwest;rotatable=0;whiteSpace=wrap;html=1;fontSize=20;fontStyle=0;labelBackgroundColor=none;fontColor=#000000;" parent="UZzyd5HIegSU0YCeQs_y-102" vertex="1">
          <mxGeometry y="420" width="220" height="30" as="geometry" />
        </mxCell>
        <mxCell id="XuVh04JDV7u7HP7zkTSy-18" value="HealthÌnformation" style="swimlane;fontStyle=0;childLayout=stackLayout;horizontal=1;startSize=30;horizontalStack=0;resizeParent=1;resizeParentMax=0;resizeLast=0;collapsible=1;marginBottom=0;whiteSpace=wrap;html=1;fontSize=20;labelBackgroundColor=none;fontColor=#000000;" parent="1" vertex="1">
          <mxGeometry x="450" y="-20" width="180" height="180" as="geometry" />
        </mxCell>
        <mxCell id="XuVh04JDV7u7HP7zkTSy-20" value="heartRate: int" style="text;strokeColor=none;fillColor=none;align=left;verticalAlign=middle;spacingLeft=4;spacingRight=4;overflow=hidden;points=[[0,0.5],[1,0.5]];portConstraint=eastwest;rotatable=0;whiteSpace=wrap;html=1;fontSize=20;fontStyle=0;labelBackgroundColor=none;fontColor=#000000;" parent="XuVh04JDV7u7HP7zkTSy-18" vertex="1">
          <mxGeometry y="30" width="180" height="30" as="geometry" />
        </mxCell>
        <mxCell id="XuVh04JDV7u7HP7zkTSy-21" value="bloodPressurse: String" style="text;strokeColor=none;fillColor=none;align=left;verticalAlign=middle;spacingLeft=4;spacingRight=4;overflow=hidden;points=[[0,0.5],[1,0.5]];portConstraint=eastwest;rotatable=0;whiteSpace=wrap;html=1;fontSize=20;fontStyle=0;labelBackgroundColor=none;fontColor=#000000;" parent="XuVh04JDV7u7HP7zkTSy-18" vertex="1">
          <mxGeometry y="60" width="180" height="30" as="geometry" />
        </mxCell>
        <mxCell id="XuVh04JDV7u7HP7zkTSy-70" value="temperature: int" style="text;strokeColor=none;fillColor=none;align=left;verticalAlign=middle;spacingLeft=4;spacingRight=4;overflow=hidden;points=[[0,0.5],[1,0.5]];portConstraint=eastwest;rotatable=0;whiteSpace=wrap;html=1;fontSize=20;fontStyle=0;labelBackgroundColor=none;fontColor=#000000;" parent="XuVh04JDV7u7HP7zkTSy-18" vertex="1">
          <mxGeometry y="90" width="180" height="30" as="geometry" />
        </mxCell>
        <mxCell id="uGLxTM2DFbwT5KClBr5C-100" value="weight: int" style="text;strokeColor=none;fillColor=none;align=left;verticalAlign=middle;spacingLeft=4;spacingRight=4;overflow=hidden;points=[[0,0.5],[1,0.5]];portConstraint=eastwest;rotatable=0;whiteSpace=wrap;html=1;fontSize=20;fontStyle=0;labelBackgroundColor=none;fontColor=#000000;" parent="XuVh04JDV7u7HP7zkTSy-18" vertex="1">
          <mxGeometry y="120" width="180" height="30" as="geometry" />
        </mxCell>
        <mxCell id="uGLxTM2DFbwT5KClBr5C-101" value="height: int" style="text;strokeColor=none;fillColor=none;align=left;verticalAlign=middle;spacingLeft=4;spacingRight=4;overflow=hidden;points=[[0,0.5],[1,0.5]];portConstraint=eastwest;rotatable=0;whiteSpace=wrap;html=1;fontSize=20;fontStyle=0;labelBackgroundColor=none;fontColor=#000000;" parent="XuVh04JDV7u7HP7zkTSy-18" vertex="1">
          <mxGeometry y="150" width="180" height="30" as="geometry" />
        </mxCell>
        <mxCell id="XuVh04JDV7u7HP7zkTSy-22" value="Users" style="swimlane;fontStyle=0;childLayout=stackLayout;horizontal=1;startSize=30;horizontalStack=0;resizeParent=1;resizeParentMax=0;resizeLast=0;collapsible=1;marginBottom=0;whiteSpace=wrap;html=1;fontSize=20;labelBackgroundColor=none;fontColor=#000000;" parent="1" vertex="1">
          <mxGeometry x="415.75" y="-950" width="190" height="420" as="geometry" />
        </mxCell>
        <mxCell id="XuVh04JDV7u7HP7zkTSy-23" value="&lt;span style=&quot;text-align: center;&quot;&gt;_id&lt;/span&gt;&lt;span style=&quot;text-align: center;&quot;&gt;: ObjectId&lt;/span&gt;" style="text;strokeColor=none;fillColor=none;align=left;verticalAlign=middle;spacingLeft=4;spacingRight=4;overflow=hidden;points=[[0,0.5],[1,0.5]];portConstraint=eastwest;rotatable=0;whiteSpace=wrap;html=1;fontSize=20;fontStyle=0;labelBackgroundColor=none;fontColor=#000000;" parent="XuVh04JDV7u7HP7zkTSy-22" vertex="1">
          <mxGeometry y="30" width="190" height="30" as="geometry" />
        </mxCell>
        <mxCell id="XuVh04JDV7u7HP7zkTSy-24" value="&lt;span style=&quot;text-align: center;&quot;&gt;fullName&lt;/span&gt;&lt;span style=&quot;text-align: center;&quot;&gt;: String&lt;/span&gt;" style="text;strokeColor=none;fillColor=none;align=left;verticalAlign=middle;spacingLeft=4;spacingRight=4;overflow=hidden;points=[[0,0.5],[1,0.5]];portConstraint=eastwest;rotatable=0;whiteSpace=wrap;html=1;fontSize=20;fontStyle=0;labelBackgroundColor=none;fontColor=#000000;" parent="XuVh04JDV7u7HP7zkTSy-22" vertex="1">
          <mxGeometry y="60" width="190" height="30" as="geometry" />
        </mxCell>
        <mxCell id="XuVh04JDV7u7HP7zkTSy-25" value="&lt;span style=&quot;text-align: center;&quot;&gt;address: String&lt;/span&gt;" style="text;strokeColor=none;fillColor=none;align=left;verticalAlign=middle;spacingLeft=4;spacingRight=4;overflow=hidden;points=[[0,0.5],[1,0.5]];portConstraint=eastwest;rotatable=0;whiteSpace=wrap;html=1;fontSize=20;fontStyle=0;labelBackgroundColor=none;fontColor=#000000;" parent="XuVh04JDV7u7HP7zkTSy-22" vertex="1">
          <mxGeometry y="90" width="190" height="30" as="geometry" />
        </mxCell>
        <mxCell id="XuVh04JDV7u7HP7zkTSy-26" value="&lt;span style=&quot;text-align: center;&quot;&gt;phone: int&lt;/span&gt;" style="text;strokeColor=none;fillColor=none;align=left;verticalAlign=middle;spacingLeft=4;spacingRight=4;overflow=hidden;points=[[0,0.5],[1,0.5]];portConstraint=eastwest;rotatable=0;whiteSpace=wrap;html=1;fontSize=20;fontStyle=0;labelBackgroundColor=none;fontColor=#000000;" parent="XuVh04JDV7u7HP7zkTSy-22" vertex="1">
          <mxGeometry y="120" width="190" height="30" as="geometry" />
        </mxCell>
        <mxCell id="XuVh04JDV7u7HP7zkTSy-27" value="&lt;span style=&quot;text-align: center;&quot;&gt;email: String&lt;/span&gt;" style="text;strokeColor=none;fillColor=none;align=left;verticalAlign=middle;spacingLeft=4;spacingRight=4;overflow=hidden;points=[[0,0.5],[1,0.5]];portConstraint=eastwest;rotatable=0;whiteSpace=wrap;html=1;fontSize=20;fontStyle=0;labelBackgroundColor=none;fontColor=#000000;" parent="XuVh04JDV7u7HP7zkTSy-22" vertex="1">
          <mxGeometry y="150" width="190" height="30" as="geometry" />
        </mxCell>
        <mxCell id="XuVh04JDV7u7HP7zkTSy-28" value="&lt;span style=&quot;text-align: center;&quot;&gt;sex: boolean&lt;/span&gt;" style="text;strokeColor=none;fillColor=none;align=left;verticalAlign=middle;spacingLeft=4;spacingRight=4;overflow=hidden;points=[[0,0.5],[1,0.5]];portConstraint=eastwest;rotatable=0;whiteSpace=wrap;html=1;fontSize=20;fontStyle=0;labelBackgroundColor=none;fontColor=#000000;" parent="XuVh04JDV7u7HP7zkTSy-22" vertex="1">
          <mxGeometry y="180" width="190" height="30" as="geometry" />
        </mxCell>
        <mxCell id="XuVh04JDV7u7HP7zkTSy-32" value="&lt;span style=&quot;text-align: center;&quot;&gt;image: string&lt;/span&gt;" style="text;strokeColor=none;fillColor=none;align=left;verticalAlign=middle;spacingLeft=4;spacingRight=4;overflow=hidden;points=[[0,0.5],[1,0.5]];portConstraint=eastwest;rotatable=0;whiteSpace=wrap;html=1;fontSize=20;fontStyle=0;labelBackgroundColor=none;fontColor=#000000;" parent="XuVh04JDV7u7HP7zkTSy-22" vertex="1">
          <mxGeometry y="210" width="190" height="30" as="geometry" />
        </mxCell>
        <mxCell id="XuVh04JDV7u7HP7zkTSy-33" value="&lt;span style=&quot;text-align: center;&quot;&gt;role: String&lt;/span&gt;" style="text;strokeColor=none;fillColor=none;align=left;verticalAlign=middle;spacingLeft=4;spacingRight=4;overflow=hidden;points=[[0,0.5],[1,0.5]];portConstraint=eastwest;rotatable=0;whiteSpace=wrap;html=1;fontSize=20;fontStyle=0;labelBackgroundColor=none;fontColor=#000000;" parent="XuVh04JDV7u7HP7zkTSy-22" vertex="1">
          <mxGeometry y="240" width="190" height="30" as="geometry" />
        </mxCell>
        <mxCell id="ejqagCk_B0uTGuNVZC27-2" value="&lt;span style=&quot;text-align: center;&quot;&gt;cccd: int&lt;/span&gt;" style="text;strokeColor=none;fillColor=none;align=left;verticalAlign=middle;spacingLeft=4;spacingRight=4;overflow=hidden;points=[[0,0.5],[1,0.5]];portConstraint=eastwest;rotatable=0;whiteSpace=wrap;html=1;fontSize=20;fontStyle=0;labelBackgroundColor=none;fontColor=#000000;" parent="XuVh04JDV7u7HP7zkTSy-22" vertex="1">
          <mxGeometry y="270" width="190" height="30" as="geometry" />
        </mxCell>
        <mxCell id="ejqagCk_B0uTGuNVZC27-3" value="&lt;span style=&quot;text-align: center;&quot;&gt;passWord: String&lt;/span&gt;" style="text;strokeColor=none;fillColor=none;align=left;verticalAlign=middle;spacingLeft=4;spacingRight=4;overflow=hidden;points=[[0,0.5],[1,0.5]];portConstraint=eastwest;rotatable=0;whiteSpace=wrap;html=1;fontSize=20;fontStyle=0;labelBackgroundColor=none;fontColor=#000000;" parent="XuVh04JDV7u7HP7zkTSy-22" vertex="1">
          <mxGeometry y="300" width="190" height="30" as="geometry" />
        </mxCell>
        <mxCell id="DxQ8z24LICRfDCV-2qwh-3" value="&lt;span style=&quot;text-align: center;&quot;&gt;dateOfBirth: String&lt;/span&gt;" style="text;strokeColor=none;fillColor=none;align=left;verticalAlign=middle;spacingLeft=4;spacingRight=4;overflow=hidden;points=[[0,0.5],[1,0.5]];portConstraint=eastwest;rotatable=0;whiteSpace=wrap;html=1;fontSize=20;fontStyle=0;labelBackgroundColor=none;fontColor=#000000;" parent="XuVh04JDV7u7HP7zkTSy-22" vertex="1">
          <mxGeometry y="330" width="190" height="30" as="geometry" />
        </mxCell>
        <mxCell id="DxQ8z24LICRfDCV-2qwh-4" value="&lt;span style=&quot;text-align: center;&quot;&gt;processSignup: Number&lt;/span&gt;" style="text;strokeColor=none;fillColor=none;align=left;verticalAlign=middle;spacingLeft=4;spacingRight=4;overflow=hidden;points=[[0,0.5],[1,0.5]];portConstraint=eastwest;rotatable=0;whiteSpace=wrap;html=1;fontSize=20;fontStyle=0;labelBackgroundColor=none;fontColor=#000000;" parent="XuVh04JDV7u7HP7zkTSy-22" vertex="1">
          <mxGeometry y="360" width="190" height="30" as="geometry" />
        </mxCell>
        <mxCell id="K-hoV5M5BKxwaFi9iEAO-27" value="&lt;span style=&quot;text-align: center;&quot;&gt;bank: Bank&lt;/span&gt;" style="text;strokeColor=none;fillColor=none;align=left;verticalAlign=middle;spacingLeft=4;spacingRight=4;overflow=hidden;points=[[0,0.5],[1,0.5]];portConstraint=eastwest;rotatable=0;whiteSpace=wrap;html=1;fontSize=20;fontStyle=0;labelBackgroundColor=none;fontColor=#000000;" parent="XuVh04JDV7u7HP7zkTSy-22" vertex="1">
          <mxGeometry y="390" width="190" height="30" as="geometry" />
        </mxCell>
        <mxCell id="uGLxTM2DFbwT5KClBr5C-191" style="edgeStyle=orthogonalEdgeStyle;rounded=0;orthogonalLoop=1;jettySize=auto;html=1;entryX=1;entryY=0.5;entryDx=0;entryDy=0;fontSize=20;fontStyle=0;labelBackgroundColor=none;fontColor=#000000;" parent="1" source="XuVh04JDV7u7HP7zkTSy-57" target="DxQ8z24LICRfDCV-2qwh-4" edge="1">
          <mxGeometry relative="1" as="geometry" />
        </mxCell>
        <mxCell id="XuVh04JDV7u7HP7zkTSy-57" value="Doctor" style="swimlane;fontStyle=0;childLayout=stackLayout;horizontal=1;startSize=30;horizontalStack=0;resizeParent=1;resizeParentMax=0;resizeLast=0;collapsible=1;marginBottom=0;whiteSpace=wrap;html=1;fontSize=20;labelBackgroundColor=none;fontColor=#000000;" parent="1" vertex="1">
          <mxGeometry x="720" y="-600" width="196.5" height="90" as="geometry" />
        </mxCell>
        <mxCell id="XuVh04JDV7u7HP7zkTSy-60" value="&lt;span style=&quot;text-align: center;&quot;&gt;specialization&lt;/span&gt;&lt;span style=&quot;text-align: center;&quot;&gt;: String&lt;/span&gt;" style="text;strokeColor=none;fillColor=none;align=left;verticalAlign=middle;spacingLeft=4;spacingRight=4;overflow=hidden;points=[[0,0.5],[1,0.5]];portConstraint=eastwest;rotatable=0;whiteSpace=wrap;html=1;fontSize=20;fontStyle=0;labelBackgroundColor=none;fontColor=#000000;" parent="XuVh04JDV7u7HP7zkTSy-57" vertex="1">
          <mxGeometry y="30" width="196.5" height="30" as="geometry" />
        </mxCell>
        <mxCell id="XuVh04JDV7u7HP7zkTSy-61" value="&lt;div style=&quot;text-align: center;&quot;&gt;pathological: String&lt;/div&gt;" style="text;strokeColor=none;fillColor=none;align=left;verticalAlign=middle;spacingLeft=4;spacingRight=4;overflow=hidden;points=[[0,0.5],[1,0.5]];portConstraint=eastwest;rotatable=0;whiteSpace=wrap;html=1;fontSize=20;fontStyle=0;labelBackgroundColor=none;fontColor=#000000;" parent="XuVh04JDV7u7HP7zkTSy-57" vertex="1">
          <mxGeometry y="60" width="196.5" height="30" as="geometry" />
        </mxCell>
        <mxCell id="XuVh04JDV7u7HP7zkTSy-101" value="Forum" style="swimlane;fontStyle=0;childLayout=stackLayout;horizontal=1;startSize=30;horizontalStack=0;resizeParent=1;resizeParentMax=0;resizeLast=0;collapsible=1;marginBottom=0;whiteSpace=wrap;html=1;fontSize=20;labelBackgroundColor=none;fontColor=#000000;" parent="1" vertex="1">
          <mxGeometry x="941.5" y="-870" width="178.5" height="270" as="geometry" />
        </mxCell>
        <mxCell id="XuVh04JDV7u7HP7zkTSy-102" value="&lt;div style=&quot;text-align: center;&quot;&gt;&lt;span style=&quot;background-color: initial;&quot;&gt;_id: ObjectId&lt;/span&gt;&lt;/div&gt;" style="text;strokeColor=none;fillColor=none;align=left;verticalAlign=middle;spacingLeft=4;spacingRight=4;overflow=hidden;points=[[0,0.5],[1,0.5]];portConstraint=eastwest;rotatable=0;whiteSpace=wrap;html=1;fontSize=20;fontStyle=0;labelBackgroundColor=none;fontColor=#000000;" parent="XuVh04JDV7u7HP7zkTSy-101" vertex="1">
          <mxGeometry y="30" width="178.5" height="30" as="geometry" />
        </mxCell>
        <mxCell id="XuVh04JDV7u7HP7zkTSy-103" value="&lt;div style=&quot;text-align: center;&quot;&gt;&lt;span style=&quot;background-color: initial;&quot;&gt;title:String&lt;/span&gt;&lt;/div&gt;" style="text;strokeColor=none;fillColor=none;align=left;verticalAlign=middle;spacingLeft=4;spacingRight=4;overflow=hidden;points=[[0,0.5],[1,0.5]];portConstraint=eastwest;rotatable=0;whiteSpace=wrap;html=1;fontSize=20;fontStyle=0;labelBackgroundColor=none;fontColor=#000000;" parent="XuVh04JDV7u7HP7zkTSy-101" vertex="1">
          <mxGeometry y="60" width="178.5" height="30" as="geometry" />
        </mxCell>
        <mxCell id="XuVh04JDV7u7HP7zkTSy-104" value="&lt;div style=&quot;text-align: center;&quot;&gt;&lt;span style=&quot;background-color: initial;&quot;&gt;content: String&lt;/span&gt;&lt;/div&gt;" style="text;strokeColor=none;fillColor=none;align=left;verticalAlign=middle;spacingLeft=4;spacingRight=4;overflow=hidden;points=[[0,0.5],[1,0.5]];portConstraint=eastwest;rotatable=0;whiteSpace=wrap;html=1;fontSize=20;fontStyle=0;labelBackgroundColor=none;fontColor=#000000;" parent="XuVh04JDV7u7HP7zkTSy-101" vertex="1">
          <mxGeometry y="90" width="178.5" height="30" as="geometry" />
        </mxCell>
        <mxCell id="XuVh04JDV7u7HP7zkTSy-105" value="&lt;span style=&quot;text-align: center;&quot;&gt;date: Date&lt;/span&gt;" style="text;strokeColor=none;fillColor=none;align=left;verticalAlign=middle;spacingLeft=4;spacingRight=4;overflow=hidden;points=[[0,0.5],[1,0.5]];portConstraint=eastwest;rotatable=0;whiteSpace=wrap;html=1;fontSize=20;fontStyle=0;labelBackgroundColor=none;fontColor=#000000;" parent="XuVh04JDV7u7HP7zkTSy-101" vertex="1">
          <mxGeometry y="120" width="178.5" height="30" as="geometry" />
        </mxCell>
        <mxCell id="uGLxTM2DFbwT5KClBr5C-215" value="&lt;font&gt;&lt;span style=&quot;white-space: pre;&quot;&gt;category&lt;/span&gt;&lt;span style=&quot;text-align: center;&quot;&gt;: String&lt;/span&gt;&lt;/font&gt;" style="text;strokeColor=none;fillColor=none;align=left;verticalAlign=middle;spacingLeft=4;spacingRight=4;overflow=hidden;points=[[0,0.5],[1,0.5]];portConstraint=eastwest;rotatable=0;whiteSpace=wrap;html=1;labelBackgroundColor=none;fontFamily=Helvetica;fontStyle=0;fontSize=20;fontColor=#000000;" parent="XuVh04JDV7u7HP7zkTSy-101" vertex="1">
          <mxGeometry y="150" width="178.5" height="30" as="geometry" />
        </mxCell>
        <mxCell id="uGLxTM2DFbwT5KClBr5C-216" value="&lt;font&gt;&lt;span style=&quot;white-space: pre;&quot;&gt;views&lt;/span&gt;&lt;span style=&quot;text-align: center;&quot;&gt;: int&lt;/span&gt;&lt;/font&gt;" style="text;strokeColor=none;fillColor=none;align=left;verticalAlign=middle;spacingLeft=4;spacingRight=4;overflow=hidden;points=[[0,0.5],[1,0.5]];portConstraint=eastwest;rotatable=0;whiteSpace=wrap;html=1;labelBackgroundColor=none;fontFamily=Helvetica;fontStyle=0;fontSize=20;fontColor=#000000;" parent="XuVh04JDV7u7HP7zkTSy-101" vertex="1">
          <mxGeometry y="180" width="178.5" height="30" as="geometry" />
        </mxCell>
        <mxCell id="uGLxTM2DFbwT5KClBr5C-217" value="&lt;font&gt;&lt;span style=&quot;white-space: pre;&quot;&gt;author&lt;/span&gt;&lt;span style=&quot;text-align: center;&quot;&gt;: Doctor&lt;/span&gt;&lt;/font&gt;" style="text;strokeColor=none;fillColor=none;align=left;verticalAlign=middle;spacingLeft=4;spacingRight=4;overflow=hidden;points=[[0,0.5],[1,0.5]];portConstraint=eastwest;rotatable=0;whiteSpace=wrap;html=1;labelBackgroundColor=none;fontFamily=Helvetica;fontStyle=0;fontSize=20;fontColor=#000000;" parent="XuVh04JDV7u7HP7zkTSy-101" vertex="1">
          <mxGeometry y="210" width="178.5" height="30" as="geometry" />
        </mxCell>
        <mxCell id="uGLxTM2DFbwT5KClBr5C-218" value="&lt;div style=&quot;text-align: left;&quot;&gt;&lt;span style=&quot;text-align: center; white-space: pre;&quot;&gt;&lt;font&gt;like&lt;/font&gt;&lt;/span&gt;&lt;span style=&quot;text-align: center;&quot;&gt;: ObjectId[]&lt;/span&gt;&lt;/div&gt;" style="text;strokeColor=none;fillColor=none;align=left;verticalAlign=middle;spacingLeft=4;spacingRight=4;overflow=hidden;points=[[0,0.5],[1,0.5]];portConstraint=eastwest;rotatable=0;whiteSpace=wrap;html=1;labelBackgroundColor=none;fontFamily=Helvetica;fontStyle=0;fontSize=20;fontColor=#000000;" parent="XuVh04JDV7u7HP7zkTSy-101" vertex="1">
          <mxGeometry y="240" width="178.5" height="30" as="geometry" />
        </mxCell>
        <mxCell id="DxQ8z24LICRfDCV-2qwh-5" value="Doctor_Record" style="swimlane;fontStyle=0;childLayout=stackLayout;horizontal=1;startSize=30;horizontalStack=0;resizeParent=1;resizeParentMax=0;resizeLast=0;collapsible=1;marginBottom=0;whiteSpace=wrap;html=1;fontSize=20;labelBackgroundColor=none;fontColor=#000000;" parent="1" vertex="1">
          <mxGeometry x="688.5" y="-410" width="258.5" height="420" as="geometry" />
        </mxCell>
        <mxCell id="DxQ8z24LICRfDCV-2qwh-6" value="&lt;span style=&quot;text-align: center;&quot;&gt;_id&lt;/span&gt;&lt;span style=&quot;text-align: center;&quot;&gt;: ObjectId&lt;/span&gt;" style="text;strokeColor=none;fillColor=none;align=left;verticalAlign=middle;spacingLeft=4;spacingRight=4;overflow=hidden;points=[[0,0.5],[1,0.5]];portConstraint=eastwest;rotatable=0;whiteSpace=wrap;html=1;fontSize=20;fontStyle=0;labelBackgroundColor=none;fontColor=#000000;" parent="DxQ8z24LICRfDCV-2qwh-5" vertex="1">
          <mxGeometry y="30" width="258.5" height="30" as="geometry" />
        </mxCell>
        <mxCell id="DxQ8z24LICRfDCV-2qwh-7" value="&lt;div style=&quot;text-align: center;&quot;&gt;doctor: Doctor&lt;/div&gt;" style="text;strokeColor=none;fillColor=none;align=left;verticalAlign=middle;spacingLeft=4;spacingRight=4;overflow=hidden;points=[[0,0.5],[1,0.5]];portConstraint=eastwest;rotatable=0;whiteSpace=wrap;html=1;fontSize=20;fontStyle=0;labelBackgroundColor=none;fontColor=#000000;" parent="DxQ8z24LICRfDCV-2qwh-5" vertex="1">
          <mxGeometry y="60" width="258.5" height="30" as="geometry" />
        </mxCell>
        <mxCell id="DxQ8z24LICRfDCV-2qwh-9" value="&lt;div&gt;&lt;span style=&quot;white-space: pre;&quot;&gt;&lt;font&gt;examination_call&lt;/font&gt;&lt;/span&gt;: Number&lt;/div&gt;" style="text;strokeColor=none;fillColor=none;align=left;verticalAlign=middle;spacingLeft=4;spacingRight=4;overflow=hidden;points=[[0,0.5],[1,0.5]];portConstraint=eastwest;rotatable=0;whiteSpace=wrap;html=1;fontFamily=Helvetica;fontSize=20;fontStyle=0;labelBackgroundColor=none;fontColor=#000000;" parent="DxQ8z24LICRfDCV-2qwh-5" vertex="1">
          <mxGeometry y="90" width="258.5" height="30" as="geometry" />
        </mxCell>
        <mxCell id="DxQ8z24LICRfDCV-2qwh-10" value="&lt;div&gt;&lt;font&gt;&lt;span style=&quot;white-space: pre;&quot;&gt;consultation&lt;/span&gt;&lt;/font&gt;: Number&lt;/div&gt;" style="text;strokeColor=none;fillColor=none;align=left;verticalAlign=middle;spacingLeft=4;spacingRight=4;overflow=hidden;points=[[0,0.5],[1,0.5]];portConstraint=eastwest;rotatable=0;whiteSpace=wrap;html=1;fontFamily=Helvetica;fontSize=20;fontStyle=0;labelBackgroundColor=none;fontColor=#000000;" parent="DxQ8z24LICRfDCV-2qwh-5" vertex="1">
          <mxGeometry y="120" width="258.5" height="30" as="geometry" />
        </mxCell>
        <mxCell id="DxQ8z24LICRfDCV-2qwh-11" value="&lt;div&gt;&lt;font&gt;&lt;span style=&quot;white-space: pre;&quot;&gt;assessment&lt;/span&gt;&lt;/font&gt;: Number&lt;/div&gt;" style="text;strokeColor=none;fillColor=none;align=left;verticalAlign=middle;spacingLeft=4;spacingRight=4;overflow=hidden;points=[[0,0.5],[1,0.5]];portConstraint=eastwest;rotatable=0;whiteSpace=wrap;html=1;fontFamily=Helvetica;fontSize=20;fontStyle=0;labelBackgroundColor=none;fontColor=#000000;" parent="DxQ8z24LICRfDCV-2qwh-5" vertex="1">
          <mxGeometry y="150" width="258.5" height="30" as="geometry" />
        </mxCell>
        <mxCell id="DxQ8z24LICRfDCV-2qwh-14" value="&lt;div&gt;&lt;font&gt;&lt;span style=&quot;white-space: pre;&quot;&gt;experience_work&lt;/span&gt;&lt;/font&gt;: Number&lt;/div&gt;" style="text;strokeColor=none;fillColor=none;align=left;verticalAlign=middle;spacingLeft=4;spacingRight=4;overflow=hidden;points=[[0,0.5],[1,0.5]];portConstraint=eastwest;rotatable=0;whiteSpace=wrap;html=1;fontFamily=Helvetica;fontSize=20;fontStyle=0;labelBackgroundColor=none;fontColor=#000000;" parent="DxQ8z24LICRfDCV-2qwh-5" vertex="1">
          <mxGeometry y="180" width="258.5" height="30" as="geometry" />
        </mxCell>
        <mxCell id="DxQ8z24LICRfDCV-2qwh-15" value="&lt;div&gt;&lt;font&gt;&lt;span style=&quot;white-space: pre;&quot;&gt;trainingPlace: String&lt;/span&gt;&lt;/font&gt;&lt;/div&gt;" style="text;strokeColor=none;fillColor=none;align=left;verticalAlign=middle;spacingLeft=4;spacingRight=4;overflow=hidden;points=[[0,0.5],[1,0.5]];portConstraint=eastwest;rotatable=0;whiteSpace=wrap;html=1;fontFamily=Helvetica;fontSize=20;fontStyle=0;labelBackgroundColor=none;fontColor=#000000;" parent="DxQ8z24LICRfDCV-2qwh-5" vertex="1">
          <mxGeometry y="210" width="258.5" height="30" as="geometry" />
        </mxCell>
        <mxCell id="DxQ8z24LICRfDCV-2qwh-16" value="&lt;div&gt;&lt;font&gt;&lt;span style=&quot;white-space: pre;&quot;&gt;certificate: String[]&lt;/span&gt;&lt;/font&gt;&lt;/div&gt;" style="text;strokeColor=none;fillColor=none;align=left;verticalAlign=middle;spacingLeft=4;spacingRight=4;overflow=hidden;points=[[0,0.5],[1,0.5]];portConstraint=eastwest;rotatable=0;whiteSpace=wrap;html=1;fontFamily=Helvetica;fontSize=20;fontStyle=0;labelBackgroundColor=none;fontColor=#000000;" parent="DxQ8z24LICRfDCV-2qwh-5" vertex="1">
          <mxGeometry y="240" width="258.5" height="30" as="geometry" />
        </mxCell>
        <mxCell id="DxQ8z24LICRfDCV-2qwh-17" value="&lt;div&gt;&lt;font&gt;&lt;span style=&quot;white-space: pre;&quot;&gt;language: &lt;/span&gt;&lt;/font&gt;&lt;span style=&quot;white-space: pre; background-color: initial;&quot;&gt;String[]&lt;/span&gt;&lt;/div&gt;" style="text;strokeColor=none;fillColor=none;align=left;verticalAlign=middle;spacingLeft=4;spacingRight=4;overflow=hidden;points=[[0,0.5],[1,0.5]];portConstraint=eastwest;rotatable=0;whiteSpace=wrap;html=1;fontFamily=Helvetica;fontSize=20;fontStyle=0;labelBackgroundColor=none;fontColor=#000000;" parent="DxQ8z24LICRfDCV-2qwh-5" vertex="1">
          <mxGeometry y="270" width="258.5" height="30" as="geometry" />
        </mxCell>
        <mxCell id="DxQ8z24LICRfDCV-2qwh-18" value="&lt;div&gt;&lt;font&gt;&lt;span style=&quot;white-space: pre;&quot;&gt;area: String&lt;/span&gt;&lt;/font&gt;&lt;/div&gt;" style="text;strokeColor=none;fillColor=none;align=left;verticalAlign=middle;spacingLeft=4;spacingRight=4;overflow=hidden;points=[[0,0.5],[1,0.5]];portConstraint=eastwest;rotatable=0;whiteSpace=wrap;html=1;fontFamily=Helvetica;fontSize=20;fontStyle=0;labelBackgroundColor=none;fontColor=#000000;" parent="DxQ8z24LICRfDCV-2qwh-5" vertex="1">
          <mxGeometry y="300" width="258.5" height="30" as="geometry" />
        </mxCell>
        <mxCell id="DxQ8z24LICRfDCV-2qwh-19" value="&lt;div&gt;&lt;font&gt;&lt;span style=&quot;white-space: pre;&quot;&gt;description: String&lt;/span&gt;&lt;/font&gt;&lt;/div&gt;" style="text;strokeColor=none;fillColor=none;align=left;verticalAlign=middle;spacingLeft=4;spacingRight=4;overflow=hidden;points=[[0,0.5],[1,0.5]];portConstraint=eastwest;rotatable=0;whiteSpace=wrap;html=1;fontFamily=Helvetica;fontSize=20;fontStyle=0;labelBackgroundColor=none;fontColor=#000000;" parent="DxQ8z24LICRfDCV-2qwh-5" vertex="1">
          <mxGeometry y="330" width="258.5" height="30" as="geometry" />
        </mxCell>
        <mxCell id="DxQ8z24LICRfDCV-2qwh-21" value="&lt;div&gt;&lt;font&gt;&lt;span style=&quot;white-space: pre;&quot;&gt;motivate: String&lt;/span&gt;&lt;/font&gt;&lt;/div&gt;" style="text;strokeColor=none;fillColor=none;align=left;verticalAlign=middle;spacingLeft=4;spacingRight=4;overflow=hidden;points=[[0,0.5],[1,0.5]];portConstraint=eastwest;rotatable=0;whiteSpace=wrap;html=1;fontFamily=Helvetica;fontSize=20;fontStyle=0;labelBackgroundColor=none;fontColor=#000000;" parent="DxQ8z24LICRfDCV-2qwh-5" vertex="1">
          <mxGeometry y="360" width="258.5" height="30" as="geometry" />
        </mxCell>
        <mxCell id="DxQ8z24LICRfDCV-2qwh-36" value="&lt;div&gt;&lt;font&gt;&lt;span style=&quot;white-space: pre;&quot;&gt;schedules: &lt;/span&gt;&lt;/font&gt;&lt;span style=&quot;white-space: pre; background-color: initial;&quot;&gt;String[]&lt;/span&gt;&lt;/div&gt;" style="text;strokeColor=none;fillColor=none;align=left;verticalAlign=middle;spacingLeft=4;spacingRight=4;overflow=hidden;points=[[0,0.5],[1,0.5]];portConstraint=eastwest;rotatable=0;whiteSpace=wrap;html=1;fontFamily=Helvetica;fontSize=20;fontStyle=0;labelBackgroundColor=none;fontColor=#000000;" parent="DxQ8z24LICRfDCV-2qwh-5" vertex="1">
          <mxGeometry y="390" width="258.5" height="30" as="geometry" />
        </mxCell>
        <mxCell id="DxQ8z24LICRfDCV-2qwh-78" value="Assessment" style="swimlane;fontStyle=0;childLayout=stackLayout;horizontal=1;startSize=30;horizontalStack=0;resizeParent=1;resizeParentMax=0;resizeLast=0;collapsible=1;marginBottom=0;whiteSpace=wrap;html=1;fontSize=20;labelBackgroundColor=none;fontColor=#000000;" parent="1" vertex="1">
          <mxGeometry x="300" y="-240" width="271.5" height="120" as="geometry" />
        </mxCell>
        <mxCell id="DxQ8z24LICRfDCV-2qwh-79" value="&lt;span style=&quot;text-align: center;&quot;&gt;_id&lt;/span&gt;&lt;span style=&quot;text-align: center;&quot;&gt;: ObjectId&lt;/span&gt;" style="text;strokeColor=none;fillColor=none;align=left;verticalAlign=middle;spacingLeft=4;spacingRight=4;overflow=hidden;points=[[0,0.5],[1,0.5]];portConstraint=eastwest;rotatable=0;whiteSpace=wrap;html=1;fontSize=20;fontStyle=0;labelBackgroundColor=none;fontColor=#000000;" parent="DxQ8z24LICRfDCV-2qwh-78" vertex="1">
          <mxGeometry y="30" width="271.5" height="30" as="geometry" />
        </mxCell>
        <mxCell id="DxQ8z24LICRfDCV-2qwh-80" value="&lt;span style=&quot;text-align: center;&quot;&gt;doctor_record_id&lt;/span&gt;&lt;span style=&quot;text-align: center;&quot;&gt;: ObjectId&lt;/span&gt;" style="text;strokeColor=none;fillColor=none;align=left;verticalAlign=middle;spacingLeft=4;spacingRight=4;overflow=hidden;points=[[0,0.5],[1,0.5]];portConstraint=eastwest;rotatable=0;whiteSpace=wrap;html=1;fontSize=20;fontStyle=0;labelBackgroundColor=none;fontColor=#000000;" parent="DxQ8z24LICRfDCV-2qwh-78" vertex="1">
          <mxGeometry y="60" width="271.5" height="30" as="geometry" />
        </mxCell>
        <mxCell id="DxQ8z24LICRfDCV-2qwh-81" value="&lt;span style=&quot;text-align: center;&quot;&gt;assessment_list&lt;/span&gt;&lt;span style=&quot;text-align: center;&quot;&gt;: Assessment_List&lt;/span&gt;" style="text;strokeColor=none;fillColor=none;align=left;verticalAlign=middle;spacingLeft=4;spacingRight=4;overflow=hidden;points=[[0,0.5],[1,0.5]];portConstraint=eastwest;rotatable=0;whiteSpace=wrap;html=1;fontSize=20;fontStyle=0;labelBackgroundColor=none;fontColor=#000000;" parent="DxQ8z24LICRfDCV-2qwh-78" vertex="1">
          <mxGeometry y="90" width="271.5" height="30" as="geometry" />
        </mxCell>
        <mxCell id="uGLxTM2DFbwT5KClBr5C-12" value="AppointmentHome" style="swimlane;fontStyle=0;childLayout=stackLayout;horizontal=1;startSize=30;horizontalStack=0;resizeParent=1;resizeParentMax=0;resizeLast=0;collapsible=1;marginBottom=0;whiteSpace=wrap;html=1;fontSize=20;labelBackgroundColor=none;fontColor=#000000;" parent="1" vertex="1">
          <mxGeometry x="270" y="190" width="230" height="390" as="geometry" />
        </mxCell>
        <mxCell id="uGLxTM2DFbwT5KClBr5C-13" value="&lt;span style=&quot;text-align: center;&quot;&gt;_id&lt;/span&gt;&lt;span style=&quot;text-align: center;&quot;&gt;: ObjectId&lt;/span&gt;" style="text;strokeColor=none;fillColor=none;align=left;verticalAlign=middle;spacingLeft=4;spacingRight=4;overflow=hidden;points=[[0,0.5],[1,0.5]];portConstraint=eastwest;rotatable=0;whiteSpace=wrap;html=1;fontSize=20;fontStyle=0;labelBackgroundColor=none;fontColor=#000000;" parent="uGLxTM2DFbwT5KClBr5C-12" vertex="1">
          <mxGeometry y="30" width="230" height="30" as="geometry" />
        </mxCell>
        <mxCell id="uGLxTM2DFbwT5KClBr5C-14" value="&lt;span style=&quot;text-align: center;&quot;&gt;doctor_record_id&lt;/span&gt;&lt;span style=&quot;text-align: center;&quot;&gt;: ObjectId&lt;/span&gt;" style="text;strokeColor=none;fillColor=none;align=left;verticalAlign=middle;spacingLeft=4;spacingRight=4;overflow=hidden;points=[[0,0.5],[1,0.5]];portConstraint=eastwest;rotatable=0;whiteSpace=wrap;html=1;fontSize=20;fontStyle=0;labelBackgroundColor=none;fontColor=#000000;" parent="uGLxTM2DFbwT5KClBr5C-12" vertex="1">
          <mxGeometry y="60" width="230" height="30" as="geometry" />
        </mxCell>
        <mxCell id="uGLxTM2DFbwT5KClBr5C-15" value="&lt;div style=&quot;text-align: center;&quot;&gt;&lt;span style=&quot;background-color: initial;&quot;&gt;patient: Patient&lt;/span&gt;&lt;/div&gt;" style="text;strokeColor=none;fillColor=none;align=left;verticalAlign=middle;spacingLeft=4;spacingRight=4;overflow=hidden;points=[[0,0.5],[1,0.5]];portConstraint=eastwest;rotatable=0;whiteSpace=wrap;html=1;fontSize=20;fontStyle=0;labelBackgroundColor=none;fontColor=#000000;" parent="uGLxTM2DFbwT5KClBr5C-12" vertex="1">
          <mxGeometry y="90" width="230" height="30" as="geometry" />
        </mxCell>
        <mxCell id="uGLxTM2DFbwT5KClBr5C-16" value="&lt;span style=&quot;text-align: center;&quot;&gt;appointment_date&lt;/span&gt;&lt;span style=&quot;text-align: center;&quot;&gt;: Date&lt;/span&gt;" style="text;strokeColor=none;fillColor=none;align=left;verticalAlign=middle;spacingLeft=4;spacingRight=4;overflow=hidden;points=[[0,0.5],[1,0.5]];portConstraint=eastwest;rotatable=0;whiteSpace=wrap;html=1;fontSize=20;fontStyle=0;labelBackgroundColor=none;fontColor=#000000;" parent="uGLxTM2DFbwT5KClBr5C-12" vertex="1">
          <mxGeometry y="120" width="230" height="30" as="geometry" />
        </mxCell>
        <mxCell id="uGLxTM2DFbwT5KClBr5C-17" value="&lt;div style=&quot;text-align: center;&quot;&gt;&lt;span style=&quot;background-color: initial;&quot;&gt;status: Status&lt;/span&gt;&lt;/div&gt;" style="text;strokeColor=none;fillColor=none;align=left;verticalAlign=middle;spacingLeft=4;spacingRight=4;overflow=hidden;points=[[0,0.5],[1,0.5]];portConstraint=eastwest;rotatable=0;whiteSpace=wrap;html=1;fontSize=20;fontStyle=0;labelBackgroundColor=none;fontColor=#000000;" parent="uGLxTM2DFbwT5KClBr5C-12" vertex="1">
          <mxGeometry y="150" width="230" height="30" as="geometry" />
        </mxCell>
        <mxCell id="uGLxTM2DFbwT5KClBr5C-18" value="&lt;span style=&quot;text-align: center;&quot;&gt;note: String&lt;/span&gt;" style="text;strokeColor=none;fillColor=none;align=left;verticalAlign=middle;spacingLeft=4;spacingRight=4;overflow=hidden;points=[[0,0.5],[1,0.5]];portConstraint=eastwest;rotatable=0;whiteSpace=wrap;html=1;fontSize=20;fontStyle=0;labelBackgroundColor=none;fontColor=#000000;" parent="uGLxTM2DFbwT5KClBr5C-12" vertex="1">
          <mxGeometry y="180" width="230" height="30" as="geometry" />
        </mxCell>
        <mxCell id="uGLxTM2DFbwT5KClBr5C-20" value="&lt;div style=&quot;text-align: center;&quot;&gt;&lt;span style=&quot;background-color: initial;&quot;&gt;price_list: ObjectId&lt;/span&gt;&lt;/div&gt;" style="text;strokeColor=none;fillColor=none;align=left;verticalAlign=middle;spacingLeft=4;spacingRight=4;overflow=hidden;points=[[0,0.5],[1,0.5]];portConstraint=eastwest;rotatable=0;whiteSpace=wrap;html=1;fontSize=20;fontStyle=0;labelBackgroundColor=none;fontColor=#000000;" parent="uGLxTM2DFbwT5KClBr5C-12" vertex="1">
          <mxGeometry y="210" width="230" height="30" as="geometry" />
        </mxCell>
        <mxCell id="uGLxTM2DFbwT5KClBr5C-21" value="&lt;div style=&quot;text-align: center;&quot;&gt;&lt;span style=&quot;background-color: initial;&quot;&gt;sick: Sick&lt;/span&gt;&lt;/div&gt;" style="text;strokeColor=none;fillColor=none;align=left;verticalAlign=middle;spacingLeft=4;spacingRight=4;overflow=hidden;points=[[0,0.5],[1,0.5]];portConstraint=eastwest;rotatable=0;whiteSpace=wrap;html=1;fontSize=20;fontStyle=0;labelBackgroundColor=none;fontColor=#000000;" parent="uGLxTM2DFbwT5KClBr5C-12" vertex="1">
          <mxGeometry y="240" width="230" height="30" as="geometry" />
        </mxCell>
        <mxCell id="uGLxTM2DFbwT5KClBr5C-22" value="&lt;div style=&quot;text-align: center;&quot;&gt;&lt;span style=&quot;background-color: initial;&quot;&gt;notificationSent: boolean&lt;/span&gt;&lt;/div&gt;" style="text;strokeColor=none;fillColor=none;align=left;verticalAlign=middle;spacingLeft=4;spacingRight=4;overflow=hidden;points=[[0,0.5],[1,0.5]];portConstraint=eastwest;rotatable=0;whiteSpace=wrap;html=1;fontSize=20;fontStyle=0;labelBackgroundColor=none;fontColor=#000000;" parent="uGLxTM2DFbwT5KClBr5C-12" vertex="1">
          <mxGeometry y="270" width="230" height="30" as="geometry" />
        </mxCell>
        <mxCell id="uGLxTM2DFbwT5KClBr5C-24" value="&lt;div style=&quot;text-align: center;&quot;&gt;&lt;span style=&quot;background-color: initial;&quot;&gt;equipment: Equipment&lt;/span&gt;&lt;/div&gt;" style="text;strokeColor=none;fillColor=none;align=left;verticalAlign=middle;spacingLeft=4;spacingRight=4;overflow=hidden;points=[[0,0.5],[1,0.5]];portConstraint=eastwest;rotatable=0;whiteSpace=wrap;html=1;fontSize=20;fontStyle=0;labelBackgroundColor=none;fontColor=#000000;" parent="uGLxTM2DFbwT5KClBr5C-12" vertex="1">
          <mxGeometry y="300" width="230" height="30" as="geometry" />
        </mxCell>
        <mxCell id="uGLxTM2DFbwT5KClBr5C-50" value="&lt;div style=&quot;text-align: center;&quot;&gt;&lt;span style=&quot;background-color: initial;&quot;&gt;processAppointment: int&lt;/span&gt;&lt;/div&gt;" style="text;strokeColor=none;fillColor=none;align=left;verticalAlign=middle;spacingLeft=4;spacingRight=4;overflow=hidden;points=[[0,0.5],[1,0.5]];portConstraint=eastwest;rotatable=0;whiteSpace=wrap;html=1;fontSize=20;fontStyle=0;labelBackgroundColor=none;fontColor=#000000;" parent="uGLxTM2DFbwT5KClBr5C-12" vertex="1">
          <mxGeometry y="330" width="230" height="30" as="geometry" />
        </mxCell>
        <mxCell id="uGLxTM2DFbwT5KClBr5C-61" value="&lt;div style=&quot;text-align: center;&quot;&gt;&lt;span style=&quot;background-color: initial;&quot;&gt;timeLimit: Date&lt;/span&gt;&lt;/div&gt;" style="text;strokeColor=none;fillColor=none;align=left;verticalAlign=middle;spacingLeft=4;spacingRight=4;overflow=hidden;points=[[0,0.5],[1,0.5]];portConstraint=eastwest;rotatable=0;whiteSpace=wrap;html=1;fontSize=20;fontStyle=0;labelBackgroundColor=none;fontColor=#000000;" parent="uGLxTM2DFbwT5KClBr5C-12" vertex="1">
          <mxGeometry y="360" width="230" height="30" as="geometry" />
        </mxCell>
        <mxCell id="uGLxTM2DFbwT5KClBr5C-46" value="Status" style="swimlane;fontStyle=0;childLayout=stackLayout;horizontal=1;startSize=30;horizontalStack=0;resizeParent=1;resizeParentMax=0;resizeLast=0;collapsible=1;marginBottom=0;whiteSpace=wrap;html=1;fontSize=20;labelBackgroundColor=none;fontColor=#000000;" parent="1" vertex="1">
          <mxGeometry x="1300" y="-950" width="201.5" height="90" as="geometry" />
        </mxCell>
        <mxCell id="uGLxTM2DFbwT5KClBr5C-48" value="&lt;span style=&quot;text-align: center;&quot;&gt;status_type&lt;/span&gt;&lt;span style=&quot;text-align: center;&quot;&gt;: String&lt;/span&gt;" style="text;strokeColor=none;fillColor=none;align=left;verticalAlign=middle;spacingLeft=4;spacingRight=4;overflow=hidden;points=[[0,0.5],[1,0.5]];portConstraint=eastwest;rotatable=0;whiteSpace=wrap;html=1;fontSize=20;fontStyle=0;labelBackgroundColor=none;fontColor=#000000;" parent="uGLxTM2DFbwT5KClBr5C-46" vertex="1">
          <mxGeometry y="30" width="201.5" height="30" as="geometry" />
        </mxCell>
        <mxCell id="uGLxTM2DFbwT5KClBr5C-49" value="&lt;div style=&quot;text-align: center;&quot;&gt;&lt;span style=&quot;background-color: initial;&quot;&gt;message: String&lt;/span&gt;&lt;/div&gt;" style="text;strokeColor=none;fillColor=none;align=left;verticalAlign=middle;spacingLeft=4;spacingRight=4;overflow=hidden;points=[[0,0.5],[1,0.5]];portConstraint=eastwest;rotatable=0;whiteSpace=wrap;html=1;fontSize=20;fontStyle=0;labelBackgroundColor=none;fontColor=#000000;" parent="uGLxTM2DFbwT5KClBr5C-46" vertex="1">
          <mxGeometry y="60" width="201.5" height="30" as="geometry" />
        </mxCell>
        <mxCell id="uGLxTM2DFbwT5KClBr5C-174" style="edgeStyle=orthogonalEdgeStyle;rounded=0;orthogonalLoop=1;jettySize=auto;html=1;entryX=1;entryY=0.5;entryDx=0;entryDy=0;fontSize=20;fontStyle=0;labelBackgroundColor=none;fontColor=#000000;" parent="1" source="uGLxTM2DFbwT5KClBr5C-51" target="uGLxTM2DFbwT5KClBr5C-21" edge="1">
          <mxGeometry relative="1" as="geometry" />
        </mxCell>
        <mxCell id="uGLxTM2DFbwT5KClBr5C-51" value="Equipment" style="swimlane;fontStyle=0;childLayout=stackLayout;horizontal=1;startSize=30;horizontalStack=0;resizeParent=1;resizeParentMax=0;resizeLast=0;collapsible=1;marginBottom=0;whiteSpace=wrap;html=1;fontSize=20;labelBackgroundColor=none;fontColor=#000000;" parent="1" vertex="1">
          <mxGeometry x="520" y="370" width="320" height="150" as="geometry" />
        </mxCell>
        <mxCell id="uGLxTM2DFbwT5KClBr5C-52" value="&lt;div style=&quot;text-align: center;&quot;&gt;thermometer: Boolean&lt;/div&gt;" style="text;strokeColor=none;fillColor=none;align=left;verticalAlign=middle;spacingLeft=4;spacingRight=4;overflow=hidden;points=[[0,0.5],[1,0.5]];portConstraint=eastwest;rotatable=0;whiteSpace=wrap;html=1;fontSize=20;fontStyle=0;labelBackgroundColor=none;fontColor=#000000;" parent="uGLxTM2DFbwT5KClBr5C-51" vertex="1">
          <mxGeometry y="30" width="320" height="30" as="geometry" />
        </mxCell>
        <mxCell id="uGLxTM2DFbwT5KClBr5C-53" value="&lt;div style=&quot;text-align: center;&quot;&gt;&lt;span style=&quot;background-color: initial;&quot;&gt;bloodPressurseMonitor: Boolean&lt;/span&gt;&lt;/div&gt;" style="text;strokeColor=none;fillColor=none;align=left;verticalAlign=middle;spacingLeft=4;spacingRight=4;overflow=hidden;points=[[0,0.5],[1,0.5]];portConstraint=eastwest;rotatable=0;whiteSpace=wrap;html=1;fontSize=20;fontStyle=0;labelBackgroundColor=none;fontColor=#000000;" parent="uGLxTM2DFbwT5KClBr5C-51" vertex="1">
          <mxGeometry y="60" width="320" height="30" as="geometry" />
        </mxCell>
        <mxCell id="uGLxTM2DFbwT5KClBr5C-54" value="&lt;div style=&quot;text-align: center;&quot;&gt;&lt;span style=&quot;background-color: initial;&quot;&gt;heartRateMonitor: Boolean&lt;/span&gt;&lt;/div&gt;" style="text;strokeColor=none;fillColor=none;align=left;verticalAlign=middle;spacingLeft=4;spacingRight=4;overflow=hidden;points=[[0,0.5],[1,0.5]];portConstraint=eastwest;rotatable=0;whiteSpace=wrap;html=1;fontSize=20;fontStyle=0;labelBackgroundColor=none;fontColor=#000000;" parent="uGLxTM2DFbwT5KClBr5C-51" vertex="1">
          <mxGeometry y="90" width="320" height="30" as="geometry" />
        </mxCell>
        <mxCell id="uGLxTM2DFbwT5KClBr5C-55" value="&lt;div style=&quot;text-align: center;&quot;&gt;&lt;span style=&quot;background-color: initial;&quot;&gt;bloodGlucoseMonitor: Boolean&lt;/span&gt;&lt;/div&gt;" style="text;strokeColor=none;fillColor=none;align=left;verticalAlign=middle;spacingLeft=4;spacingRight=4;overflow=hidden;points=[[0,0.5],[1,0.5]];portConstraint=eastwest;rotatable=0;whiteSpace=wrap;html=1;fontSize=20;fontStyle=0;labelBackgroundColor=none;fontColor=#000000;" parent="uGLxTM2DFbwT5KClBr5C-51" vertex="1">
          <mxGeometry y="120" width="320" height="30" as="geometry" />
        </mxCell>
        <mxCell id="uGLxTM2DFbwT5KClBr5C-56" value="Date" style="swimlane;fontStyle=0;childLayout=stackLayout;horizontal=1;startSize=30;horizontalStack=0;resizeParent=1;resizeParentMax=0;resizeLast=0;collapsible=1;marginBottom=0;whiteSpace=wrap;html=1;fontSize=20;labelBackgroundColor=none;fontColor=#000000;" parent="1" vertex="1">
          <mxGeometry x="1300" y="-1130" width="201.5" height="150" as="geometry" />
        </mxCell>
        <mxCell id="uGLxTM2DFbwT5KClBr5C-57" value="&lt;span style=&quot;text-align: center;&quot;&gt;day: int&lt;/span&gt;" style="text;strokeColor=none;fillColor=none;align=left;verticalAlign=middle;spacingLeft=4;spacingRight=4;overflow=hidden;points=[[0,0.5],[1,0.5]];portConstraint=eastwest;rotatable=0;whiteSpace=wrap;html=1;fontSize=20;fontStyle=0;labelBackgroundColor=none;fontColor=#000000;" parent="uGLxTM2DFbwT5KClBr5C-56" vertex="1">
          <mxGeometry y="30" width="201.5" height="30" as="geometry" />
        </mxCell>
        <mxCell id="uGLxTM2DFbwT5KClBr5C-58" value="&lt;div style=&quot;text-align: center;&quot;&gt;&lt;span style=&quot;background-color: initial;&quot;&gt;month: int&lt;/span&gt;&lt;/div&gt;" style="text;strokeColor=none;fillColor=none;align=left;verticalAlign=middle;spacingLeft=4;spacingRight=4;overflow=hidden;points=[[0,0.5],[1,0.5]];portConstraint=eastwest;rotatable=0;whiteSpace=wrap;html=1;fontSize=20;fontStyle=0;labelBackgroundColor=none;fontColor=#000000;" parent="uGLxTM2DFbwT5KClBr5C-56" vertex="1">
          <mxGeometry y="60" width="201.5" height="30" as="geometry" />
        </mxCell>
        <mxCell id="uGLxTM2DFbwT5KClBr5C-59" value="&lt;div style=&quot;text-align: center;&quot;&gt;&lt;span style=&quot;background-color: initial;&quot;&gt;year: int&lt;/span&gt;&lt;/div&gt;" style="text;strokeColor=none;fillColor=none;align=left;verticalAlign=middle;spacingLeft=4;spacingRight=4;overflow=hidden;points=[[0,0.5],[1,0.5]];portConstraint=eastwest;rotatable=0;whiteSpace=wrap;html=1;fontSize=20;fontStyle=0;labelBackgroundColor=none;fontColor=#000000;" parent="uGLxTM2DFbwT5KClBr5C-56" vertex="1">
          <mxGeometry y="90" width="201.5" height="30" as="geometry" />
        </mxCell>
        <mxCell id="uGLxTM2DFbwT5KClBr5C-60" value="&lt;div style=&quot;text-align: center;&quot;&gt;&lt;span style=&quot;background-color: initial;&quot;&gt;time: String&lt;/span&gt;&lt;/div&gt;" style="text;strokeColor=none;fillColor=none;align=left;verticalAlign=middle;spacingLeft=4;spacingRight=4;overflow=hidden;points=[[0,0.5],[1,0.5]];portConstraint=eastwest;rotatable=0;whiteSpace=wrap;html=1;fontSize=20;fontStyle=0;labelBackgroundColor=none;fontColor=#000000;" parent="uGLxTM2DFbwT5KClBr5C-56" vertex="1">
          <mxGeometry y="120" width="201.5" height="30" as="geometry" />
        </mxCell>
        <mxCell id="uGLxTM2DFbwT5KClBr5C-82" value="HealthLogBook" style="swimlane;fontStyle=0;childLayout=stackLayout;horizontal=1;startSize=30;horizontalStack=0;resizeParent=1;resizeParentMax=0;resizeLast=0;collapsible=1;marginBottom=0;whiteSpace=wrap;html=1;fontSize=20;labelBackgroundColor=none;fontColor=#000000;" parent="1" vertex="1">
          <mxGeometry x="890" y="190" width="280" height="360" as="geometry" />
        </mxCell>
        <mxCell id="uGLxTM2DFbwT5KClBr5C-83" value="&lt;span style=&quot;text-align: center;&quot;&gt;_id&lt;/span&gt;&lt;span style=&quot;text-align: center;&quot;&gt;: ObjectId&lt;/span&gt;" style="text;strokeColor=none;fillColor=none;align=left;verticalAlign=middle;spacingLeft=4;spacingRight=4;overflow=hidden;points=[[0,0.5],[1,0.5]];portConstraint=eastwest;rotatable=0;whiteSpace=wrap;html=1;fontSize=20;fontStyle=0;labelBackgroundColor=none;fontColor=#000000;" parent="uGLxTM2DFbwT5KClBr5C-82" vertex="1">
          <mxGeometry y="30" width="280" height="30" as="geometry" />
        </mxCell>
        <mxCell id="uGLxTM2DFbwT5KClBr5C-84" value="&lt;span style=&quot;text-align: center;&quot;&gt;doctor: Doctor&lt;/span&gt;" style="text;strokeColor=none;fillColor=none;align=left;verticalAlign=middle;spacingLeft=4;spacingRight=4;overflow=hidden;points=[[0,0.5],[1,0.5]];portConstraint=eastwest;rotatable=0;whiteSpace=wrap;html=1;fontSize=20;fontStyle=0;labelBackgroundColor=none;fontColor=#000000;" parent="uGLxTM2DFbwT5KClBr5C-82" vertex="1">
          <mxGeometry y="60" width="280" height="30" as="geometry" />
        </mxCell>
        <mxCell id="uGLxTM2DFbwT5KClBr5C-85" value="&lt;div style=&quot;text-align: center;&quot;&gt;&lt;span style=&quot;background-color: initial;&quot;&gt;patient: Patient&lt;/span&gt;&lt;/div&gt;" style="text;strokeColor=none;fillColor=none;align=left;verticalAlign=middle;spacingLeft=4;spacingRight=4;overflow=hidden;points=[[0,0.5],[1,0.5]];portConstraint=eastwest;rotatable=0;whiteSpace=wrap;html=1;fontSize=20;fontStyle=0;labelBackgroundColor=none;fontColor=#000000;" parent="uGLxTM2DFbwT5KClBr5C-82" vertex="1">
          <mxGeometry y="90" width="280" height="30" as="geometry" />
        </mxCell>
        <mxCell id="uGLxTM2DFbwT5KClBr5C-86" value="&lt;span style=&quot;text-align: center;&quot;&gt;date&lt;/span&gt;&lt;span style=&quot;text-align: center;&quot;&gt;: Date&lt;/span&gt;" style="text;strokeColor=none;fillColor=none;align=left;verticalAlign=middle;spacingLeft=4;spacingRight=4;overflow=hidden;points=[[0,0.5],[1,0.5]];portConstraint=eastwest;rotatable=0;whiteSpace=wrap;html=1;fontSize=20;fontStyle=0;labelBackgroundColor=none;fontColor=#000000;" parent="uGLxTM2DFbwT5KClBr5C-82" vertex="1">
          <mxGeometry y="120" width="280" height="30" as="geometry" />
        </mxCell>
        <mxCell id="uGLxTM2DFbwT5KClBr5C-87" value="&lt;div style=&quot;text-align: center;&quot;&gt;&lt;span style=&quot;background-color: initial;&quot;&gt;status: Status&lt;/span&gt;&lt;/div&gt;" style="text;strokeColor=none;fillColor=none;align=left;verticalAlign=middle;spacingLeft=4;spacingRight=4;overflow=hidden;points=[[0,0.5],[1,0.5]];portConstraint=eastwest;rotatable=0;whiteSpace=wrap;html=1;fontSize=20;fontStyle=0;labelBackgroundColor=none;fontColor=#000000;" parent="uGLxTM2DFbwT5KClBr5C-82" vertex="1">
          <mxGeometry y="150" width="280" height="30" as="geometry" />
        </mxCell>
        <mxCell id="uGLxTM2DFbwT5KClBr5C-89" value="&lt;div style=&quot;text-align: center;&quot;&gt;&lt;span style=&quot;background-color: initial;&quot;&gt;price_list: Price&lt;/span&gt;&lt;/div&gt;" style="text;strokeColor=none;fillColor=none;align=left;verticalAlign=middle;spacingLeft=4;spacingRight=4;overflow=hidden;points=[[0,0.5],[1,0.5]];portConstraint=eastwest;rotatable=0;whiteSpace=wrap;html=1;fontSize=20;fontStyle=0;labelBackgroundColor=none;fontColor=#000000;" parent="uGLxTM2DFbwT5KClBr5C-82" vertex="1">
          <mxGeometry y="180" width="280" height="30" as="geometry" />
        </mxCell>
        <mxCell id="uGLxTM2DFbwT5KClBr5C-112" value="&lt;div style=&quot;text-align: center;&quot;&gt;&lt;span style=&quot;background-color: initial;&quot;&gt;status_heartRate: Status&lt;/span&gt;&lt;/div&gt;" style="text;strokeColor=none;fillColor=none;align=left;verticalAlign=middle;spacingLeft=4;spacingRight=4;overflow=hidden;points=[[0,0.5],[1,0.5]];portConstraint=eastwest;rotatable=0;whiteSpace=wrap;html=1;fontSize=20;fontStyle=0;labelBackgroundColor=none;fontColor=#000000;" parent="uGLxTM2DFbwT5KClBr5C-82" vertex="1">
          <mxGeometry y="210" width="280" height="30" as="geometry" />
        </mxCell>
        <mxCell id="uGLxTM2DFbwT5KClBr5C-113" value="&lt;div style=&quot;text-align: center;&quot;&gt;&lt;span style=&quot;background-color: initial;&quot;&gt;status_bmi: StatusHeart&lt;/span&gt;&lt;/div&gt;" style="text;strokeColor=none;fillColor=none;align=left;verticalAlign=middle;spacingLeft=4;spacingRight=4;overflow=hidden;points=[[0,0.5],[1,0.5]];portConstraint=eastwest;rotatable=0;whiteSpace=wrap;html=1;fontSize=20;fontStyle=0;labelBackgroundColor=none;fontColor=#000000;" parent="uGLxTM2DFbwT5KClBr5C-82" vertex="1">
          <mxGeometry y="240" width="280" height="30" as="geometry" />
        </mxCell>
        <mxCell id="uGLxTM2DFbwT5KClBr5C-114" value="&lt;div style=&quot;text-align: center;&quot;&gt;&lt;span style=&quot;background-color: initial;&quot;&gt;status_bloodPressure: Status&lt;/span&gt;&lt;/div&gt;" style="text;strokeColor=none;fillColor=none;align=left;verticalAlign=middle;spacingLeft=4;spacingRight=4;overflow=hidden;points=[[0,0.5],[1,0.5]];portConstraint=eastwest;rotatable=0;whiteSpace=wrap;html=1;fontSize=20;fontStyle=0;labelBackgroundColor=none;fontColor=#000000;" parent="uGLxTM2DFbwT5KClBr5C-82" vertex="1">
          <mxGeometry y="270" width="280" height="30" as="geometry" />
        </mxCell>
        <mxCell id="uGLxTM2DFbwT5KClBr5C-115" value="&lt;div style=&quot;text-align: center;&quot;&gt;&lt;span style=&quot;background-color: initial;&quot;&gt;status_temperature: Status&lt;/span&gt;&lt;/div&gt;" style="text;strokeColor=none;fillColor=none;align=left;verticalAlign=middle;spacingLeft=4;spacingRight=4;overflow=hidden;points=[[0,0.5],[1,0.5]];portConstraint=eastwest;rotatable=0;whiteSpace=wrap;html=1;fontSize=20;fontStyle=0;labelBackgroundColor=none;fontColor=#000000;" parent="uGLxTM2DFbwT5KClBr5C-82" vertex="1">
          <mxGeometry y="300" width="280" height="30" as="geometry" />
        </mxCell>
        <mxCell id="uGLxTM2DFbwT5KClBr5C-118" value="&lt;div style=&quot;text-align: center;&quot;&gt;&lt;span style=&quot;background-color: initial;&quot;&gt;disMon: Dismon[]&amp;nbsp;&lt;/span&gt;&lt;/div&gt;" style="text;strokeColor=none;fillColor=none;align=left;verticalAlign=middle;spacingLeft=4;spacingRight=4;overflow=hidden;points=[[0,0.5],[1,0.5]];portConstraint=eastwest;rotatable=0;whiteSpace=wrap;html=1;fontSize=20;fontStyle=0;labelBackgroundColor=none;fontColor=#000000;" parent="uGLxTM2DFbwT5KClBr5C-82" vertex="1">
          <mxGeometry y="330" width="280" height="30" as="geometry" />
        </mxCell>
        <mxCell id="uGLxTM2DFbwT5KClBr5C-185" style="edgeStyle=orthogonalEdgeStyle;rounded=0;orthogonalLoop=1;jettySize=auto;html=1;entryX=1;entryY=0.5;entryDx=0;entryDy=0;fontSize=20;fontStyle=0;labelBackgroundColor=none;fontColor=#000000;" parent="1" source="uGLxTM2DFbwT5KClBr5C-95" target="XuVh04JDV7u7HP7zkTSy-70" edge="1">
          <mxGeometry relative="1" as="geometry" />
        </mxCell>
        <mxCell id="uGLxTM2DFbwT5KClBr5C-95" value="Dismon" style="swimlane;fontStyle=0;childLayout=stackLayout;horizontal=1;startSize=30;horizontalStack=0;resizeParent=1;resizeParentMax=0;resizeLast=0;collapsible=1;marginBottom=0;whiteSpace=wrap;html=1;fontSize=20;labelBackgroundColor=none;fontColor=#000000;" parent="1" vertex="1">
          <mxGeometry x="558.5" y="178" width="261.5" height="150" as="geometry" />
        </mxCell>
        <mxCell id="uGLxTM2DFbwT5KClBr5C-97" value="symtom: String" style="text;strokeColor=none;fillColor=none;align=left;verticalAlign=middle;spacingLeft=4;spacingRight=4;overflow=hidden;points=[[0,0.5],[1,0.5]];portConstraint=eastwest;rotatable=0;whiteSpace=wrap;html=1;fontSize=20;fontStyle=0;labelBackgroundColor=none;fontColor=#000000;" parent="uGLxTM2DFbwT5KClBr5C-95" vertex="1">
          <mxGeometry y="30" width="261.5" height="30" as="geometry" />
        </mxCell>
        <mxCell id="uGLxTM2DFbwT5KClBr5C-98" value="vitalSign:&amp;nbsp;&lt;span style=&quot;text-align: center;&quot;&gt;HealthInformation&lt;/span&gt;" style="text;strokeColor=none;fillColor=none;align=left;verticalAlign=middle;spacingLeft=4;spacingRight=4;overflow=hidden;points=[[0,0.5],[1,0.5]];portConstraint=eastwest;rotatable=0;whiteSpace=wrap;html=1;fontSize=20;fontStyle=0;labelBackgroundColor=none;fontColor=#000000;" parent="uGLxTM2DFbwT5KClBr5C-95" vertex="1">
          <mxGeometry y="60" width="261.5" height="30" as="geometry" />
        </mxCell>
        <mxCell id="uGLxTM2DFbwT5KClBr5C-99" value="note: String" style="text;strokeColor=none;fillColor=none;align=left;verticalAlign=middle;spacingLeft=4;spacingRight=4;overflow=hidden;points=[[0,0.5],[1,0.5]];portConstraint=eastwest;rotatable=0;whiteSpace=wrap;html=1;fontSize=20;fontStyle=0;labelBackgroundColor=none;fontColor=#000000;" parent="uGLxTM2DFbwT5KClBr5C-95" vertex="1">
          <mxGeometry y="90" width="261.5" height="30" as="geometry" />
        </mxCell>
        <mxCell id="uGLxTM2DFbwT5KClBr5C-102" value="date: Date" style="text;strokeColor=none;fillColor=none;align=left;verticalAlign=middle;spacingLeft=4;spacingRight=4;overflow=hidden;points=[[0,0.5],[1,0.5]];portConstraint=eastwest;rotatable=0;whiteSpace=wrap;html=1;fontSize=20;fontStyle=0;labelBackgroundColor=none;fontColor=#000000;" parent="uGLxTM2DFbwT5KClBr5C-95" vertex="1">
          <mxGeometry y="120" width="261.5" height="30" as="geometry" />
        </mxCell>
        <mxCell id="XuVh04JDV7u7HP7zkTSy-92" value="Notification" style="swimlane;fontStyle=0;childLayout=stackLayout;horizontal=1;startSize=30;horizontalStack=0;resizeParent=1;resizeParentMax=0;resizeLast=0;collapsible=1;marginBottom=0;whiteSpace=wrap;html=1;fontSize=20;labelBackgroundColor=none;fontColor=#000000;" parent="1" vertex="1">
          <mxGeometry x="100" y="-920" width="190" height="270" as="geometry" />
        </mxCell>
        <mxCell id="XuVh04JDV7u7HP7zkTSy-93" value="&lt;div style=&quot;text-align: center;&quot;&gt;&lt;span style=&quot;background-color: initial;&quot;&gt;_id: ObjectId&lt;/span&gt;&lt;/div&gt;" style="text;strokeColor=none;fillColor=none;align=left;verticalAlign=middle;spacingLeft=4;spacingRight=4;overflow=hidden;points=[[0,0.5],[1,0.5]];portConstraint=eastwest;rotatable=0;whiteSpace=wrap;html=1;fontSize=20;fontStyle=0;labelBackgroundColor=none;fontColor=#000000;" parent="XuVh04JDV7u7HP7zkTSy-92" vertex="1">
          <mxGeometry y="30" width="190" height="30" as="geometry" />
        </mxCell>
        <mxCell id="XuVh04JDV7u7HP7zkTSy-94" value="&lt;span style=&quot;text-align: center;&quot;&gt;title: String&lt;/span&gt;" style="text;strokeColor=none;fillColor=none;align=left;verticalAlign=middle;spacingLeft=4;spacingRight=4;overflow=hidden;points=[[0,0.5],[1,0.5]];portConstraint=eastwest;rotatable=0;whiteSpace=wrap;html=1;fontSize=20;fontStyle=0;labelBackgroundColor=none;fontColor=#000000;" parent="XuVh04JDV7u7HP7zkTSy-92" vertex="1">
          <mxGeometry y="60" width="190" height="30" as="geometry" />
        </mxCell>
        <mxCell id="XuVh04JDV7u7HP7zkTSy-95" value="&lt;span style=&quot;text-align: center;&quot;&gt;content:String&lt;/span&gt;" style="text;strokeColor=none;fillColor=none;align=left;verticalAlign=middle;spacingLeft=4;spacingRight=4;overflow=hidden;points=[[0,0.5],[1,0.5]];portConstraint=eastwest;rotatable=0;whiteSpace=wrap;html=1;fontSize=20;fontStyle=0;labelBackgroundColor=none;fontColor=#000000;" parent="XuVh04JDV7u7HP7zkTSy-92" vertex="1">
          <mxGeometry y="90" width="190" height="30" as="geometry" />
        </mxCell>
        <mxCell id="XuVh04JDV7u7HP7zkTSy-96" value="&lt;span style=&quot;text-align: center;&quot;&gt;category: String&lt;/span&gt;" style="text;strokeColor=none;fillColor=none;align=left;verticalAlign=middle;spacingLeft=4;spacingRight=4;overflow=hidden;points=[[0,0.5],[1,0.5]];portConstraint=eastwest;rotatable=0;whiteSpace=wrap;html=1;fontSize=20;fontStyle=0;labelBackgroundColor=none;fontColor=#000000;" parent="XuVh04JDV7u7HP7zkTSy-92" vertex="1">
          <mxGeometry y="120" width="190" height="30" as="geometry" />
        </mxCell>
        <mxCell id="XuVh04JDV7u7HP7zkTSy-97" value="&lt;span style=&quot;text-align: center;&quot;&gt;date: Date&lt;/span&gt;" style="text;strokeColor=none;fillColor=none;align=left;verticalAlign=middle;spacingLeft=4;spacingRight=4;overflow=hidden;points=[[0,0.5],[1,0.5]];portConstraint=eastwest;rotatable=0;whiteSpace=wrap;html=1;fontSize=20;fontStyle=0;labelBackgroundColor=none;fontColor=#000000;" parent="XuVh04JDV7u7HP7zkTSy-92" vertex="1">
          <mxGeometry y="150" width="190" height="30" as="geometry" />
        </mxCell>
        <mxCell id="uGLxTM2DFbwT5KClBr5C-120" value="&lt;span style=&quot;text-align: center;&quot;&gt;seen: Boolean&lt;/span&gt;" style="text;strokeColor=none;fillColor=none;align=left;verticalAlign=middle;spacingLeft=4;spacingRight=4;overflow=hidden;points=[[0,0.5],[1,0.5]];portConstraint=eastwest;rotatable=0;whiteSpace=wrap;html=1;fontSize=20;fontStyle=0;labelBackgroundColor=none;fontColor=#000000;" parent="XuVh04JDV7u7HP7zkTSy-92" vertex="1">
          <mxGeometry y="180" width="190" height="30" as="geometry" />
        </mxCell>
        <mxCell id="uGLxTM2DFbwT5KClBr5C-121" value="&lt;span style=&quot;text-align: center;&quot;&gt;attached: ObjectId&lt;/span&gt;" style="text;strokeColor=none;fillColor=none;align=left;verticalAlign=middle;spacingLeft=4;spacingRight=4;overflow=hidden;points=[[0,0.5],[1,0.5]];portConstraint=eastwest;rotatable=0;whiteSpace=wrap;html=1;fontSize=20;fontStyle=0;labelBackgroundColor=none;fontColor=#000000;" parent="XuVh04JDV7u7HP7zkTSy-92" vertex="1">
          <mxGeometry y="210" width="190" height="30" as="geometry" />
        </mxCell>
        <mxCell id="uGLxTM2DFbwT5KClBr5C-122" value="&lt;span style=&quot;text-align: center;&quot;&gt;user: ObjectId&lt;/span&gt;" style="text;strokeColor=none;fillColor=none;align=left;verticalAlign=middle;spacingLeft=4;spacingRight=4;overflow=hidden;points=[[0,0.5],[1,0.5]];portConstraint=eastwest;rotatable=0;whiteSpace=wrap;html=1;fontSize=20;fontStyle=0;labelBackgroundColor=none;fontColor=#000000;" parent="XuVh04JDV7u7HP7zkTSy-92" vertex="1">
          <mxGeometry y="240" width="190" height="30" as="geometry" />
        </mxCell>
        <mxCell id="uGLxTM2DFbwT5KClBr5C-134" value="Sick" style="swimlane;fontStyle=0;childLayout=stackLayout;horizontal=1;startSize=30;horizontalStack=0;resizeParent=1;resizeParentMax=0;resizeLast=0;collapsible=1;marginBottom=0;whiteSpace=wrap;html=1;fontSize=20;labelBackgroundColor=none;fontColor=#000000;" parent="1" vertex="1">
          <mxGeometry x="60" y="400" width="140" height="150" as="geometry" />
        </mxCell>
        <mxCell id="uGLxTM2DFbwT5KClBr5C-135" value="&lt;span style=&quot;text-align: center;&quot;&gt;_id&lt;/span&gt;&lt;span style=&quot;text-align: center;&quot;&gt;: ObjectId&lt;/span&gt;" style="text;strokeColor=none;fillColor=none;align=left;verticalAlign=middle;spacingLeft=4;spacingRight=4;overflow=hidden;points=[[0,0.5],[1,0.5]];portConstraint=eastwest;rotatable=0;whiteSpace=wrap;html=1;fontSize=20;fontStyle=0;labelBackgroundColor=none;fontColor=#000000;" parent="uGLxTM2DFbwT5KClBr5C-134" vertex="1">
          <mxGeometry y="30" width="140" height="30" as="geometry" />
        </mxCell>
        <mxCell id="uGLxTM2DFbwT5KClBr5C-136" value="&lt;span style=&quot;text-align: center;&quot;&gt;title: String&lt;/span&gt;" style="text;strokeColor=none;fillColor=none;align=left;verticalAlign=middle;spacingLeft=4;spacingRight=4;overflow=hidden;points=[[0,0.5],[1,0.5]];portConstraint=eastwest;rotatable=0;whiteSpace=wrap;html=1;fontSize=20;fontStyle=0;labelBackgroundColor=none;fontColor=#000000;" parent="uGLxTM2DFbwT5KClBr5C-134" vertex="1">
          <mxGeometry y="60" width="140" height="30" as="geometry" />
        </mxCell>
        <mxCell id="uGLxTM2DFbwT5KClBr5C-137" value="&lt;span style=&quot;text-align: center;&quot;&gt;description: String&lt;/span&gt;" style="text;strokeColor=none;fillColor=none;align=left;verticalAlign=middle;spacingLeft=4;spacingRight=4;overflow=hidden;points=[[0,0.5],[1,0.5]];portConstraint=eastwest;rotatable=0;whiteSpace=wrap;html=1;fontSize=20;fontStyle=0;labelBackgroundColor=none;fontColor=#000000;" parent="uGLxTM2DFbwT5KClBr5C-134" vertex="1">
          <mxGeometry y="90" width="140" height="30" as="geometry" />
        </mxCell>
        <mxCell id="uGLxTM2DFbwT5KClBr5C-138" value="&lt;span style=&quot;text-align: center;&quot;&gt;image: String&lt;/span&gt;" style="text;strokeColor=none;fillColor=none;align=left;verticalAlign=middle;spacingLeft=4;spacingRight=4;overflow=hidden;points=[[0,0.5],[1,0.5]];portConstraint=eastwest;rotatable=0;whiteSpace=wrap;html=1;fontSize=20;fontStyle=0;labelBackgroundColor=none;fontColor=#000000;" parent="uGLxTM2DFbwT5KClBr5C-134" vertex="1">
          <mxGeometry y="120" width="140" height="30" as="geometry" />
        </mxCell>
        <mxCell id="uGLxTM2DFbwT5KClBr5C-140" value="" style="endArrow=none;html=1;rounded=0;exitX=0;exitY=0.5;exitDx=0;exitDy=0;fontSize=20;fontStyle=0;entryX=1;entryY=0.5;entryDx=0;entryDy=0;labelBackgroundColor=none;fontColor=#000000;" parent="1" source="uGLxTM2DFbwT5KClBr5C-136" target="DxQ8z24LICRfDCV-2qwh-53" edge="1">
          <mxGeometry width="50" height="50" relative="1" as="geometry">
            <mxPoint x="-260" y="410" as="sourcePoint" />
            <mxPoint x="40" y="350" as="targetPoint" />
          </mxGeometry>
        </mxCell>
        <mxCell id="uGLxTM2DFbwT5KClBr5C-141" value="" style="endArrow=none;html=1;rounded=0;entryX=1;entryY=0.5;entryDx=0;entryDy=0;exitX=0;exitY=0.5;exitDx=0;exitDy=0;fontSize=20;fontStyle=0;labelBackgroundColor=none;fontColor=#000000;" parent="1" source="uGLxTM2DFbwT5KClBr5C-22" target="uGLxTM2DFbwT5KClBr5C-136" edge="1">
          <mxGeometry width="50" height="50" relative="1" as="geometry">
            <mxPoint x="200" y="650" as="sourcePoint" />
            <mxPoint y="495" as="targetPoint" />
          </mxGeometry>
        </mxCell>
        <mxCell id="uGLxTM2DFbwT5KClBr5C-152" value="" style="endArrow=none;html=1;rounded=0;exitX=0.998;exitY=0.873;exitDx=0;exitDy=0;entryX=0;entryY=0.5;entryDx=0;entryDy=0;exitPerimeter=0;fontSize=20;fontStyle=0;labelBackgroundColor=none;fontColor=#000000;" parent="1" source="DxQ8z24LICRfDCV-2qwh-80" target="DxQ8z24LICRfDCV-2qwh-16" edge="1">
          <mxGeometry width="50" height="50" relative="1" as="geometry">
            <mxPoint x="840" y="-430" as="sourcePoint" />
            <mxPoint x="890" y="-480" as="targetPoint" />
          </mxGeometry>
        </mxCell>
        <mxCell id="uGLxTM2DFbwT5KClBr5C-156" value="" style="endArrow=none;html=1;rounded=0;exitX=1;exitY=0.5;exitDx=0;exitDy=0;entryX=0;entryY=0.5;entryDx=0;entryDy=0;fontSize=20;fontStyle=0;labelBackgroundColor=none;fontColor=#000000;" parent="1" source="UZzyd5HIegSU0YCeQs_y-75" target="uGLxTM2DFbwT5KClBr5C-14" edge="1">
          <mxGeometry width="50" height="50" relative="1" as="geometry">
            <mxPoint x="460" y="640" as="sourcePoint" />
            <mxPoint x="290" y="275" as="targetPoint" />
          </mxGeometry>
        </mxCell>
        <mxCell id="uGLxTM2DFbwT5KClBr5C-161" value="" style="endArrow=none;html=1;rounded=0;entryX=1;entryY=0.5;entryDx=0;entryDy=0;exitX=0.5;exitY=0;exitDx=0;exitDy=0;fontSize=20;fontStyle=0;labelBackgroundColor=none;fontColor=#000000;" parent="1" source="uGLxTM2DFbwT5KClBr5C-82" target="XuVh04JDV7u7HP7zkTSy-60" edge="1">
          <mxGeometry width="50" height="50" relative="1" as="geometry">
            <mxPoint x="790" y="-270" as="sourcePoint" />
            <mxPoint x="840" y="-320" as="targetPoint" />
            <Array as="points">
              <mxPoint x="1030" y="-555" />
            </Array>
          </mxGeometry>
        </mxCell>
        <mxCell id="uGLxTM2DFbwT5KClBr5C-163" value="" style="endArrow=none;html=1;rounded=0;exitX=1;exitY=0.5;exitDx=0;exitDy=0;entryX=0;entryY=0.5;entryDx=0;entryDy=0;fontSize=20;fontStyle=0;labelBackgroundColor=none;fontColor=#000000;" parent="1" source="UZzyd5HIegSU0YCeQs_y-104" target="DxQ8z24LICRfDCV-2qwh-19" edge="1">
          <mxGeometry width="50" height="50" relative="1" as="geometry">
            <mxPoint x="440" y="160" as="sourcePoint" />
            <mxPoint x="490" y="110" as="targetPoint" />
            <Array as="points">
              <mxPoint x="240" y="175" />
              <mxPoint x="240" y="-65" />
            </Array>
          </mxGeometry>
        </mxCell>
        <mxCell id="uGLxTM2DFbwT5KClBr5C-171" value="" style="endArrow=none;html=1;rounded=0;exitX=1;exitY=0.5;exitDx=0;exitDy=0;entryX=0;entryY=0.5;entryDx=0;entryDy=0;fontSize=20;fontStyle=0;labelBackgroundColor=none;fontColor=#000000;" parent="1" source="XuVh04JDV7u7HP7zkTSy-95" target="XuVh04JDV7u7HP7zkTSy-26" edge="1">
          <mxGeometry width="50" height="50" relative="1" as="geometry">
            <mxPoint x="410" y="-880" as="sourcePoint" />
            <mxPoint x="460" y="-930" as="targetPoint" />
          </mxGeometry>
        </mxCell>
        <mxCell id="uGLxTM2DFbwT5KClBr5C-173" value="" style="endArrow=none;html=1;rounded=0;entryX=0;entryY=0.5;entryDx=0;entryDy=0;exitX=1;exitY=0.5;exitDx=0;exitDy=0;fontSize=20;fontStyle=0;labelBackgroundColor=none;fontColor=#000000;" parent="1" source="UZzyd5HIegSU0YCeQs_y-109" target="UZzyd5HIegSU0YCeQs_y-76" edge="1">
          <mxGeometry width="50" height="50" relative="1" as="geometry">
            <mxPoint x="10" y="305" as="sourcePoint" />
            <mxPoint x="420" y="490" as="targetPoint" />
          </mxGeometry>
        </mxCell>
        <mxCell id="uGLxTM2DFbwT5KClBr5C-177" value="" style="endArrow=none;html=1;rounded=0;entryX=0;entryY=0.5;entryDx=0;entryDy=0;exitX=0.359;exitY=-0.004;exitDx=0;exitDy=0;exitPerimeter=0;fontSize=20;fontStyle=0;labelBackgroundColor=none;fontColor=#000000;" parent="1" source="uGLxTM2DFbwT5KClBr5C-12" target="DxQ8z24LICRfDCV-2qwh-21" edge="1">
          <mxGeometry width="50" height="50" relative="1" as="geometry">
            <mxPoint x="370" y="200" as="sourcePoint" />
            <mxPoint x="420" y="150" as="targetPoint" />
            <Array as="points">
              <mxPoint x="349" y="-35" />
            </Array>
          </mxGeometry>
        </mxCell>
        <mxCell id="uGLxTM2DFbwT5KClBr5C-178" value="" style="endArrow=none;html=1;rounded=0;exitX=0.495;exitY=1.075;exitDx=0;exitDy=0;exitPerimeter=0;entryX=0.5;entryY=0;entryDx=0;entryDy=0;fontSize=20;fontStyle=0;labelBackgroundColor=none;fontColor=#000000;" parent="1" target="UZzyd5HIegSU0YCeQs_y-102" edge="1">
          <mxGeometry width="50" height="50" relative="1" as="geometry">
            <mxPoint x="-110.94999999999982" y="12.249999999999545" as="sourcePoint" />
            <mxPoint x="420" y="150" as="targetPoint" />
          </mxGeometry>
        </mxCell>
        <mxCell id="uGLxTM2DFbwT5KClBr5C-179" value="" style="endArrow=none;html=1;rounded=0;exitX=0.129;exitY=1.098;exitDx=0;exitDy=0;entryX=0.387;entryY=0.975;entryDx=0;entryDy=0;entryPerimeter=0;exitPerimeter=0;fontSize=20;fontStyle=0;labelBackgroundColor=none;fontColor=#000000;" parent="1" target="uGLxTM2DFbwT5KClBr5C-61" edge="1">
          <mxGeometry width="50" height="50" relative="1" as="geometry">
            <mxPoint x="-180.49000000000024" y="12.9399999999996" as="sourcePoint" />
            <mxPoint x="420" y="150" as="targetPoint" />
            <Array as="points">
              <mxPoint x="-180" y="80" />
              <mxPoint x="-320" y="80" />
              <mxPoint x="-320" y="620" />
              <mxPoint x="359" y="620" />
            </Array>
          </mxGeometry>
        </mxCell>
        <mxCell id="uGLxTM2DFbwT5KClBr5C-180" value="" style="endArrow=none;html=1;rounded=0;entryX=0;entryY=0.5;entryDx=0;entryDy=0;exitX=0.364;exitY=0.999;exitDx=0;exitDy=0;exitPerimeter=0;fontSize=20;fontStyle=0;labelBackgroundColor=none;fontColor=#000000;" parent="1" source="uGLxTM2DFbwT5KClBr5C-118" edge="1">
          <mxGeometry width="50" height="50" relative="1" as="geometry">
            <mxPoint x="930" y="700" as="sourcePoint" />
            <mxPoint x="-205" y="-5.000000000000455" as="targetPoint" />
            <Array as="points">
              <mxPoint x="992" y="660" />
              <mxPoint x="-360" y="660" />
              <mxPoint x="-360" y="-5" />
            </Array>
          </mxGeometry>
        </mxCell>
        <mxCell id="uGLxTM2DFbwT5KClBr5C-181" value="" style="endArrow=none;html=1;rounded=0;exitX=1;exitY=0.25;exitDx=0;exitDy=0;entryX=0;entryY=0.5;entryDx=0;entryDy=0;fontSize=20;fontStyle=0;labelBackgroundColor=none;fontColor=#000000;" parent="1" source="UZzyd5HIegSU0YCeQs_y-80" target="DxQ8z24LICRfDCV-2qwh-80" edge="1">
          <mxGeometry width="50" height="50" relative="1" as="geometry">
            <mxPoint x="200" y="-230" as="sourcePoint" />
            <mxPoint x="250" y="-280" as="targetPoint" />
            <Array as="points">
              <mxPoint x="90" y="-35" />
              <mxPoint x="90" y="-165" />
            </Array>
          </mxGeometry>
        </mxCell>
        <mxCell id="uGLxTM2DFbwT5KClBr5C-192" value="" style="endArrow=none;html=1;rounded=0;exitX=0.5;exitY=0;exitDx=0;exitDy=0;entryX=0.493;entryY=1.103;entryDx=0;entryDy=0;entryPerimeter=0;fontSize=20;fontStyle=0;labelBackgroundColor=none;fontColor=#000000;" parent="1" source="DxQ8z24LICRfDCV-2qwh-5" target="XuVh04JDV7u7HP7zkTSy-61" edge="1">
          <mxGeometry width="50" height="50" relative="1" as="geometry">
            <mxPoint x="610" y="-430" as="sourcePoint" />
            <mxPoint x="920" y="-480" as="targetPoint" />
          </mxGeometry>
        </mxCell>
        <mxCell id="uGLxTM2DFbwT5KClBr5C-204" value="BlockHash" style="swimlane;fontStyle=0;childLayout=stackLayout;horizontal=1;startSize=30;horizontalStack=0;resizeParent=1;resizeParentMax=0;resizeLast=0;collapsible=1;marginBottom=0;whiteSpace=wrap;html=1;fontSize=20;labelBackgroundColor=none;fontColor=#000000;" parent="1" vertex="1">
          <mxGeometry x="-280" y="-335" width="150" height="60" as="geometry" />
        </mxCell>
        <mxCell id="uGLxTM2DFbwT5KClBr5C-205" value="&lt;div style=&quot;text-align: center;&quot;&gt;&lt;span style=&quot;background-color: initial;&quot;&gt;hashTX: String&lt;/span&gt;&lt;/div&gt;" style="text;strokeColor=none;fillColor=none;align=left;verticalAlign=middle;spacingLeft=4;spacingRight=4;overflow=hidden;points=[[0,0.5],[1,0.5]];portConstraint=eastwest;rotatable=0;whiteSpace=wrap;html=1;fontSize=20;fontStyle=0;labelBackgroundColor=none;fontColor=#000000;" parent="uGLxTM2DFbwT5KClBr5C-204" vertex="1">
          <mxGeometry y="30" width="150" height="30" as="geometry" />
        </mxCell>
        <mxCell id="uGLxTM2DFbwT5KClBr5C-207" value="Medicals" style="swimlane;fontStyle=0;childLayout=stackLayout;horizontal=1;startSize=30;horizontalStack=0;resizeParent=1;resizeParentMax=0;resizeLast=0;collapsible=1;marginBottom=0;whiteSpace=wrap;html=1;fontSize=20;labelBackgroundColor=none;fontColor=#000000;" parent="1" vertex="1">
          <mxGeometry x="-280" y="-550" width="150" height="120" as="geometry" />
        </mxCell>
        <mxCell id="uGLxTM2DFbwT5KClBr5C-208" value="&lt;div style=&quot;text-align: center;&quot;&gt;&lt;span style=&quot;background-color: initial;&quot;&gt;medicalName: String&lt;/span&gt;&lt;/div&gt;" style="text;strokeColor=none;fillColor=none;align=left;verticalAlign=middle;spacingLeft=4;spacingRight=4;overflow=hidden;points=[[0,0.5],[1,0.5]];portConstraint=eastwest;rotatable=0;whiteSpace=wrap;html=1;fontSize=20;fontStyle=0;labelBackgroundColor=none;fontColor=#000000;" parent="uGLxTM2DFbwT5KClBr5C-207" vertex="1">
          <mxGeometry y="30" width="150" height="30" as="geometry" />
        </mxCell>
        <mxCell id="uGLxTM2DFbwT5KClBr5C-209" value="&lt;div style=&quot;text-align: center;&quot;&gt;&lt;span style=&quot;background-color: initial;&quot;&gt;quantity: int&lt;/span&gt;&lt;/div&gt;" style="text;strokeColor=none;fillColor=none;align=left;verticalAlign=middle;spacingLeft=4;spacingRight=4;overflow=hidden;points=[[0,0.5],[1,0.5]];portConstraint=eastwest;rotatable=0;whiteSpace=wrap;html=1;fontSize=20;fontStyle=0;labelBackgroundColor=none;fontColor=#000000;" parent="uGLxTM2DFbwT5KClBr5C-207" vertex="1">
          <mxGeometry y="60" width="150" height="30" as="geometry" />
        </mxCell>
        <mxCell id="uGLxTM2DFbwT5KClBr5C-210" value="&lt;div style=&quot;text-align: center;&quot;&gt;&lt;span style=&quot;white-space: pre; text-align: left;&quot;&gt;unitOfCalculation&lt;/span&gt;&lt;span&gt;: int&lt;/span&gt;&lt;/div&gt;" style="text;strokeColor=none;fillColor=none;align=left;verticalAlign=middle;spacingLeft=4;spacingRight=4;overflow=hidden;points=[[0,0.5],[1,0.5]];portConstraint=eastwest;rotatable=0;whiteSpace=wrap;html=1;fontFamily=Helvetica;labelBackgroundColor=none;fontSize=20;fontStyle=0;fontColor=#000000;" parent="uGLxTM2DFbwT5KClBr5C-207" vertex="1">
          <mxGeometry y="90" width="150" height="30" as="geometry" />
        </mxCell>
        <mxCell id="uGLxTM2DFbwT5KClBr5C-213" value="" style="endArrow=none;html=1;rounded=0;entryX=0.137;entryY=0.003;entryDx=0;entryDy=0;exitX=1;exitY=0.5;exitDx=0;exitDy=0;fontSize=20;fontStyle=0;labelBackgroundColor=none;fontColor=#000000;entryPerimeter=0;" parent="1" source="UZzyd5HIegSU0YCeQs_y-57" target="XuVh04JDV7u7HP7zkTSy-57" edge="1">
          <mxGeometry width="50" height="50" relative="1" as="geometry">
            <mxPoint x="-180" y="-540" as="sourcePoint" />
            <mxPoint x="-130" y="-590" as="targetPoint" />
            <Array as="points">
              <mxPoint x="-240" y="-625" />
              <mxPoint x="-240" y="-1000" />
              <mxPoint x="747" y="-1000" />
            </Array>
          </mxGeometry>
        </mxCell>
        <mxCell id="uGLxTM2DFbwT5KClBr5C-214" value="" style="endArrow=none;html=1;rounded=0;exitX=1;exitY=0.5;exitDx=0;exitDy=0;entryX=0.25;entryY=0;entryDx=0;entryDy=0;fontSize=20;fontStyle=0;labelBackgroundColor=none;fontColor=#000000;" parent="1" source="uGLxTM2DFbwT5KClBr5C-202" target="UZzyd5HIegSU0YCeQs_y-80" edge="1">
          <mxGeometry width="50" height="50" relative="1" as="geometry">
            <mxPoint x="-180" y="-450" as="sourcePoint" />
            <mxPoint x="-130" y="-500" as="targetPoint" />
            <Array as="points">
              <mxPoint x="-157" y="-175" />
            </Array>
          </mxGeometry>
        </mxCell>
        <mxCell id="uGLxTM2DFbwT5KClBr5C-219" value="" style="endArrow=none;html=1;rounded=0;entryX=0;entryY=0.5;entryDx=0;entryDy=0;exitX=0.878;exitY=0.003;exitDx=0;exitDy=0;exitPerimeter=0;fontSize=20;fontStyle=0;labelBackgroundColor=none;fontColor=#000000;" parent="1" source="XuVh04JDV7u7HP7zkTSy-57" target="uGLxTM2DFbwT5KClBr5C-217" edge="1">
          <mxGeometry width="50" height="50" relative="1" as="geometry">
            <mxPoint x="600" y="-810" as="sourcePoint" />
            <mxPoint x="650" y="-860" as="targetPoint" />
            <Array as="points">
              <mxPoint x="893" y="-645" />
            </Array>
          </mxGeometry>
        </mxCell>
        <mxCell id="uGLxTM2DFbwT5KClBr5C-220" value="QA" style="swimlane;fontStyle=0;childLayout=stackLayout;horizontal=1;startSize=30;horizontalStack=0;resizeParent=1;resizeParentMax=0;resizeLast=0;collapsible=1;marginBottom=0;whiteSpace=wrap;html=1;fontSize=20;labelBackgroundColor=none;fontColor=#000000;" parent="1" vertex="1">
          <mxGeometry x="-25" y="-540" width="160" height="300" as="geometry" />
        </mxCell>
        <mxCell id="uGLxTM2DFbwT5KClBr5C-221" value="&lt;div style=&quot;text-align: center;&quot;&gt;&lt;span style=&quot;background-color: initial;&quot;&gt;_id: ObjectId&lt;/span&gt;&lt;/div&gt;" style="text;strokeColor=none;fillColor=none;align=left;verticalAlign=middle;spacingLeft=4;spacingRight=4;overflow=hidden;points=[[0,0.5],[1,0.5]];portConstraint=eastwest;rotatable=0;whiteSpace=wrap;html=1;fontSize=20;fontStyle=0;labelBackgroundColor=none;fontColor=#000000;" parent="uGLxTM2DFbwT5KClBr5C-220" vertex="1">
          <mxGeometry y="30" width="160" height="30" as="geometry" />
        </mxCell>
        <mxCell id="uGLxTM2DFbwT5KClBr5C-222" value="&lt;div style=&quot;text-align: center;&quot;&gt;&lt;span style=&quot;background-color: initial;&quot;&gt;title:String&lt;/span&gt;&lt;/div&gt;" style="text;strokeColor=none;fillColor=none;align=left;verticalAlign=middle;spacingLeft=4;spacingRight=4;overflow=hidden;points=[[0,0.5],[1,0.5]];portConstraint=eastwest;rotatable=0;whiteSpace=wrap;html=1;fontSize=20;fontStyle=0;labelBackgroundColor=none;fontColor=#000000;" parent="uGLxTM2DFbwT5KClBr5C-220" vertex="1">
          <mxGeometry y="60" width="160" height="30" as="geometry" />
        </mxCell>
        <mxCell id="uGLxTM2DFbwT5KClBr5C-223" value="&lt;div style=&quot;text-align: center;&quot;&gt;&lt;span style=&quot;background-color: initial;&quot;&gt;content: String&lt;/span&gt;&lt;/div&gt;" style="text;strokeColor=none;fillColor=none;align=left;verticalAlign=middle;spacingLeft=4;spacingRight=4;overflow=hidden;points=[[0,0.5],[1,0.5]];portConstraint=eastwest;rotatable=0;whiteSpace=wrap;html=1;fontSize=20;fontStyle=0;labelBackgroundColor=none;fontColor=#000000;" parent="uGLxTM2DFbwT5KClBr5C-220" vertex="1">
          <mxGeometry y="90" width="160" height="30" as="geometry" />
        </mxCell>
        <mxCell id="uGLxTM2DFbwT5KClBr5C-224" value="&lt;span style=&quot;text-align: center;&quot;&gt;date: Date&lt;/span&gt;" style="text;strokeColor=none;fillColor=none;align=left;verticalAlign=middle;spacingLeft=4;spacingRight=4;overflow=hidden;points=[[0,0.5],[1,0.5]];portConstraint=eastwest;rotatable=0;whiteSpace=wrap;html=1;fontSize=20;fontStyle=0;labelBackgroundColor=none;fontColor=#000000;" parent="uGLxTM2DFbwT5KClBr5C-220" vertex="1">
          <mxGeometry y="120" width="160" height="30" as="geometry" />
        </mxCell>
        <mxCell id="uGLxTM2DFbwT5KClBr5C-225" value="&lt;span style=&quot;white-space: pre;&quot;&gt;category&lt;/span&gt;&lt;span style=&quot;text-align: center;&quot;&gt;: String&lt;/span&gt;" style="text;strokeColor=none;fillColor=none;align=left;verticalAlign=middle;spacingLeft=4;spacingRight=4;overflow=hidden;points=[[0,0.5],[1,0.5]];portConstraint=eastwest;rotatable=0;whiteSpace=wrap;html=1;labelBackgroundColor=none;fontFamily=Helvetica;fontSize=20;fontStyle=0;fontColor=#000000;" parent="uGLxTM2DFbwT5KClBr5C-220" vertex="1">
          <mxGeometry y="150" width="160" height="30" as="geometry" />
        </mxCell>
        <mxCell id="uGLxTM2DFbwT5KClBr5C-226" value="&lt;span style=&quot;white-space: pre;&quot;&gt;views&lt;/span&gt;&lt;span style=&quot;text-align: center;&quot;&gt;: int&lt;/span&gt;" style="text;strokeColor=none;fillColor=none;align=left;verticalAlign=middle;spacingLeft=4;spacingRight=4;overflow=hidden;points=[[0,0.5],[1,0.5]];portConstraint=eastwest;rotatable=0;whiteSpace=wrap;html=1;labelBackgroundColor=none;fontFamily=Helvetica;fontSize=20;fontStyle=0;fontColor=#000000;" parent="uGLxTM2DFbwT5KClBr5C-220" vertex="1">
          <mxGeometry y="180" width="160" height="30" as="geometry" />
        </mxCell>
        <mxCell id="uGLxTM2DFbwT5KClBr5C-227" value="&lt;div style=&quot;text-align: left;&quot;&gt;&lt;span style=&quot;text-align: center; background-color: initial;&quot;&gt;&lt;span style=&quot;white-space: pre;&quot;&gt;patient&lt;/span&gt;&amp;nbsp;Patient&lt;/span&gt;&lt;/div&gt;" style="text;strokeColor=none;fillColor=none;align=left;verticalAlign=middle;spacingLeft=4;spacingRight=4;overflow=hidden;points=[[0,0.5],[1,0.5]];portConstraint=eastwest;rotatable=0;whiteSpace=wrap;html=1;labelBackgroundColor=none;fontFamily=Helvetica;fontSize=20;fontStyle=0;fontColor=#000000;" parent="uGLxTM2DFbwT5KClBr5C-220" vertex="1">
          <mxGeometry y="210" width="160" height="30" as="geometry" />
        </mxCell>
        <mxCell id="uGLxTM2DFbwT5KClBr5C-228" value="&lt;div style=&quot;text-align: left;&quot;&gt;&lt;span style=&quot;text-align: center; white-space: pre;&quot;&gt;&lt;font&gt;like&lt;/font&gt;&lt;/span&gt;&lt;span style=&quot;text-align: center;&quot;&gt;: ObjectId[]&lt;/span&gt;&lt;/div&gt;" style="text;strokeColor=none;fillColor=none;align=left;verticalAlign=middle;spacingLeft=4;spacingRight=4;overflow=hidden;points=[[0,0.5],[1,0.5]];portConstraint=eastwest;rotatable=0;whiteSpace=wrap;html=1;labelBackgroundColor=none;fontFamily=Helvetica;fontSize=20;fontStyle=0;fontColor=#000000;" parent="uGLxTM2DFbwT5KClBr5C-220" vertex="1">
          <mxGeometry y="240" width="160" height="30" as="geometry" />
        </mxCell>
        <mxCell id="uGLxTM2DFbwT5KClBr5C-229" value="&lt;span style=&quot;white-space: pre;&quot;&gt;image&lt;/span&gt;&lt;span style=&quot;text-align: center;&quot;&gt;: String[]&lt;/span&gt;" style="text;strokeColor=none;fillColor=none;align=left;verticalAlign=middle;spacingLeft=4;spacingRight=4;overflow=hidden;points=[[0,0.5],[1,0.5]];portConstraint=eastwest;rotatable=0;whiteSpace=wrap;html=1;labelBackgroundColor=none;fontFamily=Helvetica;fontSize=20;fontStyle=0;fontColor=#000000;" parent="uGLxTM2DFbwT5KClBr5C-220" vertex="1">
          <mxGeometry y="270" width="160" height="30" as="geometry" />
        </mxCell>
        <mxCell id="uGLxTM2DFbwT5KClBr5C-230" value="" style="endArrow=none;html=1;rounded=0;exitX=0.804;exitY=0.03;exitDx=0;exitDy=0;entryX=0.006;entryY=-0.258;entryDx=0;entryDy=0;exitPerimeter=0;fontSize=20;fontStyle=0;labelBackgroundColor=none;fontColor=#000000;entryPerimeter=0;" parent="1" source="UZzyd5HIegSU0YCeQs_y-80" target="uGLxTM2DFbwT5KClBr5C-229" edge="1">
          <mxGeometry width="50" height="50" relative="1" as="geometry">
            <mxPoint x="230" y="-240" as="sourcePoint" />
            <mxPoint x="280" y="-290" as="targetPoint" />
            <Array as="points">
              <mxPoint x="-50" y="-280" />
            </Array>
          </mxGeometry>
        </mxCell>
        <mxCell id="uGLxTM2DFbwT5KClBr5C-231" value="Comment" style="swimlane;fontStyle=0;childLayout=stackLayout;horizontal=1;startSize=30;horizontalStack=0;resizeParent=1;resizeParentMax=0;resizeLast=0;collapsible=1;marginBottom=0;whiteSpace=wrap;html=1;fontSize=20;labelBackgroundColor=none;fontColor=#000000;" parent="1" vertex="1">
          <mxGeometry x="240" y="-510" width="170" height="210" as="geometry" />
        </mxCell>
        <mxCell id="uGLxTM2DFbwT5KClBr5C-232" value="&lt;div style=&quot;text-align: center;&quot;&gt;&lt;span style=&quot;background-color: initial;&quot;&gt;_id: ObjectId&lt;/span&gt;&lt;/div&gt;" style="text;strokeColor=none;fillColor=none;align=left;verticalAlign=middle;spacingLeft=4;spacingRight=4;overflow=hidden;points=[[0,0.5],[1,0.5]];portConstraint=eastwest;rotatable=0;whiteSpace=wrap;html=1;fontSize=20;fontStyle=0;labelBackgroundColor=none;fontColor=#000000;" parent="uGLxTM2DFbwT5KClBr5C-231" vertex="1">
          <mxGeometry y="30" width="170" height="30" as="geometry" />
        </mxCell>
        <mxCell id="uGLxTM2DFbwT5KClBr5C-233" value="&lt;div style=&quot;text-align: center;&quot;&gt;&lt;span style=&quot;background-color: initial;&quot;&gt;text:String&lt;/span&gt;&lt;/div&gt;" style="text;strokeColor=none;fillColor=none;align=left;verticalAlign=middle;spacingLeft=4;spacingRight=4;overflow=hidden;points=[[0,0.5],[1,0.5]];portConstraint=eastwest;rotatable=0;whiteSpace=wrap;html=1;fontSize=20;fontStyle=0;labelBackgroundColor=none;fontColor=#000000;" parent="uGLxTM2DFbwT5KClBr5C-231" vertex="1">
          <mxGeometry y="60" width="170" height="30" as="geometry" />
        </mxCell>
        <mxCell id="uGLxTM2DFbwT5KClBr5C-234" value="&lt;div style=&quot;text-align: center;&quot;&gt;&lt;span style=&quot;background-color: initial;&quot;&gt;author: ObjectId&lt;/span&gt;&lt;/div&gt;" style="text;strokeColor=none;fillColor=none;align=left;verticalAlign=middle;spacingLeft=4;spacingRight=4;overflow=hidden;points=[[0,0.5],[1,0.5]];portConstraint=eastwest;rotatable=0;whiteSpace=wrap;html=1;fontSize=20;fontStyle=0;labelBackgroundColor=none;fontColor=#000000;" parent="uGLxTM2DFbwT5KClBr5C-231" vertex="1">
          <mxGeometry y="90" width="170" height="30" as="geometry" />
        </mxCell>
        <mxCell id="uGLxTM2DFbwT5KClBr5C-235" value="&lt;span style=&quot;text-align: center;&quot;&gt;date: Date&lt;/span&gt;" style="text;strokeColor=none;fillColor=none;align=left;verticalAlign=middle;spacingLeft=4;spacingRight=4;overflow=hidden;points=[[0,0.5],[1,0.5]];portConstraint=eastwest;rotatable=0;whiteSpace=wrap;html=1;fontSize=20;fontStyle=0;labelBackgroundColor=none;fontColor=#000000;" parent="uGLxTM2DFbwT5KClBr5C-231" vertex="1">
          <mxGeometry y="120" width="170" height="30" as="geometry" />
        </mxCell>
        <mxCell id="uGLxTM2DFbwT5KClBr5C-240" value="&lt;span style=&quot;white-space: pre;&quot;&gt;image&lt;/span&gt;&lt;span style=&quot;text-align: center;&quot;&gt;: String[]&lt;/span&gt;" style="text;strokeColor=none;fillColor=none;align=left;verticalAlign=middle;spacingLeft=4;spacingRight=4;overflow=hidden;points=[[0,0.5],[1,0.5]];portConstraint=eastwest;rotatable=0;whiteSpace=wrap;html=1;labelBackgroundColor=none;fontFamily=Helvetica;fontSize=20;fontStyle=0;fontColor=#000000;" parent="uGLxTM2DFbwT5KClBr5C-231" vertex="1">
          <mxGeometry y="150" width="170" height="30" as="geometry" />
        </mxCell>
        <mxCell id="uGLxTM2DFbwT5KClBr5C-241" value="&lt;span style=&quot;white-space: pre;&quot;&gt;qa&lt;/span&gt;&lt;span style=&quot;text-align: center;&quot;&gt;: ObjectId&lt;/span&gt;" style="text;strokeColor=none;fillColor=none;align=left;verticalAlign=middle;spacingLeft=4;spacingRight=4;overflow=hidden;points=[[0,0.5],[1,0.5]];portConstraint=eastwest;rotatable=0;whiteSpace=wrap;html=1;labelBackgroundColor=none;fontFamily=Helvetica;fontSize=20;fontStyle=0;fontColor=#000000;" parent="uGLxTM2DFbwT5KClBr5C-231" vertex="1">
          <mxGeometry y="180" width="170" height="30" as="geometry" />
        </mxCell>
        <mxCell id="uGLxTM2DFbwT5KClBr5C-242" value="" style="endArrow=none;html=1;rounded=0;exitX=1;exitY=0.5;exitDx=0;exitDy=0;entryX=0;entryY=0.5;entryDx=0;entryDy=0;fontSize=20;fontStyle=0;labelBackgroundColor=none;fontColor=#000000;" parent="1" source="uGLxTM2DFbwT5KClBr5C-225" target="uGLxTM2DFbwT5KClBr5C-235" edge="1">
          <mxGeometry width="50" height="50" relative="1" as="geometry">
            <mxPoint x="230" y="-240" as="sourcePoint" />
            <mxPoint x="280" y="-290" as="targetPoint" />
          </mxGeometry>
        </mxCell>
        <mxCell id="uGLxTM2DFbwT5KClBr5C-243" value="" style="endArrow=none;html=1;rounded=0;entryX=0.29;entryY=0.973;entryDx=0;entryDy=0;entryPerimeter=0;exitX=0.916;exitY=-0.01;exitDx=0;exitDy=0;exitPerimeter=0;fontSize=20;fontStyle=0;labelBackgroundColor=none;fontColor=#000000;" parent="1" source="UZzyd5HIegSU0YCeQs_y-80" target="uGLxTM2DFbwT5KClBr5C-241" edge="1">
          <mxGeometry width="50" height="50" relative="1" as="geometry">
            <mxPoint x="250" y="-230" as="sourcePoint" />
            <mxPoint x="280" y="-290" as="targetPoint" />
            <Array as="points">
              <mxPoint x="-31" y="-200" />
              <mxPoint x="289" y="-200" />
            </Array>
          </mxGeometry>
        </mxCell>
        <mxCell id="uGLxTM2DFbwT5KClBr5C-244" value="" style="endArrow=none;html=1;rounded=0;entryX=0.994;entryY=0.135;entryDx=0;entryDy=0;entryPerimeter=0;exitX=0.134;exitY=1.038;exitDx=0;exitDy=0;exitPerimeter=0;fontSize=20;fontStyle=0;labelBackgroundColor=none;fontColor=#000000;" parent="1" source="XuVh04JDV7u7HP7zkTSy-61" target="uGLxTM2DFbwT5KClBr5C-231" edge="1">
          <mxGeometry width="50" height="50" relative="1" as="geometry">
            <mxPoint x="230" y="-450" as="sourcePoint" />
            <mxPoint x="280" y="-500" as="targetPoint" />
            <Array as="points">
              <mxPoint x="746" y="-484" />
            </Array>
          </mxGeometry>
        </mxCell>
        <mxCell id="uGLxTM2DFbwT5KClBr5C-245" value="Message" style="swimlane;fontStyle=0;childLayout=stackLayout;horizontal=1;startSize=30;horizontalStack=0;resizeParent=1;resizeParentMax=0;resizeLast=0;collapsible=1;marginBottom=0;whiteSpace=wrap;html=1;fontSize=20;labelBackgroundColor=none;fontColor=#000000;" parent="1" vertex="1">
          <mxGeometry x="-80" y="-1175" width="240" height="120" as="geometry" />
        </mxCell>
        <mxCell id="uGLxTM2DFbwT5KClBr5C-246" value="&lt;span style=&quot;text-align: center;&quot;&gt;_id&lt;/span&gt;&lt;span style=&quot;text-align: center;&quot;&gt;: ObjectId&lt;/span&gt;" style="text;strokeColor=none;fillColor=none;align=left;verticalAlign=middle;spacingLeft=4;spacingRight=4;overflow=hidden;points=[[0,0.5],[1,0.5]];portConstraint=eastwest;rotatable=0;whiteSpace=wrap;html=1;fontSize=20;fontStyle=0;labelBackgroundColor=none;fontColor=#000000;" parent="uGLxTM2DFbwT5KClBr5C-245" vertex="1">
          <mxGeometry y="30" width="240" height="30" as="geometry" />
        </mxCell>
        <mxCell id="uGLxTM2DFbwT5KClBr5C-247" value="&lt;span style=&quot;text-align: center;&quot;&gt;room&lt;/span&gt;&lt;span style=&quot;text-align: center;&quot;&gt;: ObjectId&lt;/span&gt;" style="text;strokeColor=none;fillColor=none;align=left;verticalAlign=middle;spacingLeft=4;spacingRight=4;overflow=hidden;points=[[0,0.5],[1,0.5]];portConstraint=eastwest;rotatable=0;whiteSpace=wrap;html=1;fontSize=20;fontStyle=0;labelBackgroundColor=none;fontColor=#000000;" parent="uGLxTM2DFbwT5KClBr5C-245" vertex="1">
          <mxGeometry y="60" width="240" height="30" as="geometry" />
        </mxCell>
        <mxCell id="uGLxTM2DFbwT5KClBr5C-248" value="&lt;div style=&quot;text-align: center;&quot;&gt;&lt;span style=&quot;background-color: initial;&quot;&gt;messages: Messages[]&lt;/span&gt;&lt;/div&gt;" style="text;strokeColor=none;fillColor=none;align=left;verticalAlign=middle;spacingLeft=4;spacingRight=4;overflow=hidden;points=[[0,0.5],[1,0.5]];portConstraint=eastwest;rotatable=0;whiteSpace=wrap;html=1;fontSize=20;fontStyle=0;labelBackgroundColor=none;fontColor=#000000;" parent="uGLxTM2DFbwT5KClBr5C-245" vertex="1">
          <mxGeometry y="90" width="240" height="30" as="geometry" />
        </mxCell>
        <mxCell id="uGLxTM2DFbwT5KClBr5C-251" value="" style="endArrow=none;html=1;rounded=0;exitX=-0.004;exitY=0.973;exitDx=0;exitDy=0;entryX=1;entryY=0.5;entryDx=0;entryDy=0;exitPerimeter=0;fontSize=20;fontStyle=0;labelBackgroundColor=none;fontColor=#000000;" parent="1" source="uGLxTM2DFbwT5KClBr5C-247" target="UZzyd5HIegSU0YCeQs_y-49" edge="1">
          <mxGeometry width="50" height="50" relative="1" as="geometry">
            <mxPoint x="-480" y="-690" as="sourcePoint" />
            <mxPoint x="-430" y="-740" as="targetPoint" />
            <Array as="points">
              <mxPoint x="-280" y="-1085" />
              <mxPoint x="-280" y="-815" />
            </Array>
          </mxGeometry>
        </mxCell>
        <mxCell id="uGLxTM2DFbwT5KClBr5C-252" value="LastMessage" style="swimlane;fontStyle=0;childLayout=stackLayout;horizontal=1;startSize=30;horizontalStack=0;resizeParent=1;resizeParentMax=0;resizeLast=0;collapsible=1;marginBottom=0;whiteSpace=wrap;html=1;fontSize=20;labelBackgroundColor=none;fontColor=#000000;" parent="1" vertex="1">
          <mxGeometry x="-530" y="-1020" width="160" height="120" as="geometry" />
        </mxCell>
        <mxCell id="uGLxTM2DFbwT5KClBr5C-253" value="&lt;div style=&quot;text-align: center;&quot;&gt;&lt;span style=&quot;background-color: initial;&quot;&gt;author: String&lt;/span&gt;&lt;/div&gt;" style="text;strokeColor=none;fillColor=none;align=left;verticalAlign=middle;spacingLeft=4;spacingRight=4;overflow=hidden;points=[[0,0.5],[1,0.5]];portConstraint=eastwest;rotatable=0;whiteSpace=wrap;html=1;fontSize=20;fontStyle=0;labelBackgroundColor=none;fontColor=#000000;" parent="uGLxTM2DFbwT5KClBr5C-252" vertex="1">
          <mxGeometry y="30" width="160" height="30" as="geometry" />
        </mxCell>
        <mxCell id="uGLxTM2DFbwT5KClBr5C-254" value="&lt;div style=&quot;text-align: center;&quot;&gt;&lt;span style=&quot;background-color: initial;&quot;&gt;content: String&lt;/span&gt;&lt;/div&gt;" style="text;strokeColor=none;fillColor=none;align=left;verticalAlign=middle;spacingLeft=4;spacingRight=4;overflow=hidden;points=[[0,0.5],[1,0.5]];portConstraint=eastwest;rotatable=0;whiteSpace=wrap;html=1;fontSize=20;fontStyle=0;labelBackgroundColor=none;fontColor=#000000;" parent="uGLxTM2DFbwT5KClBr5C-252" vertex="1">
          <mxGeometry y="60" width="160" height="30" as="geometry" />
        </mxCell>
        <mxCell id="uGLxTM2DFbwT5KClBr5C-256" value="&lt;div style=&quot;text-align: center;&quot;&gt;&lt;span style=&quot;background-color: initial;&quot;&gt;time: Date&lt;/span&gt;&lt;/div&gt;" style="text;strokeColor=none;fillColor=none;align=left;verticalAlign=middle;spacingLeft=4;spacingRight=4;overflow=hidden;points=[[0,0.5],[1,0.5]];portConstraint=eastwest;rotatable=0;whiteSpace=wrap;html=1;fontSize=20;fontStyle=0;labelBackgroundColor=none;fontColor=#000000;" parent="uGLxTM2DFbwT5KClBr5C-252" vertex="1">
          <mxGeometry y="90" width="160" height="30" as="geometry" />
        </mxCell>
        <mxCell id="uGLxTM2DFbwT5KClBr5C-272" style="edgeStyle=orthogonalEdgeStyle;rounded=0;orthogonalLoop=1;jettySize=auto;html=1;entryX=0;entryY=0.5;entryDx=0;entryDy=0;fontSize=20;fontStyle=0;labelBackgroundColor=none;fontColor=#000000;" parent="1" source="uGLxTM2DFbwT5KClBr5C-259" target="uGLxTM2DFbwT5KClBr5C-268" edge="1">
          <mxGeometry relative="1" as="geometry" />
        </mxCell>
        <mxCell id="uGLxTM2DFbwT5KClBr5C-259" value="Messages" style="swimlane;fontStyle=0;childLayout=stackLayout;horizontal=1;startSize=30;horizontalStack=0;resizeParent=1;resizeParentMax=0;resizeLast=0;collapsible=1;marginBottom=0;whiteSpace=wrap;html=1;fontSize=20;labelBackgroundColor=none;fontColor=#000000;" parent="1" vertex="1">
          <mxGeometry x="210" y="-1210" width="167.5" height="180" as="geometry" />
        </mxCell>
        <mxCell id="uGLxTM2DFbwT5KClBr5C-260" value="&lt;div style=&quot;text-align: center;&quot;&gt;&lt;span style=&quot;background-color: initial;&quot;&gt;content: String&lt;/span&gt;&lt;/div&gt;" style="text;strokeColor=none;fillColor=none;align=left;verticalAlign=middle;spacingLeft=4;spacingRight=4;overflow=hidden;points=[[0,0.5],[1,0.5]];portConstraint=eastwest;rotatable=0;whiteSpace=wrap;html=1;fontSize=20;fontStyle=0;labelBackgroundColor=none;fontColor=#000000;" parent="uGLxTM2DFbwT5KClBr5C-259" vertex="1">
          <mxGeometry y="30" width="167.5" height="30" as="geometry" />
        </mxCell>
        <mxCell id="uGLxTM2DFbwT5KClBr5C-261" value="&lt;div style=&quot;text-align: center;&quot;&gt;&lt;span style=&quot;background-color: initial;&quot;&gt;time: Date&lt;/span&gt;&lt;/div&gt;" style="text;strokeColor=none;fillColor=none;align=left;verticalAlign=middle;spacingLeft=4;spacingRight=4;overflow=hidden;points=[[0,0.5],[1,0.5]];portConstraint=eastwest;rotatable=0;whiteSpace=wrap;html=1;fontSize=20;fontStyle=0;labelBackgroundColor=none;fontColor=#000000;" parent="uGLxTM2DFbwT5KClBr5C-259" vertex="1">
          <mxGeometry y="60" width="167.5" height="30" as="geometry" />
        </mxCell>
        <mxCell id="uGLxTM2DFbwT5KClBr5C-262" value="&lt;div style=&quot;text-align: center;&quot;&gt;&lt;span style=&quot;background-color: initial;&quot;&gt;author: String&lt;/span&gt;&lt;/div&gt;" style="text;strokeColor=none;fillColor=none;align=left;verticalAlign=middle;spacingLeft=4;spacingRight=4;overflow=hidden;points=[[0,0.5],[1,0.5]];portConstraint=eastwest;rotatable=0;whiteSpace=wrap;html=1;fontSize=20;fontStyle=0;labelBackgroundColor=none;fontColor=#000000;" parent="uGLxTM2DFbwT5KClBr5C-259" vertex="1">
          <mxGeometry y="90" width="167.5" height="30" as="geometry" />
        </mxCell>
        <mxCell id="uGLxTM2DFbwT5KClBr5C-263" value="&lt;div style=&quot;text-align: center;&quot;&gt;&lt;span style=&quot;background-color: initial;&quot;&gt;type: String&lt;/span&gt;&lt;/div&gt;" style="text;strokeColor=none;fillColor=none;align=left;verticalAlign=middle;spacingLeft=4;spacingRight=4;overflow=hidden;points=[[0,0.5],[1,0.5]];portConstraint=eastwest;rotatable=0;whiteSpace=wrap;html=1;fontSize=20;fontStyle=0;labelBackgroundColor=none;fontColor=#000000;" parent="uGLxTM2DFbwT5KClBr5C-259" vertex="1">
          <mxGeometry y="120" width="167.5" height="30" as="geometry" />
        </mxCell>
        <mxCell id="uGLxTM2DFbwT5KClBr5C-264" value="&lt;div style=&quot;text-align: center;&quot;&gt;&lt;span style=&quot;background-color: initial;&quot;&gt;vital: Vital&lt;/span&gt;&lt;/div&gt;" style="text;strokeColor=none;fillColor=none;align=left;verticalAlign=middle;spacingLeft=4;spacingRight=4;overflow=hidden;points=[[0,0.5],[1,0.5]];portConstraint=eastwest;rotatable=0;whiteSpace=wrap;html=1;fontSize=20;fontStyle=0;labelBackgroundColor=none;fontColor=#000000;" parent="uGLxTM2DFbwT5KClBr5C-259" vertex="1">
          <mxGeometry y="150" width="167.5" height="30" as="geometry" />
        </mxCell>
        <mxCell id="uGLxTM2DFbwT5KClBr5C-265" value="Vital" style="swimlane;fontStyle=0;childLayout=stackLayout;horizontal=1;startSize=30;horizontalStack=0;resizeParent=1;resizeParentMax=0;resizeLast=0;collapsible=1;marginBottom=0;whiteSpace=wrap;html=1;fontSize=20;labelBackgroundColor=none;fontColor=#000000;" parent="1" vertex="1">
          <mxGeometry x="443.5" y="-1210" width="186.5" height="180" as="geometry" />
        </mxCell>
        <mxCell id="uGLxTM2DFbwT5KClBr5C-266" value="heartRate: int" style="text;strokeColor=none;fillColor=none;align=left;verticalAlign=middle;spacingLeft=4;spacingRight=4;overflow=hidden;points=[[0,0.5],[1,0.5]];portConstraint=eastwest;rotatable=0;whiteSpace=wrap;html=1;fontSize=20;fontStyle=0;labelBackgroundColor=none;fontColor=#000000;" parent="uGLxTM2DFbwT5KClBr5C-265" vertex="1">
          <mxGeometry y="30" width="186.5" height="30" as="geometry" />
        </mxCell>
        <mxCell id="uGLxTM2DFbwT5KClBr5C-267" value="bloodPressurse: String" style="text;strokeColor=none;fillColor=none;align=left;verticalAlign=middle;spacingLeft=4;spacingRight=4;overflow=hidden;points=[[0,0.5],[1,0.5]];portConstraint=eastwest;rotatable=0;whiteSpace=wrap;html=1;fontSize=20;fontStyle=0;labelBackgroundColor=none;fontColor=#000000;" parent="uGLxTM2DFbwT5KClBr5C-265" vertex="1">
          <mxGeometry y="60" width="186.5" height="30" as="geometry" />
        </mxCell>
        <mxCell id="uGLxTM2DFbwT5KClBr5C-268" value="temperature: int" style="text;strokeColor=none;fillColor=none;align=left;verticalAlign=middle;spacingLeft=4;spacingRight=4;overflow=hidden;points=[[0,0.5],[1,0.5]];portConstraint=eastwest;rotatable=0;whiteSpace=wrap;html=1;fontSize=20;fontStyle=0;labelBackgroundColor=none;fontColor=#000000;" parent="uGLxTM2DFbwT5KClBr5C-265" vertex="1">
          <mxGeometry y="90" width="186.5" height="30" as="geometry" />
        </mxCell>
        <mxCell id="uGLxTM2DFbwT5KClBr5C-269" value="weight: int" style="text;strokeColor=none;fillColor=none;align=left;verticalAlign=middle;spacingLeft=4;spacingRight=4;overflow=hidden;points=[[0,0.5],[1,0.5]];portConstraint=eastwest;rotatable=0;whiteSpace=wrap;html=1;fontSize=20;fontStyle=0;labelBackgroundColor=none;fontColor=#000000;" parent="uGLxTM2DFbwT5KClBr5C-265" vertex="1">
          <mxGeometry y="120" width="186.5" height="30" as="geometry" />
        </mxCell>
        <mxCell id="uGLxTM2DFbwT5KClBr5C-270" value="height: int" style="text;strokeColor=none;fillColor=none;align=left;verticalAlign=middle;spacingLeft=4;spacingRight=4;overflow=hidden;points=[[0,0.5],[1,0.5]];portConstraint=eastwest;rotatable=0;whiteSpace=wrap;html=1;fontSize=20;fontStyle=0;labelBackgroundColor=none;fontColor=#000000;" parent="uGLxTM2DFbwT5KClBr5C-265" vertex="1">
          <mxGeometry y="150" width="186.5" height="30" as="geometry" />
        </mxCell>
        <mxCell id="uGLxTM2DFbwT5KClBr5C-274" value="" style="endArrow=none;html=1;rounded=0;exitX=0.75;exitY=0;exitDx=0;exitDy=0;entryX=0.25;entryY=0;entryDx=0;entryDy=0;fontSize=20;fontStyle=0;labelBackgroundColor=none;fontColor=#000000;" parent="1" source="UZzyd5HIegSU0YCeQs_y-48" target="XuVh04JDV7u7HP7zkTSy-57" edge="1">
          <mxGeometry width="50" height="50" relative="1" as="geometry">
            <mxPoint x="369.99999999999955" y="-1105" as="sourcePoint" />
            <mxPoint x="410" y="-1220" as="targetPoint" />
            <Array as="points">
              <mxPoint x="-355" y="-1220" />
              <mxPoint x="769" y="-1220" />
            </Array>
          </mxGeometry>
        </mxCell>
        <mxCell id="uGLxTM2DFbwT5KClBr5C-275" value="" style="endArrow=none;html=1;rounded=0;entryX=0;entryY=0.5;entryDx=0;entryDy=0;fontSize=20;fontStyle=0;labelBackgroundColor=none;fontColor=#000000;" parent="1" target="UZzyd5HIegSU0YCeQs_y-53" edge="1">
          <mxGeometry width="50" height="50" relative="1" as="geometry">
            <mxPoint x="-190" y="-50" as="sourcePoint" />
            <mxPoint x="-70" y="-1080" as="targetPoint" />
            <Array as="points">
              <mxPoint x="-190" y="-70" />
              <mxPoint x="-580" y="-70" />
              <mxPoint x="-580" y="-695" />
            </Array>
          </mxGeometry>
        </mxCell>
        <mxCell id="uGLxTM2DFbwT5KClBr5C-276" value="1" style="text;html=1;align=center;verticalAlign=middle;resizable=0;points=[];autosize=1;strokeColor=none;fillColor=none;fontSize=20;fontStyle=0;labelBackgroundColor=none;fontColor=#000000;" parent="1" vertex="1">
          <mxGeometry x="835" y="-515" width="30" height="40" as="geometry" />
        </mxCell>
        <mxCell id="uGLxTM2DFbwT5KClBr5C-277" value="1" style="text;html=1;align=center;verticalAlign=middle;resizable=0;points=[];autosize=1;strokeColor=none;fillColor=none;fontSize=20;fontStyle=0;labelBackgroundColor=none;fontColor=#000000;" parent="1" vertex="1">
          <mxGeometry x="835" y="-445" width="30" height="40" as="geometry" />
        </mxCell>
        <mxCell id="uGLxTM2DFbwT5KClBr5C-278" value="1" style="text;html=1;align=center;verticalAlign=middle;resizable=0;points=[];autosize=1;strokeColor=none;fillColor=none;fontSize=20;fontStyle=0;labelBackgroundColor=none;fontColor=#000000;" parent="1" vertex="1">
          <mxGeometry x="657" y="-185" width="30" height="40" as="geometry" />
        </mxCell>
        <mxCell id="uGLxTM2DFbwT5KClBr5C-279" value="n" style="text;html=1;align=center;verticalAlign=middle;resizable=0;points=[];autosize=1;strokeColor=none;fillColor=none;fontSize=20;fontStyle=0;labelBackgroundColor=none;fontColor=#000000;" parent="1" vertex="1">
          <mxGeometry x="565.75" y="-185" width="30" height="40" as="geometry" />
        </mxCell>
        <mxCell id="uGLxTM2DFbwT5KClBr5C-280" value="n" style="text;html=1;align=center;verticalAlign=middle;resizable=0;points=[];autosize=1;strokeColor=none;fillColor=none;fontSize=20;fontStyle=0;labelBackgroundColor=none;fontColor=#000000;" parent="1" vertex="1">
          <mxGeometry x="270" y="-170" width="30" height="40" as="geometry" />
        </mxCell>
        <mxCell id="uGLxTM2DFbwT5KClBr5C-281" value="1" style="text;html=1;align=center;verticalAlign=middle;resizable=0;points=[];autosize=1;strokeColor=none;fillColor=none;fontSize=20;fontStyle=0;labelBackgroundColor=none;fontColor=#000000;" parent="1" vertex="1">
          <mxGeometry x="-15" y="-45" width="30" height="40" as="geometry" />
        </mxCell>
        <mxCell id="uGLxTM2DFbwT5KClBr5C-282" value="1" style="text;html=1;align=center;verticalAlign=middle;resizable=0;points=[];autosize=1;strokeColor=none;fillColor=none;fontSize=20;fontStyle=0;labelBackgroundColor=none;fontColor=#000000;" parent="1" vertex="1">
          <mxGeometry x="-35" y="-85" width="30" height="40" as="geometry" />
        </mxCell>
        <mxCell id="uGLxTM2DFbwT5KClBr5C-283" value="n" style="text;html=1;align=center;verticalAlign=middle;resizable=0;points=[];autosize=1;strokeColor=none;fillColor=none;fontSize=20;fontStyle=0;labelBackgroundColor=none;fontColor=#000000;" parent="1" vertex="1">
          <mxGeometry x="255" y="-300" width="30" height="40" as="geometry" />
        </mxCell>
        <mxCell id="uGLxTM2DFbwT5KClBr5C-284" value="1" style="text;html=1;align=center;verticalAlign=middle;resizable=0;points=[];autosize=1;strokeColor=none;fillColor=none;fontSize=20;fontStyle=0;labelBackgroundColor=none;fontColor=#000000;" parent="1" vertex="1">
          <mxGeometry x="-80" y="-85" width="30" height="40" as="geometry" />
        </mxCell>
        <mxCell id="uGLxTM2DFbwT5KClBr5C-285" value="n" style="text;html=1;align=center;verticalAlign=middle;resizable=0;points=[];autosize=1;strokeColor=none;fillColor=none;fontSize=20;fontStyle=0;labelBackgroundColor=none;fontColor=#000000;" parent="1" vertex="1">
          <mxGeometry x="-55" y="-315" width="30" height="40" as="geometry" />
        </mxCell>
        <mxCell id="uGLxTM2DFbwT5KClBr5C-286" value="1" style="text;html=1;align=center;verticalAlign=middle;resizable=0;points=[];autosize=1;strokeColor=none;fillColor=none;fontSize=20;fontStyle=0;labelBackgroundColor=none;fontColor=#000000;" parent="1" vertex="1">
          <mxGeometry x="665.5" y="-95" width="30" height="40" as="geometry" />
        </mxCell>
        <mxCell id="uGLxTM2DFbwT5KClBr5C-287" value="n" style="text;html=1;align=center;verticalAlign=middle;resizable=0;points=[];autosize=1;strokeColor=none;fillColor=none;fontSize=20;fontStyle=0;labelBackgroundColor=none;fontColor=#000000;" parent="1" vertex="1">
          <mxGeometry y="145" width="30" height="40" as="geometry" />
        </mxCell>
        <mxCell id="uGLxTM2DFbwT5KClBr5C-288" value="1" style="text;html=1;align=center;verticalAlign=middle;resizable=0;points=[];autosize=1;strokeColor=none;fillColor=none;fontSize=20;fontStyle=0;labelBackgroundColor=none;fontColor=#000000;" parent="1" vertex="1">
          <mxGeometry x="-110" y="5" width="30" height="40" as="geometry" />
        </mxCell>
        <mxCell id="uGLxTM2DFbwT5KClBr5C-289" value="n" style="text;html=1;align=center;verticalAlign=middle;resizable=0;points=[];autosize=1;strokeColor=none;fillColor=none;fontSize=20;fontStyle=0;labelBackgroundColor=none;fontColor=#000000;" parent="1" vertex="1">
          <mxGeometry x="-110" y="65" width="30" height="40" as="geometry" />
        </mxCell>
        <mxCell id="uGLxTM2DFbwT5KClBr5C-290" value="1" style="text;html=1;align=center;verticalAlign=middle;resizable=0;points=[];autosize=1;strokeColor=none;fillColor=none;fontSize=20;fontStyle=0;labelBackgroundColor=none;fontColor=#000000;" parent="1" vertex="1">
          <mxGeometry x="-190" y="5" width="30" height="40" as="geometry" />
        </mxCell>
        <mxCell id="uGLxTM2DFbwT5KClBr5C-291" value="n" style="text;html=1;align=center;verticalAlign=middle;resizable=0;points=[];autosize=1;strokeColor=none;fillColor=none;fontSize=20;fontStyle=0;labelBackgroundColor=none;fontColor=#000000;" parent="1" vertex="1">
          <mxGeometry x="310" y="575" width="30" height="40" as="geometry" />
        </mxCell>
        <mxCell id="uGLxTM2DFbwT5KClBr5C-292" value="1" style="text;html=1;align=center;verticalAlign=middle;resizable=0;points=[];autosize=1;strokeColor=none;fillColor=none;fontSize=20;fontStyle=0;labelBackgroundColor=none;fontColor=#000000;" parent="1" vertex="1">
          <mxGeometry x="-5" y="263" width="30" height="40" as="geometry" />
        </mxCell>
        <mxCell id="uGLxTM2DFbwT5KClBr5C-293" value="1" style="text;html=1;align=center;verticalAlign=middle;resizable=0;points=[];autosize=1;strokeColor=none;fillColor=none;fontSize=20;fontStyle=0;labelBackgroundColor=none;fontColor=#000000;" parent="1" vertex="1">
          <mxGeometry x="50" y="265" width="30" height="40" as="geometry" />
        </mxCell>
        <mxCell id="uGLxTM2DFbwT5KClBr5C-294" value="1" style="text;html=1;align=center;verticalAlign=middle;resizable=0;points=[];autosize=1;strokeColor=none;fillColor=none;fontSize=20;fontStyle=0;labelBackgroundColor=none;fontColor=#000000;" parent="1" vertex="1">
          <mxGeometry x="-5" y="440" width="30" height="40" as="geometry" />
        </mxCell>
        <mxCell id="uGLxTM2DFbwT5KClBr5C-295" value="1" style="text;html=1;align=center;verticalAlign=middle;resizable=0;points=[];autosize=1;strokeColor=none;fillColor=none;fontSize=20;fontStyle=0;labelBackgroundColor=none;fontColor=#000000;" parent="1" vertex="1">
          <mxGeometry x="40" y="465" width="30" height="40" as="geometry" />
        </mxCell>
        <mxCell id="uGLxTM2DFbwT5KClBr5C-296" value="1" style="text;html=1;align=center;verticalAlign=middle;resizable=0;points=[];autosize=1;strokeColor=none;fillColor=none;fontSize=20;fontStyle=0;labelBackgroundColor=none;fontColor=#000000;" parent="1" vertex="1">
          <mxGeometry x="200" y="263" width="30" height="40" as="geometry" />
        </mxCell>
        <mxCell id="uGLxTM2DFbwT5KClBr5C-297" value="1" style="text;html=1;align=center;verticalAlign=middle;resizable=0;points=[];autosize=1;strokeColor=none;fillColor=none;fontSize=20;fontStyle=0;labelBackgroundColor=none;fontColor=#000000;" parent="1" vertex="1">
          <mxGeometry x="240" y="233" width="30" height="40" as="geometry" />
        </mxCell>
        <mxCell id="uGLxTM2DFbwT5KClBr5C-298" value="1" style="text;html=1;align=center;verticalAlign=middle;resizable=0;points=[];autosize=1;strokeColor=none;fillColor=none;fontSize=20;fontStyle=0;labelBackgroundColor=none;fontColor=#000000;" parent="1" vertex="1">
          <mxGeometry x="190" y="445" width="30" height="40" as="geometry" />
        </mxCell>
        <mxCell id="uGLxTM2DFbwT5KClBr5C-299" value="1" style="text;html=1;align=center;verticalAlign=middle;resizable=0;points=[];autosize=1;strokeColor=none;fillColor=none;fontSize=20;fontStyle=0;labelBackgroundColor=none;fontColor=#000000;" parent="1" vertex="1">
          <mxGeometry x="245" y="465" width="30" height="40" as="geometry" />
        </mxCell>
        <mxCell id="uGLxTM2DFbwT5KClBr5C-300" value="1" style="text;html=1;align=center;verticalAlign=middle;resizable=0;points=[];autosize=1;strokeColor=none;fillColor=none;fontSize=20;fontStyle=0;labelBackgroundColor=none;fontColor=#000000;" parent="1" vertex="1">
          <mxGeometry x="658.5" y="-45" width="30" height="40" as="geometry" />
        </mxCell>
        <mxCell id="uGLxTM2DFbwT5KClBr5C-301" value="n" style="text;html=1;align=center;verticalAlign=middle;resizable=0;points=[];autosize=1;strokeColor=none;fillColor=none;fontSize=20;fontStyle=0;labelBackgroundColor=none;fontColor=#000000;" parent="1" vertex="1">
          <mxGeometry x="345.75" y="155" width="30" height="40" as="geometry" />
        </mxCell>
        <mxCell id="uGLxTM2DFbwT5KClBr5C-302" value="1" style="text;html=1;align=center;verticalAlign=middle;resizable=0;points=[];autosize=1;strokeColor=none;fillColor=none;fontSize=20;fontStyle=0;labelBackgroundColor=none;fontColor=#000000;" parent="1" vertex="1">
          <mxGeometry x="-235" y="-15" width="30" height="40" as="geometry" />
        </mxCell>
        <mxCell id="uGLxTM2DFbwT5KClBr5C-303" value="n" style="text;html=1;align=center;verticalAlign=middle;resizable=0;points=[];autosize=1;strokeColor=none;fillColor=none;fontSize=20;fontStyle=0;labelBackgroundColor=none;fontColor=#000000;" parent="1" vertex="1">
          <mxGeometry x="1000" y="545" width="30" height="40" as="geometry" />
        </mxCell>
        <mxCell id="uGLxTM2DFbwT5KClBr5C-304" value="1" style="text;html=1;align=center;verticalAlign=middle;resizable=0;points=[];autosize=1;strokeColor=none;fillColor=none;fontSize=20;fontStyle=0;labelBackgroundColor=none;fontColor=#000000;" parent="1" vertex="1">
          <mxGeometry x="911.5" y="-565" width="30" height="40" as="geometry" />
        </mxCell>
        <mxCell id="uGLxTM2DFbwT5KClBr5C-306" value="n" style="text;html=1;align=center;verticalAlign=middle;resizable=0;points=[];autosize=1;strokeColor=none;fillColor=none;fontSize=20;fontStyle=0;labelBackgroundColor=none;fontColor=#000000;" parent="1" vertex="1">
          <mxGeometry x="1030" y="155" width="30" height="40" as="geometry" />
        </mxCell>
        <mxCell id="uGLxTM2DFbwT5KClBr5C-307" value="1" style="text;html=1;align=center;verticalAlign=middle;resizable=0;points=[];autosize=1;strokeColor=none;fillColor=none;fontSize=20;fontStyle=0;labelBackgroundColor=none;fontColor=#000000;" parent="1" vertex="1">
          <mxGeometry x="385.75" y="-845" width="30" height="40" as="geometry" />
        </mxCell>
        <mxCell id="uGLxTM2DFbwT5KClBr5C-309" value="n" style="text;html=1;align=center;verticalAlign=middle;resizable=0;points=[];autosize=1;strokeColor=none;fillColor=none;fontSize=20;fontStyle=0;labelBackgroundColor=none;fontColor=#000000;" parent="1" vertex="1">
          <mxGeometry x="285" y="-857" width="30" height="40" as="geometry" />
        </mxCell>
        <mxCell id="uGLxTM2DFbwT5KClBr5C-310" value="n" style="text;html=1;align=center;verticalAlign=middle;resizable=0;points=[];autosize=1;strokeColor=none;fillColor=none;fontSize=20;fontStyle=0;labelBackgroundColor=none;fontColor=#000000;" parent="1" vertex="1">
          <mxGeometry x="-310" y="-220" width="30" height="40" as="geometry" />
        </mxCell>
        <mxCell id="uGLxTM2DFbwT5KClBr5C-311" value="1" style="text;html=1;align=center;verticalAlign=middle;resizable=0;points=[];autosize=1;strokeColor=none;fillColor=none;fontSize=20;fontStyle=0;labelBackgroundColor=none;fontColor=#000000;" parent="1" vertex="1">
          <mxGeometry x="-180" y="-85" width="30" height="40" as="geometry" />
        </mxCell>
        <mxCell id="uGLxTM2DFbwT5KClBr5C-312" value="n" style="text;html=1;align=center;verticalAlign=middle;resizable=0;points=[];autosize=1;strokeColor=none;fillColor=none;fontSize=20;fontStyle=0;labelBackgroundColor=none;fontColor=#000000;" parent="1" vertex="1">
          <mxGeometry x="-300" y="-624" width="30" height="40" as="geometry" />
        </mxCell>
        <mxCell id="uGLxTM2DFbwT5KClBr5C-313" value="1" style="text;html=1;align=center;verticalAlign=middle;resizable=0;points=[];autosize=1;strokeColor=none;fillColor=none;fontSize=20;fontStyle=0;labelBackgroundColor=none;fontColor=#000000;" parent="1" vertex="1">
          <mxGeometry x="720" y="-640" width="30" height="40" as="geometry" />
        </mxCell>
        <mxCell id="uGLxTM2DFbwT5KClBr5C-314" value="1" style="text;html=1;align=center;verticalAlign=middle;resizable=0;points=[];autosize=1;strokeColor=none;fillColor=none;fontSize=20;fontStyle=0;labelBackgroundColor=none;fontColor=#000000;" parent="1" vertex="1">
          <mxGeometry x="900" y="-635" width="30" height="40" as="geometry" />
        </mxCell>
        <mxCell id="uGLxTM2DFbwT5KClBr5C-315" value="n" style="text;html=1;align=center;verticalAlign=middle;resizable=0;points=[];autosize=1;strokeColor=none;fillColor=none;fontSize=20;fontStyle=0;labelBackgroundColor=none;fontColor=#000000;" parent="1" vertex="1">
          <mxGeometry x="916.5" y="-695" width="30" height="40" as="geometry" />
        </mxCell>
        <mxCell id="uGLxTM2DFbwT5KClBr5C-316" value="1" style="text;html=1;align=center;verticalAlign=middle;resizable=0;points=[];autosize=1;strokeColor=none;fillColor=none;fontSize=20;fontStyle=0;labelBackgroundColor=none;fontColor=#000000;" parent="1" vertex="1">
          <mxGeometry x="827" y="-635" width="30" height="40" as="geometry" />
        </mxCell>
        <mxCell id="uGLxTM2DFbwT5KClBr5C-317" value="n" style="text;html=1;align=center;verticalAlign=middle;resizable=0;points=[];autosize=1;strokeColor=none;fillColor=none;fontSize=20;fontStyle=0;labelBackgroundColor=none;fontColor=#000000;" parent="1" vertex="1">
          <mxGeometry x="-580" y="-745" width="30" height="40" as="geometry" />
        </mxCell>
        <mxCell id="uGLxTM2DFbwT5KClBr5C-318" value="n" style="text;html=1;align=center;verticalAlign=middle;resizable=0;points=[];autosize=1;strokeColor=none;fillColor=none;fontSize=20;fontStyle=0;labelBackgroundColor=none;fontColor=#000000;" parent="1" vertex="1">
          <mxGeometry x="-360" y="-895" width="30" height="40" as="geometry" />
        </mxCell>
        <mxCell id="uGLxTM2DFbwT5KClBr5C-319" value="1" style="text;html=1;align=center;verticalAlign=middle;resizable=0;points=[];autosize=1;strokeColor=none;fillColor=none;fontSize=20;fontStyle=0;labelBackgroundColor=none;fontColor=#000000;" parent="1" vertex="1">
          <mxGeometry x="-210" y="-105" width="30" height="40" as="geometry" />
        </mxCell>
        <mxCell id="uGLxTM2DFbwT5KClBr5C-320" value="1" style="text;html=1;align=center;verticalAlign=middle;resizable=0;points=[];autosize=1;strokeColor=none;fillColor=none;fontSize=20;fontStyle=0;labelBackgroundColor=none;fontColor=#000000;" parent="1" vertex="1">
          <mxGeometry x="-125" y="-1080" width="30" height="40" as="geometry" />
        </mxCell>
        <mxCell id="uGLxTM2DFbwT5KClBr5C-321" value="1" style="text;html=1;align=center;verticalAlign=middle;resizable=0;points=[];autosize=1;strokeColor=none;fillColor=none;fontSize=20;fontStyle=0;labelBackgroundColor=none;fontColor=#000000;" parent="1" vertex="1">
          <mxGeometry x="-290" y="-805" width="30" height="40" as="geometry" />
        </mxCell>
        <mxCell id="QI6ut0HfYX7xVNO9mwKY-11" value="Payment" style="swimlane;fontStyle=0;childLayout=stackLayout;horizontal=1;startSize=30;horizontalStack=0;resizeParent=1;resizeParentMax=0;resizeLast=0;collapsible=1;marginBottom=0;whiteSpace=wrap;html=1;fontSize=20;labelBackgroundColor=none;fontColor=#000000;" parent="1" vertex="1">
          <mxGeometry x="210" y="-1440" width="240" height="180" as="geometry" />
        </mxCell>
        <mxCell id="QI6ut0HfYX7xVNO9mwKY-12" value="&lt;span style=&quot;text-align: center;&quot;&gt;_id&lt;/span&gt;&lt;span style=&quot;text-align: center;&quot;&gt;: ObjectId&lt;/span&gt;" style="text;strokeColor=none;fillColor=none;align=left;verticalAlign=middle;spacingLeft=4;spacingRight=4;overflow=hidden;points=[[0,0.5],[1,0.5]];portConstraint=eastwest;rotatable=0;whiteSpace=wrap;html=1;fontSize=20;fontStyle=0;labelBackgroundColor=none;fontColor=#000000;" parent="QI6ut0HfYX7xVNO9mwKY-11" vertex="1">
          <mxGeometry y="30" width="240" height="30" as="geometry" />
        </mxCell>
        <mxCell id="QI6ut0HfYX7xVNO9mwKY-16" value="&lt;div style=&quot;text-align: center;&quot;&gt;&lt;span style=&quot;background-color: initial;&quot;&gt;namePayment:&amp;nbsp;&lt;/span&gt;&lt;span style=&quot;background-color: initial;&quot;&gt;String&lt;/span&gt;&lt;/div&gt;" style="text;strokeColor=none;fillColor=none;align=left;verticalAlign=middle;spacingLeft=4;spacingRight=4;overflow=hidden;points=[[0,0.5],[1,0.5]];portConstraint=eastwest;rotatable=0;whiteSpace=wrap;html=1;fontSize=20;fontStyle=0;labelBackgroundColor=none;fontColor=#000000;" parent="QI6ut0HfYX7xVNO9mwKY-11" vertex="1">
          <mxGeometry y="60" width="240" height="30" as="geometry" />
        </mxCell>
        <mxCell id="QI6ut0HfYX7xVNO9mwKY-19" value="&lt;div style=&quot;text-align: center;&quot;&gt;&lt;span style=&quot;background-color: initial;&quot;&gt;beneficiaryAccount:&amp;nbsp;&lt;/span&gt;&lt;span style=&quot;background-color: initial;&quot;&gt;Bank&lt;/span&gt;&lt;/div&gt;" style="text;strokeColor=none;fillColor=none;align=left;verticalAlign=middle;spacingLeft=4;spacingRight=4;overflow=hidden;points=[[0,0.5],[1,0.5]];portConstraint=eastwest;rotatable=0;whiteSpace=wrap;html=1;fontSize=20;fontStyle=0;labelBackgroundColor=none;fontColor=#000000;" parent="QI6ut0HfYX7xVNO9mwKY-11" vertex="1">
          <mxGeometry y="90" width="240" height="30" as="geometry" />
        </mxCell>
        <mxCell id="QI6ut0HfYX7xVNO9mwKY-22" value="&lt;div style=&quot;text-align: center;&quot;&gt;&lt;span style=&quot;background-color: initial;&quot;&gt;price: int&lt;/span&gt;&lt;/div&gt;" style="text;strokeColor=none;fillColor=none;align=left;verticalAlign=middle;spacingLeft=4;spacingRight=4;overflow=hidden;points=[[0,0.5],[1,0.5]];portConstraint=eastwest;rotatable=0;whiteSpace=wrap;html=1;fontSize=20;fontStyle=0;labelBackgroundColor=none;fontColor=#000000;" parent="QI6ut0HfYX7xVNO9mwKY-11" vertex="1">
          <mxGeometry y="120" width="240" height="30" as="geometry" />
        </mxCell>
        <mxCell id="QI6ut0HfYX7xVNO9mwKY-40" value="&lt;div style=&quot;text-align: center;&quot;&gt;&lt;span style=&quot;background-color: initial;&quot;&gt;category:&amp;nbsp;&lt;/span&gt;&lt;span style=&quot;background-color: initial;&quot;&gt;ObjectId&lt;/span&gt;&lt;/div&gt;" style="text;strokeColor=none;fillColor=none;align=left;verticalAlign=middle;spacingLeft=4;spacingRight=4;overflow=hidden;points=[[0,0.5],[1,0.5]];portConstraint=eastwest;rotatable=0;whiteSpace=wrap;html=1;fontSize=20;fontStyle=0;labelBackgroundColor=none;fontColor=#000000;" parent="QI6ut0HfYX7xVNO9mwKY-11" vertex="1">
          <mxGeometry y="150" width="240" height="30" as="geometry" />
        </mxCell>
        <mxCell id="QI6ut0HfYX7xVNO9mwKY-41" style="edgeStyle=orthogonalEdgeStyle;rounded=0;orthogonalLoop=1;jettySize=auto;html=1;entryX=0;entryY=0.5;entryDx=0;entryDy=0;fontSize=20;fontStyle=0;labelBackgroundColor=none;fontColor=#000000;" parent="1" source="QI6ut0HfYX7xVNO9mwKY-24" target="QI6ut0HfYX7xVNO9mwKY-19" edge="1">
          <mxGeometry relative="1" as="geometry" />
        </mxCell>
        <mxCell id="QI6ut0HfYX7xVNO9mwKY-24" value="PaymentForPatient" style="swimlane;fontStyle=0;childLayout=stackLayout;horizontal=1;startSize=30;horizontalStack=0;resizeParent=1;resizeParentMax=0;resizeLast=0;collapsible=1;marginBottom=0;whiteSpace=wrap;html=1;fontSize=20;labelBackgroundColor=none;fontColor=#000000;" parent="1" vertex="1">
          <mxGeometry x="-190" y="-1410" width="310" height="150" as="geometry" />
        </mxCell>
        <mxCell id="QI6ut0HfYX7xVNO9mwKY-25" value="&lt;span style=&quot;text-align: center;&quot;&gt;patient_id: ObjectId&lt;/span&gt;" style="text;strokeColor=none;fillColor=none;align=left;verticalAlign=middle;spacingLeft=4;spacingRight=4;overflow=hidden;points=[[0,0.5],[1,0.5]];portConstraint=eastwest;rotatable=0;whiteSpace=wrap;html=1;fontSize=20;fontStyle=0;labelBackgroundColor=none;fontColor=#000000;" parent="QI6ut0HfYX7xVNO9mwKY-24" vertex="1">
          <mxGeometry y="30" width="310" height="30" as="geometry" />
        </mxCell>
        <mxCell id="QI6ut0HfYX7xVNO9mwKY-26" value="&lt;span style=&quot;text-align: center; background-color: initial;&quot;&gt;date:&amp;nbsp;&lt;/span&gt;&lt;span style=&quot;text-align: center; background-color: initial;&quot;&gt;Date&lt;/span&gt;" style="text;strokeColor=none;fillColor=none;align=left;verticalAlign=middle;spacingLeft=4;spacingRight=4;overflow=hidden;points=[[0,0.5],[1,0.5]];portConstraint=eastwest;rotatable=0;whiteSpace=wrap;html=1;fontSize=20;fontStyle=0;labelBackgroundColor=none;fontColor=#000000;" parent="QI6ut0HfYX7xVNO9mwKY-24" vertex="1">
          <mxGeometry y="60" width="310" height="30" as="geometry" />
        </mxCell>
        <mxCell id="QI6ut0HfYX7xVNO9mwKY-30" value="&lt;span style=&quot;text-align: center; background-color: initial;&quot;&gt;status_payment:&amp;nbsp;&lt;/span&gt;&lt;span style=&quot;text-align: center; background-color: initial;&quot;&gt;StatusPayment&lt;/span&gt;" style="text;strokeColor=none;fillColor=none;align=left;verticalAlign=middle;spacingLeft=4;spacingRight=4;overflow=hidden;points=[[0,0.5],[1,0.5]];portConstraint=eastwest;rotatable=0;whiteSpace=wrap;html=1;fontSize=20;fontStyle=0;labelBackgroundColor=none;fontColor=#000000;" parent="QI6ut0HfYX7xVNO9mwKY-24" vertex="1">
          <mxGeometry y="90" width="310" height="30" as="geometry" />
        </mxCell>
        <mxCell id="QI6ut0HfYX7xVNO9mwKY-38" value="&lt;span style=&quot;text-align: center;&quot;&gt;description: String&lt;/span&gt;" style="text;strokeColor=none;fillColor=none;align=left;verticalAlign=middle;spacingLeft=4;spacingRight=4;overflow=hidden;points=[[0,0.5],[1,0.5]];portConstraint=eastwest;rotatable=0;whiteSpace=wrap;html=1;fontSize=20;fontStyle=0;labelBackgroundColor=none;fontColor=#000000;" parent="QI6ut0HfYX7xVNO9mwKY-24" vertex="1">
          <mxGeometry y="120" width="310" height="30" as="geometry" />
        </mxCell>
        <mxCell id="QI6ut0HfYX7xVNO9mwKY-43" style="edgeStyle=orthogonalEdgeStyle;rounded=0;orthogonalLoop=1;jettySize=auto;html=1;entryX=1;entryY=0.5;entryDx=0;entryDy=0;fontSize=20;fontStyle=0;labelBackgroundColor=none;fontColor=#000000;" parent="1" source="QI6ut0HfYX7xVNO9mwKY-32" target="QI6ut0HfYX7xVNO9mwKY-19" edge="1">
          <mxGeometry relative="1" as="geometry" />
        </mxCell>
        <mxCell id="QI6ut0HfYX7xVNO9mwKY-32" value="PaymentForDoctor" style="swimlane;fontStyle=0;childLayout=stackLayout;horizontal=1;startSize=30;horizontalStack=0;resizeParent=1;resizeParentMax=0;resizeLast=0;collapsible=1;marginBottom=0;whiteSpace=wrap;html=1;fontSize=20;labelBackgroundColor=none;fontColor=#000000;" parent="1" vertex="1">
          <mxGeometry x="500" y="-1410" width="335" height="150" as="geometry" />
        </mxCell>
        <mxCell id="QI6ut0HfYX7xVNO9mwKY-34" value="&lt;span style=&quot;text-align: center; background-color: initial;&quot;&gt;dateTake:&amp;nbsp;&lt;/span&gt;&lt;span style=&quot;text-align: center; background-color: initial;&quot;&gt;Date&lt;/span&gt;" style="text;strokeColor=none;fillColor=none;align=left;verticalAlign=middle;spacingLeft=4;spacingRight=4;overflow=hidden;points=[[0,0.5],[1,0.5]];portConstraint=eastwest;rotatable=0;whiteSpace=wrap;html=1;fontSize=20;fontStyle=0;labelBackgroundColor=none;fontColor=#000000;" parent="QI6ut0HfYX7xVNO9mwKY-32" vertex="1">
          <mxGeometry y="30" width="335" height="30" as="geometry" />
        </mxCell>
        <mxCell id="QI6ut0HfYX7xVNO9mwKY-36" value="&lt;span style=&quot;text-align: center; background-color: initial;&quot;&gt;status_take_money:&amp;nbsp;&lt;/span&gt;&lt;span style=&quot;text-align: center; background-color: initial;&quot;&gt;StatusPayment&lt;/span&gt;" style="text;strokeColor=none;fillColor=none;align=left;verticalAlign=middle;spacingLeft=4;spacingRight=4;overflow=hidden;points=[[0,0.5],[1,0.5]];portConstraint=eastwest;rotatable=0;whiteSpace=wrap;html=1;fontSize=20;fontStyle=0;labelBackgroundColor=none;fontColor=#000000;" parent="QI6ut0HfYX7xVNO9mwKY-32" vertex="1">
          <mxGeometry y="60" width="335" height="30" as="geometry" />
        </mxCell>
        <mxCell id="QI6ut0HfYX7xVNO9mwKY-37" value="&lt;span style=&quot;text-align: center; background-color: initial;&quot;&gt;doctor_id:&amp;nbsp;&lt;/span&gt;&lt;span style=&quot;text-align: center; background-color: initial;&quot;&gt;ObjectId&lt;/span&gt;" style="text;strokeColor=none;fillColor=none;align=left;verticalAlign=middle;spacingLeft=4;spacingRight=4;overflow=hidden;points=[[0,0.5],[1,0.5]];portConstraint=eastwest;rotatable=0;whiteSpace=wrap;html=1;fontSize=20;fontStyle=0;labelBackgroundColor=none;fontColor=#000000;" parent="QI6ut0HfYX7xVNO9mwKY-32" vertex="1">
          <mxGeometry y="90" width="335" height="30" as="geometry" />
        </mxCell>
        <mxCell id="QI6ut0HfYX7xVNO9mwKY-39" value="&lt;span style=&quot;text-align: center;&quot;&gt;descriptionTake: String&lt;/span&gt;" style="text;strokeColor=none;fillColor=none;align=left;verticalAlign=middle;spacingLeft=4;spacingRight=4;overflow=hidden;points=[[0,0.5],[1,0.5]];portConstraint=eastwest;rotatable=0;whiteSpace=wrap;html=1;fontSize=20;fontStyle=0;labelBackgroundColor=none;fontColor=#000000;" parent="QI6ut0HfYX7xVNO9mwKY-32" vertex="1">
          <mxGeometry y="120" width="335" height="30" as="geometry" />
        </mxCell>
        <mxCell id="QI6ut0HfYX7xVNO9mwKY-44" value="" style="endArrow=none;html=1;rounded=0;entryX=0;entryY=0.5;entryDx=0;entryDy=0;exitX=0;exitY=0.25;exitDx=0;exitDy=0;fontSize=20;fontStyle=0;labelBackgroundColor=none;fontColor=#000000;" parent="1" source="UZzyd5HIegSU0YCeQs_y-80" target="QI6ut0HfYX7xVNO9mwKY-30" edge="1">
          <mxGeometry width="50" height="50" relative="1" as="geometry">
            <mxPoint x="-40" y="-1130" as="sourcePoint" />
            <mxPoint x="10" y="-1180" as="targetPoint" />
            <Array as="points">
              <mxPoint x="-600" y="-35" />
              <mxPoint x="-600" y="-1305" />
            </Array>
          </mxGeometry>
        </mxCell>
        <mxCell id="QI6ut0HfYX7xVNO9mwKY-45" value="n" style="text;html=1;align=center;verticalAlign=middle;resizable=0;points=[];autosize=1;strokeColor=none;fillColor=none;fontSize=20;fontStyle=0;labelBackgroundColor=none;fontColor=#000000;" parent="1" vertex="1">
          <mxGeometry x="-220" y="-1305" width="30" height="40" as="geometry" />
        </mxCell>
        <mxCell id="QI6ut0HfYX7xVNO9mwKY-47" value="1" style="text;html=1;align=center;verticalAlign=middle;resizable=0;points=[];autosize=1;strokeColor=none;fillColor=none;fontSize=20;fontStyle=0;labelBackgroundColor=none;fontColor=#000000;" parent="1" vertex="1">
          <mxGeometry x="-235" y="-65" width="30" height="40" as="geometry" />
        </mxCell>
        <mxCell id="QI6ut0HfYX7xVNO9mwKY-49" value="n" style="text;html=1;align=center;verticalAlign=middle;resizable=0;points=[];autosize=1;strokeColor=none;fillColor=none;fontSize=20;fontStyle=0;labelBackgroundColor=none;fontColor=#000000;" parent="1" vertex="1">
          <mxGeometry x="865" y="-1275" width="30" height="40" as="geometry" />
        </mxCell>
        <mxCell id="QI6ut0HfYX7xVNO9mwKY-50" value="1" style="text;html=1;align=center;verticalAlign=middle;resizable=0;points=[];autosize=1;strokeColor=none;fillColor=none;fontSize=20;fontStyle=0;labelBackgroundColor=none;fontColor=#000000;" parent="1" vertex="1">
          <mxGeometry x="770" y="-650" width="30" height="40" as="geometry" />
        </mxCell>
        <mxCell id="K-hoV5M5BKxwaFi9iEAO-5" style="edgeStyle=orthogonalEdgeStyle;rounded=0;orthogonalLoop=1;jettySize=auto;html=1;entryX=0.75;entryY=0;entryDx=0;entryDy=0;fontSize=20;fontStyle=0;labelBackgroundColor=none;fontColor=#000000;" parent="1" source="K-hoV5M5BKxwaFi9iEAO-1" target="XuVh04JDV7u7HP7zkTSy-22" edge="1">
          <mxGeometry relative="1" as="geometry">
            <Array as="points">
              <mxPoint x="920" y="-980" />
              <mxPoint x="558" y="-980" />
            </Array>
          </mxGeometry>
        </mxCell>
        <mxCell id="K-hoV5M5BKxwaFi9iEAO-1" value="Admin" style="swimlane;fontStyle=0;childLayout=stackLayout;horizontal=1;startSize=30;horizontalStack=0;resizeParent=1;resizeParentMax=0;resizeLast=0;collapsible=1;marginBottom=0;whiteSpace=wrap;html=1;fontSize=20;labelBackgroundColor=none;fontColor=#000000;" parent="1" vertex="1">
          <mxGeometry x="911.5" y="-970" width="160" height="60" as="geometry" />
        </mxCell>
        <mxCell id="K-hoV5M5BKxwaFi9iEAO-6" value="Payback" style="swimlane;fontStyle=0;childLayout=stackLayout;horizontal=1;startSize=30;horizontalStack=0;resizeParent=1;resizeParentMax=0;resizeLast=0;collapsible=1;marginBottom=0;whiteSpace=wrap;html=1;fontSize=20;labelBackgroundColor=none;fontColor=#000000;" parent="1" vertex="1">
          <mxGeometry x="920" y="-1280" width="210" height="240" as="geometry" />
        </mxCell>
        <mxCell id="K-hoV5M5BKxwaFi9iEAO-12" value="&lt;span style=&quot;text-align: center;&quot;&gt;_id&lt;/span&gt;&lt;span style=&quot;text-align: center;&quot;&gt;: ObjectId&lt;/span&gt;" style="text;strokeColor=none;fillColor=none;align=left;verticalAlign=middle;spacingLeft=4;spacingRight=4;overflow=hidden;points=[[0,0.5],[1,0.5]];portConstraint=eastwest;rotatable=0;whiteSpace=wrap;html=1;fontSize=20;fontStyle=0;labelBackgroundColor=none;fontColor=#000000;" parent="K-hoV5M5BKxwaFi9iEAO-6" vertex="1">
          <mxGeometry y="30" width="210" height="30" as="geometry" />
        </mxCell>
        <mxCell id="K-hoV5M5BKxwaFi9iEAO-7" value="&lt;span style=&quot;text-align: center;&quot;&gt;price&lt;/span&gt;&lt;span style=&quot;text-align: center;&quot;&gt;: Number&lt;/span&gt;" style="text;strokeColor=none;fillColor=none;align=left;verticalAlign=middle;spacingLeft=4;spacingRight=4;overflow=hidden;points=[[0,0.5],[1,0.5]];portConstraint=eastwest;rotatable=0;whiteSpace=wrap;html=1;fontSize=20;fontStyle=0;labelBackgroundColor=none;fontColor=#000000;" parent="K-hoV5M5BKxwaFi9iEAO-6" vertex="1">
          <mxGeometry y="60" width="210" height="30" as="geometry" />
        </mxCell>
        <mxCell id="K-hoV5M5BKxwaFi9iEAO-9" value="&lt;span style=&quot;text-align: center; background-color: initial;&quot;&gt;doctor_id:&amp;nbsp;&lt;/span&gt;&lt;span style=&quot;text-align: center; background-color: initial;&quot;&gt;ObjectId&lt;/span&gt;" style="text;strokeColor=none;fillColor=none;align=left;verticalAlign=middle;spacingLeft=4;spacingRight=4;overflow=hidden;points=[[0,0.5],[1,0.5]];portConstraint=eastwest;rotatable=0;whiteSpace=wrap;html=1;fontSize=20;fontStyle=0;labelBackgroundColor=none;fontColor=#000000;" parent="K-hoV5M5BKxwaFi9iEAO-6" vertex="1">
          <mxGeometry y="90" width="210" height="30" as="geometry" />
        </mxCell>
        <mxCell id="K-hoV5M5BKxwaFi9iEAO-10" value="&lt;span style=&quot;text-align: center;&quot;&gt;reason: String&lt;/span&gt;" style="text;strokeColor=none;fillColor=none;align=left;verticalAlign=middle;spacingLeft=4;spacingRight=4;overflow=hidden;points=[[0,0.5],[1,0.5]];portConstraint=eastwest;rotatable=0;whiteSpace=wrap;html=1;fontSize=20;fontStyle=0;labelBackgroundColor=none;fontColor=#000000;" parent="K-hoV5M5BKxwaFi9iEAO-6" vertex="1">
          <mxGeometry y="120" width="210" height="30" as="geometry" />
        </mxCell>
        <mxCell id="K-hoV5M5BKxwaFi9iEAO-11" value="&lt;span style=&quot;text-align: center; background-color: initial;&quot;&gt;type: String&lt;/span&gt;" style="text;strokeColor=none;fillColor=none;align=left;verticalAlign=middle;spacingLeft=4;spacingRight=4;overflow=hidden;points=[[0,0.5],[1,0.5]];portConstraint=eastwest;rotatable=0;whiteSpace=wrap;html=1;fontSize=20;fontStyle=0;labelBackgroundColor=none;fontColor=#000000;" parent="K-hoV5M5BKxwaFi9iEAO-6" vertex="1">
          <mxGeometry y="150" width="210" height="30" as="geometry" />
        </mxCell>
        <mxCell id="K-hoV5M5BKxwaFi9iEAO-13" value="&lt;span style=&quot;text-align: center; background-color: initial;&quot;&gt;date: String&lt;/span&gt;" style="text;strokeColor=none;fillColor=none;align=left;verticalAlign=middle;spacingLeft=4;spacingRight=4;overflow=hidden;points=[[0,0.5],[1,0.5]];portConstraint=eastwest;rotatable=0;whiteSpace=wrap;html=1;fontSize=20;fontStyle=0;labelBackgroundColor=none;fontColor=#000000;" parent="K-hoV5M5BKxwaFi9iEAO-6" vertex="1">
          <mxGeometry y="180" width="210" height="30" as="geometry" />
        </mxCell>
        <mxCell id="K-hoV5M5BKxwaFi9iEAO-14" value="&lt;span style=&quot;text-align: center;&quot;&gt;service_id&lt;/span&gt;&lt;span style=&quot;text-align: center;&quot;&gt;:&amp;nbsp;&lt;/span&gt;&lt;span style=&quot;text-align: center;&quot;&gt;ObjectId&lt;/span&gt;" style="text;strokeColor=none;fillColor=none;align=left;verticalAlign=middle;spacingLeft=4;spacingRight=4;overflow=hidden;points=[[0,0.5],[1,0.5]];portConstraint=eastwest;rotatable=0;whiteSpace=wrap;html=1;fontSize=20;fontStyle=0;labelBackgroundColor=none;fontColor=#000000;" parent="K-hoV5M5BKxwaFi9iEAO-6" vertex="1">
          <mxGeometry y="210" width="210" height="30" as="geometry" />
        </mxCell>
        <mxCell id="K-hoV5M5BKxwaFi9iEAO-15" value="" style="endArrow=none;html=1;rounded=0;exitX=0.75;exitY=0;exitDx=0;exitDy=0;entryX=0.538;entryY=1.067;entryDx=0;entryDy=0;entryPerimeter=0;fontSize=20;fontStyle=0;labelBackgroundColor=none;fontColor=#000000;" parent="1" source="K-hoV5M5BKxwaFi9iEAO-1" target="K-hoV5M5BKxwaFi9iEAO-14" edge="1">
          <mxGeometry width="50" height="50" relative="1" as="geometry">
            <mxPoint x="740" y="-1350" as="sourcePoint" />
            <mxPoint x="1110" y="-1020" as="targetPoint" />
            <Array as="points">
              <mxPoint x="1032" y="-1000" />
            </Array>
          </mxGeometry>
        </mxCell>
        <mxCell id="K-hoV5M5BKxwaFi9iEAO-16" value="n" style="text;html=1;align=center;verticalAlign=middle;resizable=0;points=[];autosize=1;strokeColor=none;fillColor=none;fontSize=20;fontStyle=0;labelBackgroundColor=none;fontColor=#000000;" parent="1" vertex="1">
          <mxGeometry x="1030" y="-1045" width="30" height="40" as="geometry" />
        </mxCell>
        <mxCell id="K-hoV5M5BKxwaFi9iEAO-17" value="1" style="text;html=1;align=center;verticalAlign=middle;resizable=0;points=[];autosize=1;strokeColor=none;fillColor=none;fontSize=20;fontStyle=0;labelBackgroundColor=none;fontColor=#000000;" parent="1" vertex="1">
          <mxGeometry x="1010" y="-1005" width="30" height="40" as="geometry" />
        </mxCell>
        <mxCell id="K-hoV5M5BKxwaFi9iEAO-19" value="1" style="text;html=1;align=center;verticalAlign=middle;resizable=0;points=[];autosize=1;strokeColor=none;fillColor=none;fontSize=20;fontStyle=0;labelBackgroundColor=none;fontColor=#000000;" parent="1" vertex="1">
          <mxGeometry x="960" y="-1315" width="30" height="40" as="geometry" />
        </mxCell>
        <mxCell id="K-hoV5M5BKxwaFi9iEAO-20" value="n" style="text;html=1;align=center;verticalAlign=middle;resizable=0;points=[];autosize=1;strokeColor=none;fillColor=none;fontSize=20;fontStyle=0;labelBackgroundColor=none;fontColor=#000000;" parent="1" vertex="1">
          <mxGeometry x="840" y="-1345" width="30" height="40" as="geometry" />
        </mxCell>
        <mxCell id="K-hoV5M5BKxwaFi9iEAO-24" value="" style="endArrow=none;html=1;rounded=0;exitX=0.446;exitY=0.003;exitDx=0;exitDy=0;exitPerimeter=0;fontSize=20;fontStyle=0;labelBackgroundColor=none;fontColor=#000000;entryX=0.222;entryY=0.993;entryDx=0;entryDy=0;entryPerimeter=0;" parent="1" source="UZzyd5HIegSU0YCeQs_y-80" target="QI6ut0HfYX7xVNO9mwKY-38" edge="1">
          <mxGeometry width="50" height="50" relative="1" as="geometry">
            <mxPoint x="-120" y="-100" as="sourcePoint" />
            <mxPoint x="-340" y="-1390" as="targetPoint" />
          </mxGeometry>
        </mxCell>
        <mxCell id="K-hoV5M5BKxwaFi9iEAO-25" value="1" style="text;html=1;align=center;verticalAlign=middle;resizable=0;points=[];autosize=1;strokeColor=none;fillColor=none;fontSize=20;fontStyle=0;labelBackgroundColor=none;fontColor=#000000;" parent="1" vertex="1">
          <mxGeometry x="-125" y="-85" width="30" height="40" as="geometry" />
        </mxCell>
        <mxCell id="K-hoV5M5BKxwaFi9iEAO-26" value="n" style="text;html=1;align=center;verticalAlign=middle;resizable=0;points=[];autosize=1;strokeColor=none;fillColor=none;fontSize=20;fontStyle=0;labelBackgroundColor=none;fontColor=#000000;" parent="1" vertex="1">
          <mxGeometry x="-100" y="-1275" width="30" height="40" as="geometry" />
        </mxCell>
        <mxCell id="K-hoV5M5BKxwaFi9iEAO-28" value="Bank" style="swimlane;fontStyle=0;childLayout=stackLayout;horizontal=1;startSize=30;horizontalStack=0;resizeParent=1;resizeParentMax=0;resizeLast=0;collapsible=1;marginBottom=0;whiteSpace=wrap;html=1;fontSize=20;labelBackgroundColor=none;fontColor=#000000;" parent="1" vertex="1">
          <mxGeometry x="1300" y="-1280" width="209" height="120" as="geometry" />
        </mxCell>
        <mxCell id="K-hoV5M5BKxwaFi9iEAO-29" value="accountNumber: String" style="text;strokeColor=none;fillColor=none;align=left;verticalAlign=middle;spacingLeft=4;spacingRight=4;overflow=hidden;points=[[0,0.5],[1,0.5]];portConstraint=eastwest;rotatable=0;whiteSpace=wrap;html=1;fontSize=20;fontStyle=0;labelBackgroundColor=none;fontColor=#000000;" parent="K-hoV5M5BKxwaFi9iEAO-28" vertex="1">
          <mxGeometry y="30" width="209" height="30" as="geometry" />
        </mxCell>
        <mxCell id="K-hoV5M5BKxwaFi9iEAO-30" value="bankName: String" style="text;strokeColor=none;fillColor=none;align=left;verticalAlign=middle;spacingLeft=4;spacingRight=4;overflow=hidden;points=[[0,0.5],[1,0.5]];portConstraint=eastwest;rotatable=0;whiteSpace=wrap;html=1;fontSize=20;fontStyle=0;labelBackgroundColor=none;fontColor=#000000;" parent="K-hoV5M5BKxwaFi9iEAO-28" vertex="1">
          <mxGeometry y="60" width="209" height="30" as="geometry" />
        </mxCell>
        <mxCell id="K-hoV5M5BKxwaFi9iEAO-31" value="accountName: String" style="text;strokeColor=none;fillColor=none;align=left;verticalAlign=middle;spacingLeft=4;spacingRight=4;overflow=hidden;points=[[0,0.5],[1,0.5]];portConstraint=eastwest;rotatable=0;whiteSpace=wrap;html=1;fontSize=20;fontStyle=0;labelBackgroundColor=none;fontColor=#000000;" parent="K-hoV5M5BKxwaFi9iEAO-28" vertex="1">
          <mxGeometry y="90" width="209" height="30" as="geometry" />
        </mxCell>
        <mxCell id="K-hoV5M5BKxwaFi9iEAO-32" value="" style="endArrow=none;html=1;rounded=0;exitX=1;exitY=0.5;exitDx=0;exitDy=0;entryX=0.25;entryY=0;entryDx=0;entryDy=0;fontSize=20;fontStyle=0;labelBackgroundColor=none;fontColor=#000000;" parent="1" source="QI6ut0HfYX7xVNO9mwKY-36" target="K-hoV5M5BKxwaFi9iEAO-6" edge="1">
          <mxGeometry width="50" height="50" relative="1" as="geometry">
            <mxPoint x="840" y="-1170" as="sourcePoint" />
            <mxPoint x="890" y="-1220" as="targetPoint" />
            <Array as="points">
              <mxPoint x="972" y="-1335" />
            </Array>
          </mxGeometry>
        </mxCell>
        <mxCell id="K-hoV5M5BKxwaFi9iEAO-33" value="" style="endArrow=none;html=1;rounded=0;entryX=1;entryY=0.5;entryDx=0;entryDy=0;fontSize=20;fontStyle=0;labelBackgroundColor=none;fontColor=#000000;" parent="1" target="QI6ut0HfYX7xVNO9mwKY-39" edge="1">
          <mxGeometry width="50" height="50" relative="1" as="geometry">
            <mxPoint x="867" y="-600" as="sourcePoint" />
            <mxPoint x="890" y="-1100" as="targetPoint" />
            <Array as="points">
              <mxPoint x="867" y="-1275" />
            </Array>
          </mxGeometry>
        </mxCell>
        <mxCell id="K-hoV5M5BKxwaFi9iEAO-34" value="" style="endArrow=none;html=1;rounded=0;exitX=0.641;exitY=1.057;exitDx=0;exitDy=0;exitPerimeter=0;entryX=1;entryY=0.5;entryDx=0;entryDy=0;fontSize=20;fontStyle=0;labelBackgroundColor=none;fontColor=#000000;" parent="1" source="DxQ8z24LICRfDCV-2qwh-55" target="K-hoV5M5BKxwaFi9iEAO-11" edge="1">
          <mxGeometry width="50" height="50" relative="1" as="geometry">
            <mxPoint x="350" y="570" as="sourcePoint" />
            <mxPoint x="-79" y="870" as="targetPoint" />
            <Array as="points">
              <mxPoint x="-80" y="720" />
              <mxPoint x="1260" y="720" />
              <mxPoint x="1260" y="-1115" />
            </Array>
          </mxGeometry>
        </mxCell>
        <mxCell id="K-hoV5M5BKxwaFi9iEAO-35" value="" style="endArrow=none;html=1;rounded=0;entryX=0.585;entryY=1.029;entryDx=0;entryDy=0;entryPerimeter=0;exitX=1;exitY=0.5;exitDx=0;exitDy=0;fontSize=20;fontStyle=0;labelBackgroundColor=none;fontColor=#000000;" parent="1" source="K-hoV5M5BKxwaFi9iEAO-13" target="uGLxTM2DFbwT5KClBr5C-61" edge="1">
          <mxGeometry width="50" height="50" relative="1" as="geometry">
            <mxPoint x="400" y="860" as="sourcePoint" />
            <mxPoint x="400" y="520" as="targetPoint" />
            <Array as="points">
              <mxPoint x="1220" y="-1085" />
              <mxPoint x="1220" y="690" />
              <mxPoint x="405" y="690" />
            </Array>
          </mxGeometry>
        </mxCell>
        <mxCell id="K-hoV5M5BKxwaFi9iEAO-36" value="" style="endArrow=none;html=1;rounded=0;entryX=1;entryY=0.5;entryDx=0;entryDy=0;fontSize=20;fontStyle=0;labelBackgroundColor=none;fontColor=#000000;" parent="1" source="K-hoV5M5BKxwaFi9iEAO-14" target="uGLxTM2DFbwT5KClBr5C-89" edge="1">
          <mxGeometry width="50" height="50" relative="1" as="geometry">
            <mxPoint x="350" y="570" as="sourcePoint" />
            <mxPoint x="400" y="520" as="targetPoint" />
            <Array as="points">
              <mxPoint x="1180" y="-1050" />
              <mxPoint x="1180" y="385" />
            </Array>
          </mxGeometry>
        </mxCell>
        <mxCell id="K-hoV5M5BKxwaFi9iEAO-37" value="1" style="text;html=1;align=center;verticalAlign=middle;resizable=0;points=[];autosize=1;strokeColor=none;fillColor=none;fontSize=20;fontStyle=0;labelBackgroundColor=none;fontColor=#000000;" parent="1" vertex="1">
          <mxGeometry x="-70" y="560" width="30" height="40" as="geometry" />
        </mxCell>
        <mxCell id="K-hoV5M5BKxwaFi9iEAO-38" value="1" style="text;html=1;align=center;verticalAlign=middle;resizable=0;points=[];autosize=1;strokeColor=none;fillColor=none;fontSize=20;fontStyle=0;labelBackgroundColor=none;fontColor=#000000;" parent="1" vertex="1">
          <mxGeometry x="1130" y="-1145" width="30" height="40" as="geometry" />
        </mxCell>
        <mxCell id="K-hoV5M5BKxwaFi9iEAO-40" value="1" style="text;html=1;align=center;verticalAlign=middle;resizable=0;points=[];autosize=1;strokeColor=none;fillColor=none;fontSize=20;fontStyle=0;labelBackgroundColor=none;fontColor=#000000;" parent="1" vertex="1">
          <mxGeometry x="1130" y="-1060" width="30" height="40" as="geometry" />
        </mxCell>
        <mxCell id="K-hoV5M5BKxwaFi9iEAO-41" value="1" style="text;html=1;align=center;verticalAlign=middle;resizable=0;points=[];autosize=1;strokeColor=none;fillColor=none;fontSize=20;fontStyle=0;labelBackgroundColor=none;fontColor=#000000;" parent="1" vertex="1">
          <mxGeometry x="1130" y="-1095" width="30" height="40" as="geometry" />
        </mxCell>
        <mxCell id="K-hoV5M5BKxwaFi9iEAO-42" value="1" style="text;html=1;align=center;verticalAlign=middle;resizable=0;points=[];autosize=1;strokeColor=none;fillColor=none;fontSize=20;fontStyle=0;labelBackgroundColor=none;fontColor=#000000;" parent="1" vertex="1">
          <mxGeometry x="399" y="575" width="30" height="40" as="geometry" />
        </mxCell>
        <mxCell id="K-hoV5M5BKxwaFi9iEAO-43" value="1" style="text;html=1;align=center;verticalAlign=middle;resizable=0;points=[];autosize=1;strokeColor=none;fillColor=none;fontSize=20;fontStyle=0;labelBackgroundColor=none;fontColor=#000000;" parent="1" vertex="1">
          <mxGeometry x="1180" y="380" width="30" height="40" as="geometry" />
        </mxCell>
        <mxCell id="8JwXfrpJB-abSDbNxLmU-5" value="Price" style="swimlane;fontStyle=0;childLayout=stackLayout;horizontal=1;startSize=30;horizontalStack=0;resizeParent=1;resizeParentMax=0;resizeLast=0;collapsible=1;marginBottom=0;whiteSpace=wrap;html=1;fontSize=20;labelBackgroundColor=none;fontColor=#000000;" vertex="1" parent="1">
          <mxGeometry x="1300" y="-820" width="140" height="90" as="geometry" />
        </mxCell>
        <mxCell id="8JwXfrpJB-abSDbNxLmU-6" value="&lt;span style=&quot;text-align: center;&quot;&gt;type&lt;/span&gt;&lt;span style=&quot;text-align: center;&quot;&gt;: String&lt;/span&gt;" style="text;strokeColor=none;fillColor=none;align=left;verticalAlign=middle;spacingLeft=4;spacingRight=4;overflow=hidden;points=[[0,0.5],[1,0.5]];portConstraint=eastwest;rotatable=0;whiteSpace=wrap;html=1;fontSize=20;fontStyle=0;labelBackgroundColor=none;fontColor=#000000;" vertex="1" parent="8JwXfrpJB-abSDbNxLmU-5">
          <mxGeometry y="30" width="140" height="30" as="geometry" />
        </mxCell>
        <mxCell id="8JwXfrpJB-abSDbNxLmU-7" value="&lt;span style=&quot;text-align: center;&quot;&gt;price&lt;/span&gt;&lt;span style=&quot;text-align: center;&quot;&gt;: Number&lt;/span&gt;" style="text;strokeColor=none;fillColor=none;align=left;verticalAlign=middle;spacingLeft=4;spacingRight=4;overflow=hidden;points=[[0,0.5],[1,0.5]];portConstraint=eastwest;rotatable=0;whiteSpace=wrap;html=1;fontSize=20;fontStyle=0;labelBackgroundColor=none;fontColor=#000000;" vertex="1" parent="8JwXfrpJB-abSDbNxLmU-5">
          <mxGeometry y="60" width="140" height="30" as="geometry" />
        </mxCell>
        <mxCell id="8JwXfrpJB-abSDbNxLmU-8" value="Assessment_List" style="swimlane;fontStyle=0;childLayout=stackLayout;horizontal=1;startSize=30;horizontalStack=0;resizeParent=1;resizeParentMax=0;resizeLast=0;collapsible=1;marginBottom=0;whiteSpace=wrap;html=1;fontSize=20;labelBackgroundColor=none;fontColor=#000000;" vertex="1" parent="1">
          <mxGeometry x="1300" y="-705" width="190" height="180" as="geometry" />
        </mxCell>
        <mxCell id="8JwXfrpJB-abSDbNxLmU-9" value="&lt;div style=&quot;text-align: center;&quot;&gt;&lt;span style=&quot;background-color: initial;&quot;&gt;content:String&lt;/span&gt;&lt;/div&gt;" style="text;strokeColor=none;fillColor=none;align=left;verticalAlign=middle;spacingLeft=4;spacingRight=4;overflow=hidden;points=[[0,0.5],[1,0.5]];portConstraint=eastwest;rotatable=0;whiteSpace=wrap;html=1;fontSize=20;fontStyle=0;labelBackgroundColor=none;fontColor=#000000;" vertex="1" parent="8JwXfrpJB-abSDbNxLmU-8">
          <mxGeometry y="30" width="190" height="30" as="geometry" />
        </mxCell>
        <mxCell id="8JwXfrpJB-abSDbNxLmU-10" value="&lt;div style=&quot;text-align: center;&quot;&gt;&lt;span style=&quot;background-color: initial;&quot;&gt;start: Number&lt;/span&gt;&lt;/div&gt;" style="text;strokeColor=none;fillColor=none;align=left;verticalAlign=middle;spacingLeft=4;spacingRight=4;overflow=hidden;points=[[0,0.5],[1,0.5]];portConstraint=eastwest;rotatable=0;whiteSpace=wrap;html=1;fontSize=20;fontStyle=0;labelBackgroundColor=none;fontColor=#000000;" vertex="1" parent="8JwXfrpJB-abSDbNxLmU-8">
          <mxGeometry y="60" width="190" height="30" as="geometry" />
        </mxCell>
        <mxCell id="8JwXfrpJB-abSDbNxLmU-11" value="&lt;div style=&quot;text-align: center;&quot;&gt;&lt;span style=&quot;background-color: initial;&quot;&gt;image: String&lt;/span&gt;&lt;/div&gt;" style="text;strokeColor=none;fillColor=none;align=left;verticalAlign=middle;spacingLeft=4;spacingRight=4;overflow=hidden;points=[[0,0.5],[1,0.5]];portConstraint=eastwest;rotatable=0;whiteSpace=wrap;html=1;fontSize=20;fontStyle=0;labelBackgroundColor=none;fontColor=#000000;" vertex="1" parent="8JwXfrpJB-abSDbNxLmU-8">
          <mxGeometry y="90" width="190" height="30" as="geometry" />
        </mxCell>
        <mxCell id="8JwXfrpJB-abSDbNxLmU-12" value="&lt;div style=&quot;text-align: center;&quot;&gt;&lt;span style=&quot;background-color: initial;&quot;&gt;fullName: String&lt;/span&gt;&lt;/div&gt;" style="text;strokeColor=none;fillColor=none;align=left;verticalAlign=middle;spacingLeft=4;spacingRight=4;overflow=hidden;points=[[0,0.5],[1,0.5]];portConstraint=eastwest;rotatable=0;whiteSpace=wrap;html=1;fontSize=20;fontStyle=0;labelBackgroundColor=none;fontColor=#000000;" vertex="1" parent="8JwXfrpJB-abSDbNxLmU-8">
          <mxGeometry y="120" width="190" height="30" as="geometry" />
        </mxCell>
        <mxCell id="8JwXfrpJB-abSDbNxLmU-13" value="&lt;div style=&quot;text-align: center;&quot;&gt;&lt;span style=&quot;background-color: initial;&quot;&gt;date: Object&lt;/span&gt;&lt;/div&gt;" style="text;strokeColor=none;fillColor=none;align=left;verticalAlign=middle;spacingLeft=4;spacingRight=4;overflow=hidden;points=[[0,0.5],[1,0.5]];portConstraint=eastwest;rotatable=0;whiteSpace=wrap;html=1;fontSize=20;fontStyle=0;labelBackgroundColor=none;fontColor=#000000;" vertex="1" parent="8JwXfrpJB-abSDbNxLmU-8">
          <mxGeometry y="150" width="190" height="30" as="geometry" />
        </mxCell>
        <mxCell id="8JwXfrpJB-abSDbNxLmU-21" value="" style="endArrow=classic;html=1;rounded=0;fontColor=#000000;exitX=1;exitY=0.5;exitDx=0;exitDy=0;entryX=0;entryY=0.5;entryDx=0;entryDy=0;labelBackgroundColor=none;" edge="1" parent="1" source="UZzyd5HIegSU0YCeQs_y-61" target="uGLxTM2DFbwT5KClBr5C-208">
          <mxGeometry width="50" height="50" relative="1" as="geometry">
            <mxPoint x="-210" y="-320" as="sourcePoint" />
            <mxPoint x="-160" y="-370" as="targetPoint" />
          </mxGeometry>
        </mxCell>
        <mxCell id="8JwXfrpJB-abSDbNxLmU-24" value="" style="endArrow=classic;html=1;rounded=0;exitX=1;exitY=0.208;exitDx=0;exitDy=0;entryX=0;entryY=0.5;entryDx=0;entryDy=0;fontColor=#000000;exitPerimeter=0;" edge="1" parent="1" source="uGLxTM2DFbwT5KClBr5C-247" target="uGLxTM2DFbwT5KClBr5C-262">
          <mxGeometry width="50" height="50" relative="1" as="geometry">
            <mxPoint x="270" y="-990" as="sourcePoint" />
            <mxPoint x="320" y="-1040" as="targetPoint" />
          </mxGeometry>
        </mxCell>
        <mxCell id="8JwXfrpJB-abSDbNxLmU-25" value="1" style="text;html=1;align=center;verticalAlign=middle;resizable=0;points=[];autosize=1;strokeColor=none;fillColor=none;fontSize=20;fontStyle=0;labelBackgroundColor=none;fontColor=#000000;" vertex="1" parent="1">
          <mxGeometry x="740" y="-505" width="30" height="40" as="geometry" />
        </mxCell>
        <mxCell id="8JwXfrpJB-abSDbNxLmU-26" value="n" style="text;html=1;align=center;verticalAlign=middle;resizable=0;points=[];autosize=1;strokeColor=none;fillColor=none;fontSize=20;fontStyle=0;labelBackgroundColor=none;fontColor=#000000;" vertex="1" parent="1">
          <mxGeometry x="420" y="-485" width="30" height="40" as="geometry" />
        </mxCell>
        <mxCell id="8JwXfrpJB-abSDbNxLmU-28" value="" style="edgeStyle=orthogonalEdgeStyle;rounded=0;orthogonalLoop=1;jettySize=auto;html=1;" edge="1" parent="1" source="uGLxTM2DFbwT5KClBr5C-84" target="uGLxTM2DFbwT5KClBr5C-102">
          <mxGeometry relative="1" as="geometry" />
        </mxCell>
        <mxCell id="8JwXfrpJB-abSDbNxLmU-29" value="n" style="text;html=1;align=center;verticalAlign=middle;resizable=0;points=[];autosize=1;strokeColor=none;fillColor=none;fontSize=20;fontStyle=0;labelBackgroundColor=none;fontColor=#000000;" vertex="1" parent="1">
          <mxGeometry x="210" y="-410" width="30" height="40" as="geometry" />
        </mxCell>
        <mxCell id="8JwXfrpJB-abSDbNxLmU-30" value="1" style="text;html=1;align=center;verticalAlign=middle;resizable=0;points=[];autosize=1;strokeColor=none;fillColor=none;fontSize=20;fontStyle=0;labelBackgroundColor=none;fontColor=#000000;" vertex="1" parent="1">
          <mxGeometry x="140" y="-420" width="30" height="40" as="geometry" />
        </mxCell>
      </root>
    </mxGraphModel>
  </diagram>
</mxfile>
